<svg width="400" height="445" viewBox="0 0 400 445" fill="none" xmlns="http://www.w3.org/2000/svg">
<path fill-rule="evenodd" clip-rule="evenodd" d="M274.676 25.2927C271.152 26.0421 265.837 29.048 262.975 31.9111C256.642 38.245 255.002 46.8295 258.572 54.9613L259.582 57.2594H245.827H232.072V49.1129C232.072 44.5601 231.827 40.5079 231.516 39.9267C230.857 38.6944 228.256 37.2528 226.694 37.2528C225.815 37.2528 225.585 36.9057 225.585 35.5771C225.585 34.4 225.086 33.4353 223.906 32.3328L222.227 30.7642H171.686H121.145L119.307 32.6026L117.469 34.4411V46.1206V57.8001H75.8438H34.2188V81.8551V105.909L32.4619 106.652C31.4954 107.061 30.0223 108.084 29.1882 108.926C27.9708 110.156 27.2556 110.433 25.5614 110.333C23.0725 110.186 18.0721 111.403 15.0281 112.896C12.3701 114.2 7.07234 119.582 5.9236 122.146C5.45708 123.186 4.69323 125.133 4.22617 126.471C0.501006 137.139 5.58628 150.621 15.1157 155.341C16.8515 156.201 18.6938 157.113 19.2101 157.369C20.8178 158.164 29.0644 157.92 30.7786 157.025C31.63 156.581 32.7522 156.216 33.2728 156.214C34.161 156.211 34.2188 157.843 34.2188 182.945C34.2188 200.184 34.0269 209.797 33.6782 210.012C33.3236 210.231 33.1377 228.682 33.1377 263.604V316.862L30.705 320.589C29.3671 322.639 28.2724 324.493 28.2724 324.708C28.2724 324.924 27.941 325.484 27.5356 325.954C27.1302 326.424 26.3587 328.024 25.8209 329.511C25.283 330.998 24.6543 332.468 24.4235 332.777C24.0288 333.306 23.5758 334.91 22.2341 340.529C21.5081 343.568 21.9589 357.55 22.8639 360.062C23.8721 362.859 26.7215 368.748 27.9659 370.606C31.0461 375.202 36.9936 380.325 42.3103 382.959C44.6899 384.138 51.0526 385.477 54.2204 385.466C57.6866 385.453 65.3954 384.115 69.1984 382.866C73.0679 381.595 79.083 378.423 82.0059 376.11C84.6818 373.993 88.7697 369.645 90.1584 367.439C91.8132 364.81 92.9646 363.732 93.9009 363.933C94.6734 364.099 94.6669 364.278 93.836 365.739C92.6467 367.832 92.4862 377.99 93.6046 380.389C94.0079 381.254 94.6853 382.691 95.1107 383.583C95.9686 385.384 99.1781 389.26 99.8106 389.26C100.033 389.26 100.752 389.763 101.409 390.378C102.939 391.81 107.526 394.127 108.832 394.127C109.384 394.127 109.987 394.37 110.171 394.668C110.361 394.975 113.06 395.208 116.419 395.208C120.002 395.208 122.334 394.995 122.334 394.668C122.334 394.37 122.836 394.127 123.45 394.127C125.556 394.127 130.541 391.392 133.451 388.639C136.738 385.529 139.633 380.217 139.633 377.295C139.633 376.263 139.925 375.126 140.281 374.769C140.728 374.323 143.469 374.118 149.066 374.112C153.54 374.107 157.508 373.91 157.881 373.672C158.255 373.435 159.38 371.239 160.381 368.792C161.382 366.344 162.313 364.231 162.449 364.095C162.585 363.959 170.633 363.84 180.334 363.831C194.822 363.817 198.108 363.677 198.738 363.047C199.4 362.385 199.939 362.509 202.679 363.953C205.555 365.468 206.313 365.625 210.719 365.614C213.999 365.606 216.24 365.315 217.595 364.724C218.7 364.241 219.855 363.847 220.162 363.847C220.539 363.847 220.72 372.828 220.72 391.423V419H303.159H385.598V342.218V265.436H353.704C326.956 265.436 321.809 265.557 321.809 266.182C321.809 266.592 322.45 268.327 323.233 270.037C324.363 272.507 324.66 273.994 324.677 277.267C324.7 281.965 323.958 284.668 321.686 288.146C320.095 290.581 314.689 295.175 313.414 295.175C313.041 295.175 311.711 292.33 310.446 288.822C307.957 281.922 306.316 279.345 303.425 277.794C301.795 276.92 300.261 276.791 291.496 276.791H281.437L281.822 274.493C282.257 271.893 283.678 268.383 284.501 267.874C284.803 267.688 285.05 267.063 285.05 266.486C285.05 265.458 284.363 265.436 252.885 265.436H220.72V271.076V276.715L212.296 276.888L203.871 277.061L202.295 278.827C201.239 280.01 200.72 281.171 200.722 282.342C200.724 283.304 202.095 287.741 203.769 292.202C205.443 296.662 207.151 301.286 207.565 302.475C207.978 303.665 208.527 305.125 208.784 305.72C210.056 308.66 212.758 316.152 212.976 317.345C213.219 318.664 213.141 318.699 209.783 318.791C206.686 318.875 204.281 319.648 199.502 322.094C199.279 322.208 199.097 318.51 199.097 313.875C199.097 307.489 198.933 305.452 198.421 305.461C198.05 305.467 196.651 305.97 195.313 306.578C193.832 307.25 191.158 307.804 188.475 307.994C184.324 308.287 183.855 308.206 180.366 306.575C175.978 304.523 174.417 303.126 171.485 298.625C169.836 296.094 169.079 294.175 168.43 290.876C167.632 286.826 167.635 286.17 168.468 282.29C169.877 275.732 172.206 271.881 176.804 268.505C182.096 264.619 188.54 263.801 194.502 266.257C196.286 266.993 198.05 267.595 198.421 267.596C198.953 267.598 199.097 261.616 199.097 239.481V211.364H229.099C245.601 211.364 259.102 211.456 259.102 211.569C259.102 211.681 258.758 212.595 258.338 213.6C253.959 224.085 258.648 235.46 269.569 240.845C276.212 244.12 284.83 244.014 291.855 240.572C295.92 238.58 300.262 234.113 302.242 229.885C303.505 227.191 303.7 226.087 303.699 221.638C303.699 217.495 303.47 216.005 302.515 213.937L301.332 211.373L331.978 211.233L362.623 211.094V134.312V57.5298L331.666 57.3902L300.709 57.2507L301.769 55.1717C302.353 54.0286 303.105 51.511 303.441 49.5769C305.156 39.7282 299.302 30.3803 288.834 26.2524C286.112 25.1791 277.846 24.6189 274.676 25.2927ZM287.681 27.7302C294.757 30.1245 299.576 35.0213 301.554 41.8257C302.765 45.9914 302.36 49.8094 300.222 54.379C299.31 56.3272 298.564 58.1375 298.564 58.4014C298.564 58.6755 312.019 58.8815 329.918 58.8815H361.272V107.276C361.272 133.893 361.157 155.67 361.016 155.67C360.875 155.67 358.99 154.972 356.826 154.118C347.757 150.539 337.133 148.107 325.593 146.967C321.877 146.6 318.788 146.271 318.729 146.236C318.669 146.201 318.221 141.564 317.733 135.933C317.155 129.264 317.034 125.63 317.386 125.513C319.239 124.895 323.287 121.575 325.076 119.204C328.031 115.289 329.5 111.652 329.782 107.555C330.357 99.2197 324.424 91.8654 317.125 91.8654C315.791 91.8654 315.426 91.5518 314.826 89.8907C313.79 87.027 310.319 83.528 307.066 82.0692C304.809 81.057 303.317 80.805 299.645 80.8136C294.105 80.8271 290.075 82.1465 285.864 85.3265C279.574 90.0772 278.31 98.4394 283.321 102.146L284.936 103.34L283.95 105.578C283.408 106.809 282.675 108.972 282.321 110.385C281.967 111.798 281.422 112.953 281.109 112.953C279.974 112.953 278.563 114.778 278.563 116.245C278.563 117.296 279.049 118.092 280.184 118.901C281.35 119.731 281.806 120.499 281.806 121.629C281.806 122.731 282.232 123.481 283.227 124.133C284.554 125.003 284.864 125.007 287.957 124.188C289.777 123.707 291.69 123.146 292.208 122.944C293.53 122.425 294.095 124.144 292.972 125.268C292.446 125.793 290.673 126.29 288.53 126.512C284.417 126.938 283.687 127.44 284.201 129.488C285.013 132.725 290.064 135.894 295.413 136.523L298.394 136.874L297.467 141.967C296.958 144.768 296.449 147.13 296.337 147.217C296.224 147.304 293.942 147.938 291.266 148.626C278.132 152.005 267.906 157.996 252.089 171.579C247.786 175.274 242.927 179.107 241.291 180.096C238.566 181.744 237.975 181.888 234.248 181.812C228.421 181.693 218.197 178.504 204.638 172.576L199.097 170.154V161.56C199.097 151.845 199.252 152.117 194.901 154.183C191.135 155.972 183.678 155.93 179.993 154.101C177.022 152.626 172.608 148.552 171.355 146.128C170.526 144.524 170.572 144.384 174.458 136.648C177.611 130.372 179.282 127.776 182.783 123.714C185.193 120.918 187.833 117.353 188.65 115.792C190.355 112.534 190.823 112.416 194.892 114.215C196.462 114.909 198.05 115.376 198.421 115.252C198.944 115.077 199.097 110.932 199.097 96.9573V78.8881H213.906H228.714L230.393 77.3195L232.072 75.7509V67.3162V58.8815H246.848C254.975 58.8815 261.783 58.7226 261.978 58.5285C262.172 58.3338 261.849 57.3946 261.26 56.4413C258.048 51.2439 257.526 44.2913 259.943 38.9053C262.273 33.71 267.655 29.2237 273.939 27.2382C277.641 26.0681 283.377 26.273 287.681 27.7302ZM222.539 33.5073L223.964 34.6276V51.5375C223.964 67.2649 223.894 68.5096 222.97 69.3466C222.058 70.1717 217.808 70.2469 171.48 70.2539L120.983 70.2615L120.036 69.1076C119.181 68.0651 119.09 66.3705 119.09 51.4975V35.0407L120.418 33.7138L121.744 32.3864H171.43C220.876 32.3864 221.122 32.3918 222.539 33.5073ZM202.147 36.1811C197.399 37.621 195.518 43.125 198.348 47.2956C199.155 48.4852 199.514 49.4601 199.184 49.5698C197.628 50.0889 194.925 52.3637 193.566 54.2968C191.779 56.8403 191.044 61.2726 192.019 63.6269C193.236 66.5668 194.815 66.9923 204.505 66.9923H213.26L215.098 65.1539C216.567 63.6848 216.931 62.8975 216.912 61.2337C216.861 56.7436 214.165 52.1934 210.473 50.3663C208.558 49.4184 208.391 49.1951 209.132 48.5792C209.598 48.1921 210.329 47.201 210.755 46.3758C213.575 40.9221 208.058 34.3881 202.147 36.1811ZM206.943 38.8798C210.477 41.0643 210.59 45.1154 207.186 47.5405C202.031 51.2125 195.676 43.7955 200.341 39.5525C202.573 37.5232 204.441 37.3328 206.943 38.8798ZM201.8 39.1453C201.8 39.294 201.921 39.4157 202.07 39.4157C202.219 39.4157 202.34 39.294 202.34 39.1453C202.34 38.9966 202.219 38.875 202.07 38.875C201.921 38.875 201.8 38.9966 201.8 39.1453ZM130.818 47.872C130.628 48.0623 130.602 48.4273 130.76 48.6831C130.918 48.9394 142.709 49.1486 156.963 49.1486C179.64 49.1486 182.879 49.047 182.879 48.3375C182.879 47.6281 179.646 47.5265 157.022 47.5265C142.799 47.5265 131.008 47.6822 130.818 47.872ZM208.557 51.796C209.746 52.3464 211.394 53.5155 212.217 54.3936C213.714 55.9887 213.714 55.9909 212.623 56.9788C212.022 57.5227 211.53 58.2159 211.53 58.5187C211.53 58.8221 212.109 58.5268 212.816 57.8623L214.101 56.6543L214.472 59.127C215.033 62.8699 213.848 65.5394 212.224 64.1914C211.729 63.781 211.53 63.7896 211.53 64.2228C211.53 64.5915 210.457 64.8295 208.795 64.8295C207.11 64.8295 206.189 64.6218 206.395 64.2887C206.579 63.9913 206.486 63.748 206.188 63.748C205.891 63.748 205.497 63.9913 205.314 64.2887C205.13 64.5861 202.822 64.8295 200.185 64.8295C194.118 64.8295 193.479 64.3433 193.795 59.9689C193.973 57.5173 194.366 56.4883 195.814 54.685C196.804 53.4533 197.997 52.3718 198.466 52.2815C198.942 52.1896 200.758 53.6068 202.586 55.4977C204.383 57.3567 206.09 58.8788 206.379 58.8799C206.668 58.8805 205.391 57.354 203.541 55.4875C201.692 53.6209 200.178 51.9355 200.178 51.7419C200.178 50.548 205.942 50.5848 208.557 51.796ZM147.336 57.9353C147.508 58.4538 151.676 58.6442 165.22 58.7539C180.691 58.8788 182.879 58.795 182.879 58.078C182.879 57.3638 180.603 57.2594 164.995 57.2594C150.928 57.2594 147.159 57.4038 147.336 57.9353ZM209.909 60.2333C210.607 60.9768 211.3 61.5851 211.449 61.5851C211.597 61.5851 211.148 60.9768 210.449 60.2333C209.751 59.4899 209.058 58.8815 208.909 58.8815C208.76 58.8815 209.21 59.4899 209.909 60.2333ZM117.469 63.9767C117.469 68.0748 117.608 68.6967 118.853 70.1766C119.684 71.1651 120.98 71.9615 122.096 72.1708C123.624 72.4574 123.956 72.7602 123.956 73.8654C123.956 74.6749 124.688 75.9439 125.794 77.0497L127.632 78.8881H162.283H196.935V95.592V112.296L193.851 111.341C191.772 110.698 190.596 110.002 190.24 109.204C189.946 108.545 189.036 107.886 188.188 107.716C187.349 107.548 186.663 107.119 186.663 106.762C186.663 106.405 186.073 105.557 185.35 104.879C184.278 103.871 183.768 103.735 182.564 104.137C181.633 104.447 180.422 104.42 179.281 104.062C177.692 103.565 177.47 103.267 177.443 101.601C177.384 97.8884 173.928 91.8654 171.856 91.8654C170.677 91.8654 170.249 94.0434 170.941 96.5339C171.26 97.6835 171.522 101.344 171.524 104.669C171.527 109.514 171.354 110.886 170.655 111.586C169.851 112.389 169.575 112.256 167.188 109.912C163.962 106.743 162.585 105.967 160.143 105.943C156.166 105.904 155.446 108.162 158.777 110.221C162.646 112.613 163.797 115.548 162.816 120.523C160.727 131.119 147.651 141.406 131.524 145.14C126.107 146.394 114.778 146.419 109.603 145.188C105.086 144.114 100.209 142.709 99.071 142.154C98.6153 141.931 97.4071 141.565 96.386 141.341C95.3648 141.117 94.1566 140.734 93.7009 140.489C92.9624 140.094 90.5817 139.366 82.3308 137.012C80.9928 136.63 78.9251 136.11 77.7358 135.856C75.6129 135.402 75.5124 135.27 72.217 128.634C67.8512 119.842 67.5155 118.908 68.7092 118.877C70.3055 118.836 73.6598 117.441 75.9059 115.884C79.7949 113.189 82.3146 107.341 82.3248 100.988C82.3292 98.4686 82.5713 97.205 83.1417 96.7318C84.8272 95.3325 83.7498 92.6278 81.1388 91.7037C80.6323 91.5242 79.6879 90.3314 79.0413 89.0531C78.3942 87.7743 77.4104 86.0829 76.8541 85.2935C76.2984 84.504 75.8438 83.7687 75.8438 83.6589C75.8438 83.5497 76.6514 83.0246 77.6385 82.4931C80.1717 81.1283 81.2496 79.0211 81.2496 75.4335C81.2496 72.8764 81.0134 72.1524 79.7003 70.6816C78.3542 69.1757 77.8028 68.9481 75.5108 68.953C72.7462 68.9589 70.619 69.9484 66.209 73.2803C64.2596 74.7533 63.6525 74.9366 61.5275 74.697C56.159 74.092 48.3324 76.7177 44.5445 80.3951C39.8193 84.9815 38.5132 91.4625 40.7604 99.1651C42.5217 105.201 42.5552 105.087 38.9489 105.275L35.8406 105.437V82.4298V59.4223H76.6546H117.469V63.9767ZM207.369 60.0154C206.867 60.5183 207.006 60.8871 207.995 61.6646C210.095 63.3171 210.67 62.646 208.963 60.5367C208.228 59.6288 207.872 59.5126 207.369 60.0154ZM74.8951 86.1073C75.7113 87.0438 77.0493 89.2061 77.8683 90.9121C79.0246 93.3199 79.6295 94.0158 80.5739 94.0212C81.9389 94.0293 82.2356 95.3638 80.9793 95.8461C80.3463 96.0889 80.1684 97.1682 80.1684 100.766C80.1684 109.689 75.9616 115.561 68.8162 116.611C65.9543 117.031 65.8457 117.108 65.9192 118.65C65.9614 119.532 67.3766 123.295 69.0638 127.012C70.7509 130.729 72.2397 134.014 72.3721 134.312C72.5257 134.658 69.8341 134.861 64.9029 134.876C60.0031 134.89 56.4368 135.158 55.1167 135.61C53.7474 136.079 52.8576 136.139 52.5052 135.786C52.2111 135.492 51.7051 132.692 51.3807 129.563L50.791 123.875L52.2213 122.175C54.1431 119.89 54.8453 116.975 54.8891 111.104C54.9091 108.403 55.1746 105.794 55.4789 105.304C55.8887 104.645 55.7973 104.18 55.1264 103.509C53.9393 102.321 53.9826 101.836 55.4032 100.416C56.3228 99.4954 56.632 99.4051 56.7941 100.01C57.6283 103.12 59.3743 104.044 61.4924 102.495C62.4346 101.806 62.44 101.625 61.6021 98.8455C60.0322 93.6395 60.0804 93.4443 63.6806 90.4357C65.4646 88.945 67.4107 86.8205 68.0053 85.7152C69.0422 83.7881 69.1746 83.72 71.2488 84.0558C72.7273 84.2948 73.8804 84.9431 74.8951 86.1073ZM68.2756 91.1646C66.7349 91.7253 64.4915 94.2348 64.4915 95.3973C64.4915 99.5252 74.1258 99.2581 75.8551 95.0826C76.5806 93.3307 75.753 91.5734 73.9788 91.0965C72.61 90.7288 69.3665 90.7672 68.2756 91.1646ZM69.6903 94.7993C70.2098 95.9197 70.1455 96.1414 69.233 96.3804C67.0669 96.947 65.8765 95.5628 67.3026 94.1364C68.2853 93.1534 69.0227 93.3583 69.6903 94.7993ZM175.027 99.7382C175.526 101.456 175.852 104.746 175.852 108.075V113.574L172.902 116.668C169.48 120.256 167.079 125.088 166.068 130.421C165.456 133.651 165.489 134.672 166.342 138.802C166.876 141.388 167.509 143.747 167.749 144.045C168.211 144.616 163.423 152.874 162.133 153.733C161.082 154.433 156.839 151.839 154.719 149.2C151.895 145.685 149.904 145.71 149.904 149.261C149.904 152.002 151.443 154.981 154.098 157.38L156.208 159.287L154.813 159.869C154.045 160.189 150.133 162.204 146.12 164.346C141.097 167.027 139.18 167.841 139.971 166.957C142.086 164.593 142.562 163.087 142.512 158.914C142.463 154.857 141.013 149.192 139.39 146.715C138.653 145.59 138.726 145.486 140.881 144.581C148.669 141.311 154.048 137.628 158.401 132.583C162.397 127.953 164.434 124.014 164.839 120.135C165.329 115.448 164.789 113.435 162.278 110.582C160.376 108.42 160.231 108.087 161.191 108.087C162.246 108.087 164.974 110.131 167.56 112.858C169.398 114.796 171.544 114.3 172.787 111.651C173.617 109.882 173.74 108.564 173.542 103.541C173.413 100.242 173.132 96.9346 172.917 96.1911C172.546 94.9015 172.567 94.8869 173.365 95.8699C173.826 96.4371 174.573 98.1777 175.027 99.7382ZM303.621 101.302C305.449 102.997 305.476 105.132 303.713 108.504C301.696 112.362 301.464 114.232 302.833 115.601C304.833 117.601 306.416 117.086 310.128 113.224C311.986 111.291 313.956 109.709 314.507 109.709C316.171 109.709 317.485 111.334 317.485 113.394C317.485 114.946 317.048 115.689 315.069 117.507C311.998 120.327 311.071 122.703 312.305 124.588C312.789 125.327 313.666 125.931 314.254 125.931C314.841 125.931 315.322 126.292 315.322 126.733C315.322 130.094 317.813 154.016 318.203 154.406C319.062 155.265 319.536 153.726 319.254 150.994L318.94 147.955L322.132 148.31C331.602 149.363 331.128 149.064 329.692 153.088C327.469 159.32 319.379 165.691 310.187 168.449C305.232 169.936 298.065 169.724 294.24 167.978C289.101 165.631 286.131 161.439 286.131 156.534C286.131 151.757 286.366 151.558 294.159 149.702L295.971 149.271L295.596 151.794C295.391 153.183 295.183 154.562 295.136 154.859C295.089 155.156 295.412 155.4 295.855 155.4C296.446 155.4 296.939 153.931 297.714 149.861C298.513 145.667 298.998 144.25 299.711 144.024C300.229 143.859 301.277 142.659 302.04 141.358C302.893 139.902 304.307 138.504 305.714 137.729C307.091 136.969 308.209 135.875 308.523 134.981C309.357 132.611 308.375 132.199 305.283 133.619C301.551 135.332 294.542 135.354 290.865 133.663C288.425 132.54 285.59 130.087 285.59 129.096C285.59 128.842 286.381 128.633 287.347 128.631C293.44 128.621 297.702 124.272 293.999 121.845C292.769 121.039 292.434 121.061 289.197 122.155C284.605 123.706 283.769 123.509 283.428 120.793C283.217 119.114 282.831 118.484 281.671 117.93C279.698 116.988 279.738 115.378 281.751 114.676C283.055 114.221 283.413 113.687 283.883 111.495C284.193 110.046 284.924 107.748 285.507 106.389C286.442 104.208 286.812 103.874 288.646 103.561C289.79 103.366 292.307 102.486 294.24 101.606C298.7 99.5755 301.655 99.4798 303.621 101.302ZM75.3032 101.598C74.8572 101.887 73.5804 102.126 72.4651 102.131C70.3212 102.14 68.2756 103.609 68.2756 105.14C68.2756 106.441 69.7606 109 70.7326 109.373C75.7762 111.309 81.4912 105.625 78.0061 102.139C76.7882 100.921 76.4546 100.854 75.3032 101.598ZM179.636 107.276C179.636 108.019 179.393 108.628 179.095 108.628C178.798 108.628 178.555 108.019 178.555 107.276C178.555 106.532 178.798 105.924 179.095 105.924C179.393 105.924 179.636 106.532 179.636 107.276ZM184.173 106.779C184.884 108.633 184.534 110.25 183.42 110.25C182.555 110.25 182.339 109.889 182.339 108.448C182.339 105.98 183.471 104.95 184.173 106.779ZM287.753 109.544C285.421 110.747 284.977 112.772 286.703 114.333C287.615 115.16 288.658 115.387 291.537 115.387C295.625 115.387 297.483 114.351 297.483 112.071C297.483 109.272 291.362 107.682 287.753 109.544ZM188.139 110.036C187.959 110.215 187.493 110.235 187.103 110.078C186.672 109.906 186.8 109.778 187.429 109.752C187.999 109.729 188.318 109.856 188.139 110.036ZM294.484 110.878C295.242 111.223 295.861 111.822 295.861 112.21C295.861 113.107 294.148 114.035 292.491 114.035C291.39 114.035 291.212 113.772 291.212 112.142C291.212 110.048 291.998 109.744 294.484 110.878ZM179.271 111.146C179.664 111.54 178.669 112.953 177.998 112.953C177.765 112.953 177.702 112.467 177.857 111.872C178.147 110.766 178.638 110.514 179.271 111.146ZM312.84 111.412C312.628 111.755 312.881 112.348 313.402 112.729C313.923 113.11 314.2 113.665 314.016 113.961C313.546 114.723 314.761 115.353 315.423 114.691C316.167 113.947 315.477 111.993 314.237 111.329C313.531 110.951 313.109 110.976 312.84 111.412ZM26.3685 113.359C25.49 115.45 25.4987 116.787 26.4063 119.164C27.5637 122.196 31.6073 126.004 34.6318 126.91C37.5553 127.786 42.6876 127.718 45.8652 126.762C47.3112 126.326 48.5265 126.022 48.5665 126.086C48.6065 126.149 48.9957 128.513 49.4309 131.338C49.9709 134.842 50.0417 136.534 49.6536 136.661C45.2354 138.105 39.0235 140.651 35.5703 142.432C29.4109 145.611 29.1287 145.787 23.2834 150.128C20.3799 152.284 17.7018 154.048 17.3315 154.048C16.0266 154.048 11.1283 150.223 9.46334 147.904C6.28039 143.471 5.34842 140.347 5.32247 134.028C5.30031 128.684 5.40518 128.123 7.04693 124.786C9.52551 119.751 12.6031 116.466 16.5769 114.617C20.5285 112.777 21.3324 112.558 24.411 112.475C26.4571 112.421 26.7139 112.537 26.3685 113.359ZM182.879 113.836C182.879 114.024 182.336 115.058 181.671 116.134C180.731 117.654 180.42 117.873 180.274 117.117C180.066 116.038 181.525 113.494 182.351 113.494C182.641 113.494 182.879 113.648 182.879 113.836ZM186.866 113.925C187.184 114.44 184.636 117.82 183.93 117.82C183.659 117.82 183.944 116.847 184.564 115.657C185.663 113.548 186.325 113.05 186.866 113.925ZM178.014 116.198C178.014 116.495 177.771 116.738 177.474 116.738C177.176 116.738 176.933 116.495 176.933 116.198C176.933 115.9 177.176 115.657 177.474 115.657C177.771 115.657 178.014 115.9 178.014 116.198ZM177.079 119.442C177.558 119.442 178.113 119.705 178.311 120.027C178.51 120.348 179.195 120.48 179.834 120.32C180.473 120.159 181.343 120.242 181.767 120.504C182.386 120.887 182.118 121.481 180.411 123.516C176.742 127.891 176.33 128.544 172.85 135.513L169.451 142.318L168.799 139.937C167.878 136.578 167.972 131.057 169.011 127.487C169.497 125.814 170.899 122.944 172.126 121.106C174.182 118.025 174.427 117.831 175.281 118.604C175.791 119.065 176.599 119.442 177.079 119.442ZM70.0357 137.091C73.8923 137.417 74.1371 137.515 74.4047 138.848C74.561 139.624 75.0853 141.963 75.5697 144.045C76.0546 146.126 76.5892 148.663 76.7584 149.682L77.0655 151.534L74.968 150.308C68.2702 146.395 54.848 138.099 54.9881 137.96C55.0783 137.87 56.2195 137.586 57.5245 137.33C60.5507 136.735 64.858 136.653 70.0357 137.091ZM81.1215 138.856C83.1244 139.423 88.2907 141.026 92.6019 142.418C103.954 146.084 103.734 146.021 109.63 147.247L115.036 148.37L117.269 152.894C120.846 160.14 122.283 169.936 121.236 179.946C120.666 185.4 120.058 186.452 117.469 186.462C116.471 186.466 115.905 186.011 115.306 184.722C114.858 183.756 113.725 182.614 112.771 182.165C110.331 181.018 109.892 179.727 110.843 176.502C111.893 172.942 111.522 168.693 109.991 166.747C108.478 164.823 106.198 163.639 104.595 163.946C103.614 164.133 103.071 163.758 102.099 162.218C100.407 159.536 99.2046 158.582 98.4569 159.33C98.0353 159.752 98.4099 160.576 99.7873 162.257C100.842 163.544 101.879 165.326 102.093 166.217C102.306 167.107 102.688 168.101 102.941 168.424C104.109 169.92 104.547 177.495 103.985 186.488C103.299 197.469 103.304 210.375 103.995 217.042C104.273 219.718 104.629 224.098 104.788 226.775L105.075 231.641L103.145 233.779L101.216 235.918L99.897 234.495C99.1716 233.712 97.8061 231.655 96.8622 229.923C95.3232 227.098 95.1448 226.301 95.1291 222.178C95.1134 218.03 95.2891 217.223 96.9346 213.894C98.4569 210.814 98.6288 210.124 97.9774 209.712C97.5482 209.44 92.7078 209.214 87.222 209.209L77.2466 209.201L75.5994 207.611C74.2874 206.345 72.9425 205.812 69.0005 204.995C63.9044 203.94 63.153 203.515 61.8227 200.937C60.8047 198.964 58.0667 197.31 55.7784 197.285C54.7729 197.275 52.2614 196.939 50.1969 196.54C44.7072 195.478 44.4899 195.083 44.4899 186.187C44.4899 181.568 44.2007 177.846 43.6861 175.838C42.879 172.692 42.6963 172.461 37.0569 167.451C35.9244 166.446 35.8406 165.929 35.8406 159.939C35.8406 153.628 35.8179 153.507 34.6243 153.511C33.9556 153.513 32.6782 153.913 31.7862 154.4C29.8801 155.441 20.7042 156.14 20.7042 155.244C20.7042 154.457 27.8059 149.216 32.35 146.648C39.0727 142.849 48.5978 138.922 51.1115 138.912C51.6316 138.909 56.7401 141.742 62.4638 145.207C77.6601 154.405 77.9812 154.589 78.8408 154.589C79.8349 154.589 79.8414 153.068 78.8635 149.217C78.4429 147.562 77.7131 144.69 77.2417 142.836C76.2438 138.911 76.1762 137.826 76.932 137.826C77.2331 137.826 79.1181 138.29 81.1215 138.856ZM171.797 150.4C176.815 156.807 186.222 159.518 193.975 156.793L196.935 155.752V162.502C196.935 166.215 196.752 169.15 196.529 169.024C192.831 166.949 172.263 157.523 168.959 156.389C166.507 155.547 164.5 154.694 164.499 154.492C164.499 153.858 168.839 147.557 169.247 147.599C169.46 147.622 170.608 148.882 171.797 150.4ZM126.574 150.411C128.96 153.879 129.917 156.517 130.735 161.888C131.363 166.011 131.701 166.948 132.94 168.021C134.06 168.991 134.795 169.212 136.072 168.965C137.638 168.663 137.598 168.728 135.412 170.046C133.48 171.21 133.112 171.694 133.249 172.887C133.471 174.803 135.787 175.047 139.333 173.527C140.771 172.91 142.043 172.499 142.158 172.615C142.273 172.731 140.77 173.867 138.816 175.14C134.454 177.982 132.958 179.723 133.694 181.098C134.379 182.379 133.604 182.656 130.339 182.299C128.674 182.117 127.047 182.325 125.599 182.905C124.385 183.39 123.337 183.787 123.269 183.788C123.201 183.788 123.227 179.76 123.327 174.835C123.496 166.534 123.402 165.461 122.038 160.1C121.23 156.92 119.871 153.007 119.018 151.403C118.166 149.8 117.469 148.401 117.469 148.294C117.469 148.188 119.16 148.1 121.227 148.1H124.985L126.574 150.411ZM154.852 151.549C157.635 154.245 158.353 154.618 164.701 156.666C168.567 157.914 176.43 161.215 182.755 164.246C204.776 174.8 216.53 179.621 226.519 182.197C232.998 183.868 236.438 184.156 238.87 183.232C240.843 182.481 241.907 183.504 244.276 188.43C246.555 193.172 248.075 198.939 248.585 204.786L248.97 209.201H231.352H213.734L208.713 205.086C205.951 202.823 197.898 195.138 190.817 188.008C176.867 173.96 175.303 172.809 170.085 172.74C166.813 172.696 166.441 172.979 160.346 180.138C156.611 184.523 154.769 185.86 154.769 184.183C154.769 183.806 155.367 182.617 156.099 181.541C159.661 176.297 161.497 172.432 160.426 172.432C160.267 172.432 156.025 174.518 151 177.068C144.678 180.276 141.407 181.649 140.379 181.529C139.094 181.378 139.866 180.734 146.115 176.746C152.851 172.448 154.798 170.787 153.057 170.826C152.661 170.836 148.931 173.026 144.768 175.693C137.772 180.176 135.308 181.31 135.308 180.047C135.308 179.774 138.739 177.173 142.932 174.267C150.095 169.303 151.574 167.974 150.797 167.197C150.619 167.02 147.644 168.137 144.184 169.679C137.779 172.534 134.756 173.484 134.782 172.635C134.797 172.157 156.441 160.528 157.285 160.546C157.537 160.551 158.327 161.172 159.042 161.926C159.874 162.803 160.804 163.237 161.627 163.133C163.287 162.922 163.506 161.939 161.943 161.717C161.279 161.623 160.257 160.936 159.671 160.19C159.084 159.444 157.652 158.144 156.488 157.3C153.782 155.34 152.082 152.943 151.692 150.539C151.523 149.495 151.489 148.641 151.617 148.641C151.746 148.641 153.201 149.949 154.852 151.549ZM343.602 151.842C346.928 152.685 352.204 154.336 355.326 155.511L361.002 157.648L361.142 183.425L361.282 209.201H357.494H353.705L350.055 206.218C344.936 202.034 337.406 198.286 334.542 198.496C332.631 198.637 332.33 198.838 332.186 200.072C332.066 201.112 332.473 201.866 333.727 202.921C335.844 204.703 335.531 205.714 332.619 206.498C331.398 206.827 329.993 207.57 329.498 208.149C328.646 209.144 327.793 209.201 313.883 209.201C305.79 209.201 299.037 209.414 298.876 209.675C298.715 209.935 299.309 211.6 300.195 213.374C305.239 223.471 300.198 235.571 289.142 239.902L286.478 240.946L284.322 238.456C279.646 233.059 275.046 224.259 273.068 216.925C272.111 213.38 271.922 211.052 271.869 202.172C271.834 196.373 272.01 189.958 272.261 187.916C272.629 184.913 272.578 184.251 271.993 184.446C271.596 184.578 271.026 185.883 270.727 187.346C270.41 188.9 269.371 191.107 268.229 192.655C267.155 194.113 265.855 196.667 265.341 198.333C263.426 204.53 261.094 207.038 257.247 207.038C256.613 207.038 254.868 207.356 253.371 207.745L250.648 208.451L250.039 202.999C249.274 196.159 247.327 189.921 244.543 185.398L242.387 181.895L243.816 180.814C244.602 180.219 248.667 176.813 252.849 173.246C264.358 163.428 269.509 159.757 277.157 155.922C280.993 153.999 284.288 152.426 284.48 152.426C284.673 152.426 284.73 154.008 284.607 155.942C283.748 169.431 300.936 175.542 317.204 167.53C323.831 164.267 329.947 157.936 331.433 152.799L332.351 149.628L334.953 149.969C336.383 150.156 340.275 150.999 343.602 151.842ZM143.417 172.162C143.417 172.311 143.295 172.432 143.146 172.432C142.998 172.432 142.876 172.311 142.876 172.162C142.876 172.013 142.998 171.892 143.146 171.892C143.295 171.892 143.417 172.013 143.417 172.162ZM175.672 176.126C177.655 177.151 181.144 180.334 187.7 187.102L196.935 196.635V202.918V209.201L181.933 209.253C173.683 209.281 159.999 209.262 151.525 209.212C143.052 209.162 135.693 209.287 135.173 209.489C133.886 209.991 133.984 211 135.562 213.502C136.85 215.543 138.358 222.26 137.749 223.246C137.589 223.505 136.673 223.89 135.715 224.1C134.757 224.311 133.436 224.835 132.781 225.264C131.624 226.022 131.585 225.98 131.422 223.76C130.983 217.801 122.401 217.576 116.916 223.379C115.506 224.871 113.144 229.379 113.144 230.578C113.144 231.241 112.859 231.344 111.928 231.019C111.258 230.786 110.084 230.61 109.318 230.63C108.055 230.662 107.865 230.383 107.29 227.639C106.539 224.06 105.53 212.566 105.189 203.706C104.912 196.49 105.311 195.143 107.725 195.143C108.589 195.143 109.426 194.931 109.586 194.673C109.746 194.415 111.088 194.043 112.569 193.846C114.05 193.65 115.408 193.253 115.586 192.964C115.765 192.675 116.407 192.439 117.014 192.439C117.62 192.439 119.005 192.043 120.09 191.559C126.605 188.653 132.622 185.585 134.96 183.976C136.814 182.701 137.822 182.301 138.208 182.687C139.476 183.956 142.415 183.144 149.839 179.475C154.038 177.4 157.472 175.853 157.472 176.037C157.472 176.221 156.499 177.912 155.31 179.795C152.973 183.497 152.676 184.886 153.991 185.977C155.471 187.206 157.39 185.908 162.017 180.545C164.455 177.721 167.018 175.126 167.714 174.779C169.447 173.915 172.34 174.404 175.672 176.126ZM206.395 205.145C208.773 207.172 210.821 208.914 210.945 209.016C211.069 209.118 208.453 209.201 205.134 209.201H199.097V203.963V198.725L200.583 200.093C201.401 200.845 204.016 203.119 206.395 205.145ZM95.3048 211.656C95.3048 211.817 94.7647 212.972 94.1047 214.225C93.1014 216.128 92.9019 217.387 92.8884 221.908C92.8732 226.905 93.003 227.582 94.5923 230.83C96.3227 234.366 99.0791 237.859 100.14 237.859C100.454 237.859 100.712 238.894 100.714 240.157C100.716 241.421 101.087 243.165 101.539 244.033C102.315 245.519 102.289 245.69 101.087 247.007C100.386 247.775 98.1504 250.924 96.12 254.004C90.5866 262.397 87.6339 264.111 75.0329 266.238C72.0597 266.741 69.0189 267.359 68.2756 267.612C67.5323 267.865 66.0841 268.239 65.057 268.443C61.8005 269.091 54.7529 273.138 51.4883 276.236C47.0626 280.435 45.3213 284.336 45.4132 289.845C45.4711 293.3 45.7587 294.533 47.1712 297.381C48.7459 300.556 48.7946 300.82 47.8913 301.308C47.3583 301.596 44.4759 304.227 41.4859 307.155C38.4959 310.083 35.8865 312.478 35.6876 312.478C35.22 312.478 35.2 212.185 35.6676 211.718C36.0892 211.295 95.3048 211.234 95.3048 211.656ZM196.935 238.13C196.935 252.851 196.843 264.895 196.73 264.895C196.618 264.895 195.706 264.562 194.703 264.154C189.917 262.208 182.635 262.716 177.814 265.331C174.46 267.152 170.289 271.815 168.29 275.98C163.938 285.05 165.632 296.045 172.519 303.431C175.549 306.681 177.857 308.178 181.725 309.4C185.407 310.562 189.889 310.515 193.691 309.273L196.664 308.301L196.815 316.158C196.96 323.768 196.924 324.057 195.685 325.41C193.444 327.857 192.085 330.151 190.708 333.811C188.834 338.79 188.818 345.603 190.668 350.519C192.118 354.374 194.047 357.645 195.783 359.199C198.476 361.609 198.002 361.684 180.176 361.684C170.959 361.684 163.418 361.578 163.418 361.449C163.418 361.32 164.058 359.738 164.841 357.935C166.064 355.112 166.461 354.655 167.687 354.655C169.405 354.655 172.937 352.837 174.347 351.227C176.014 349.326 177.449 345.876 177.462 343.74C177.477 341.187 176.819 339.49 175.092 337.626C174.332 336.805 173.778 335.982 173.86 335.796C173.943 335.611 174.288 334.851 174.628 334.107C175.574 332.035 180.442 320.107 181.543 317.163C182.377 314.934 182.408 314.476 181.754 314.062C181.333 313.795 172.321 313.573 161.727 313.568C145.274 313.561 142.37 313.441 141.795 312.749C141.211 312.045 141.499 311.938 143.967 311.938C151.223 311.938 155.409 306.298 153.718 298.803C153.002 295.633 151.188 292.753 147.006 288.146C145.251 286.213 142.739 283.022 141.424 281.055C139.373 277.989 139.028 277.077 139.009 274.657C138.993 272.53 139.262 271.543 140.102 270.648C140.716 269.995 141.792 268.374 142.495 267.045C143.558 265.034 144.096 264.577 145.71 264.315C148.112 263.924 150.253 262.565 150.704 261.145C151.285 259.312 149.505 256.832 146.795 255.698C145.32 255.081 145.18 253.54 146.598 253.54C147.159 253.54 148.923 253.134 150.517 252.638C156.613 250.742 161.256 245.555 161.256 240.64C161.256 235.799 158.158 230.871 154.556 229.979C153.048 229.606 153.005 229.65 153.372 231.157C154.32 235.052 154.305 235.453 153.15 236.921C152.29 238.015 151.509 238.4 150.147 238.4C147.932 238.4 147.32 237.591 145.245 231.911C143.723 227.746 141.597 224.343 140.514 224.34C140.13 224.339 139.856 222.93 139.776 220.542C139.695 218.126 139.253 215.878 138.56 214.355C137.961 213.04 137.47 211.829 137.47 211.664C137.47 211.499 150.85 211.364 167.202 211.364H196.935V238.13ZM276.204 229.433C277.274 231.539 279.587 235.149 281.341 237.454L284.531 241.644L280.601 241.638C274.197 241.629 269.027 239.593 264.352 235.241C261.349 232.446 258.562 227.27 258.562 224.487C258.561 223.021 258.801 222.687 260.048 222.41C262.792 221.803 269.089 220.092 270.454 219.584C271.738 219.106 271.865 219.242 273.03 222.342C273.704 224.135 275.133 227.326 276.204 229.433ZM124.015 246.776C127.317 249.403 130.956 250.567 133.371 249.77C134.388 249.434 135.502 248.821 135.845 248.408C136.359 247.788 136.881 248.054 138.814 249.922C140.105 251.169 141.72 252.667 142.405 253.251L143.65 254.314L142.047 254.643C138.574 255.355 137.21 256.397 137.037 258.474C136.901 260.1 137.155 260.663 138.564 261.849C139.495 262.632 140.602 263.273 141.026 263.273C142.041 263.273 142.017 263.412 140.473 266.458C138.896 269.572 134.533 273.644 131.059 275.246C129.033 276.18 127.458 276.412 122.875 276.453C117.518 276.501 116.98 276.401 113.324 274.695C109.225 272.783 108.279 272.819 108.279 274.889C108.279 276.504 110.259 278.872 113.757 281.44C116.111 283.169 116.439 283.633 116.167 284.848C115.225 289.041 114.26 298.13 114.709 298.579C115.618 299.489 116.281 298.464 116.646 295.58C117.281 290.578 117.224 290.643 119.738 292.054C120.941 292.73 122.382 293.863 122.94 294.573C124.878 297.033 123.93 302.732 121.165 305.246C118.704 307.484 117.374 307.868 112.333 307.793C108.464 307.736 106.758 307.435 104 306.32C96.3551 303.231 88.7572 296.585 85.8505 290.444C83.7076 285.916 83.8471 285.617 88.3091 285.169C90.4082 284.958 92.2343 284.894 92.3667 285.027C92.4997 285.16 91.9991 286.416 91.2536 287.817C89.6957 290.749 89.5465 291.931 90.7358 291.931C91.272 291.931 92.6073 289.742 94.4469 285.848C96.0275 282.503 98.9018 276.48 100.834 272.465C107.432 258.757 107.246 259.338 105.689 257.263C103.299 254.077 102.862 251.504 104.464 250.053C105.474 249.139 105.6 249.161 107.639 250.627L109.761 252.154L108.75 254.514C107.52 257.382 107.493 258.071 108.575 258.969C109.263 259.539 109.745 259.504 111.282 258.772C113.573 257.679 115.159 255.186 115.632 251.936C116.034 249.178 117.628 245.671 118.67 245.251C120.318 244.589 121.794 245.01 124.015 246.776ZM121.898 250.838C118.794 251.559 117.657 254.296 119.508 256.591C121.895 259.551 128.044 260.5 131.035 258.37C135.724 255.03 128.718 249.255 121.898 250.838ZM123.769 253.448C123.277 253.992 122.875 254.843 122.875 255.34C122.875 256.346 122.788 256.384 121.567 255.916C119.629 255.172 121.018 252.459 123.337 252.459C124.588 252.459 124.613 252.515 123.769 253.448ZM130.26 256.379C130.11 256.751 129.988 256.447 129.988 255.703C129.988 254.96 130.11 254.656 130.26 255.027C130.41 255.399 130.41 256.007 130.26 256.379ZM141.254 257.866C140.66 258.461 140.173 259.327 140.173 259.79C140.173 260.254 139.93 260.483 139.633 260.299C138.226 259.429 139.527 256.784 141.363 256.784C142.264 256.784 142.256 256.865 141.254 257.866ZM133.878 259.227C133.705 259.678 133.713 260.651 133.895 261.39C134.078 262.128 134.377 263.341 134.56 264.084C134.837 265.205 134.698 265.436 133.749 265.436C132.953 265.436 132.605 265.776 132.605 266.553C132.605 267.445 132.895 267.636 134.037 267.499C136.149 267.247 136.587 266.109 136.149 262.015C135.869 259.399 135.547 258.407 134.978 258.407C134.546 258.407 134.051 258.776 133.878 259.227ZM148.551 259.483C148.919 260.644 148.529 261.651 147.71 261.651C147.43 261.651 147.201 260.921 147.201 260.029C147.201 258.193 148.034 257.856 148.551 259.483ZM281.538 268.675C281.079 269.565 280.384 271.694 279.995 273.407L279.288 276.521L250.815 276.661L222.342 276.801V272.29C222.342 269.809 222.504 267.617 222.703 267.419C222.9 267.22 236.408 267.058 252.718 267.058H282.374L281.538 268.675ZM383.923 342.353C383.875 409.365 383.782 417.381 383.075 415.215C382.255 412.701 379.693 403.98 377.278 395.479C376.518 392.802 375.523 389.396 375.069 387.909C374.614 386.422 373.615 383.015 372.848 380.339C372.08 377.662 370.622 372.613 369.606 369.119C368.59 365.625 366.928 359.906 365.912 356.412C364.896 352.918 363.443 347.868 362.682 345.192C361.922 342.515 360.928 339.109 360.473 337.622C360.018 336.135 359.047 332.791 358.315 330.19C354.811 317.741 350.938 311.891 344.244 308.931C340.016 307.063 329.267 307.881 322.204 310.61C321.083 311.043 319.841 311.397 319.443 311.397C318.646 311.397 313.529 298.054 314.021 297.258C314.182 296.996 315.091 296.457 316.039 296.061C317.893 295.286 322.422 290.844 323.918 288.334C326.9 283.328 327.597 275.988 325.594 270.714C324.999 269.149 324.513 267.687 324.513 267.464C324.512 267.24 337.892 267.058 354.244 267.058H383.976L383.923 342.353ZM121.526 268.675C120.905 269.682 129.784 272.666 131.057 271.879C132.165 271.194 131.135 270.479 127.254 269.239C123.432 268.017 122.019 267.878 121.526 268.675ZM299.21 295.563C300.054 311.776 300.471 324.47 300.165 324.658C299.792 324.888 298.413 323.635 282.333 308.45C274.459 301.013 273.723 300.377 273.385 300.714C273.205 300.895 271.873 304.498 270.426 308.722C268.978 312.946 267.721 316.474 267.633 316.562C267.544 316.651 265.284 315.028 262.611 312.956C259.937 310.884 257.142 308.782 256.399 308.285C255.655 307.787 254.089 306.579 252.917 305.598C251.745 304.619 250.619 304.002 250.415 304.228C250.019 304.665 248.551 309.463 246.65 316.534C246.01 318.913 245.13 322.076 244.694 323.563C244.258 325.05 243.631 327.186 243.301 328.309C242.971 329.432 242.508 330.284 242.271 330.202C241.391 329.895 230.434 318.804 230.724 318.513C230.891 318.347 233.563 320.739 236.663 323.829C240.446 327.6 242.384 329.191 242.557 328.668C243.07 327.124 248.426 307.289 248.937 305.044C249.503 302.551 250.21 302.222 251.837 303.692C252.414 304.213 254.831 306.093 257.21 307.87C259.588 309.647 262.704 312.054 264.133 313.219C265.822 314.594 266.917 315.151 267.26 314.808C267.55 314.518 268.961 310.796 270.396 306.538L273.005 298.794L276.73 302.218C278.778 304.102 283.028 308.093 286.173 311.088C289.318 314.083 293.522 318.087 295.516 319.985C297.51 321.883 299.269 323.309 299.425 323.153C299.679 322.899 299.164 309.441 298.219 291.661C298.029 288.092 298.061 285.347 298.291 285.56C298.52 285.773 298.934 290.274 299.21 295.563ZM82.8989 288.281C85.4472 296.18 94.4696 304.982 103.143 308.032C109.964 310.43 114.487 310.844 118.134 309.404C123.259 307.381 125.577 304.303 125.577 299.523C125.577 298.024 125.788 296.798 126.046 296.798C127.596 296.798 140.373 312.459 139.52 313.313C139.39 313.442 136.504 313.657 133.107 313.79C129.709 313.923 126.766 314.048 126.567 314.067C126.368 314.086 125.795 315.335 125.294 316.843C124.794 318.351 124.053 319.712 123.649 319.867C122.669 320.243 115.983 318.54 114.42 317.516C113.089 316.644 112.11 316.714 104.261 318.243C97.1174 319.635 94.4815 321.925 90.7077 330.018C87.3836 337.146 83.6076 342.496 78.5526 347.241C71.058 354.275 63.6828 356.632 60.169 353.118C58.3424 351.291 57.3228 347.939 57.8213 345.4C58.7419 340.71 62.7335 335.5 67.5842 332.657C70.0103 331.235 70.4309 330.493 69.1 329.982C67.4139 329.335 60.8096 334.525 58.2489 338.51C56.6466 341.004 55.1394 346.738 55.5708 348.701C55.847 349.959 55.4605 350.702 53.1679 353.322C50.7066 356.136 50.4363 356.7 50.4363 359.017C50.4363 361.209 50.6753 361.789 52.0554 362.95C52.9457 363.7 54.1685 364.47 54.7729 364.662C56.4601 365.197 60.2366 363.047 61.9962 360.549C63.6163 358.249 66.2884 356.282 67.7977 356.279C68.2778 356.278 70.4071 355.408 72.5295 354.346C76.6487 352.285 83.646 345.915 86.4549 341.669L87.9361 339.43L89.5935 341.323C91.2942 343.267 94.0441 344.922 95.5729 344.922C96.2719 344.922 96.3676 345.305 96.08 346.949C95.1983 351.984 91.9159 360.689 89.4032 364.658C84.9283 371.725 78.2899 377.162 70.6574 380.013C62.6065 383.02 53.3204 384.054 47.9756 382.541C39.6133 380.173 34.1004 376.038 28.9833 368.297C26.202 364.09 24.7089 359.673 23.9077 353.284C21.114 330.998 39.8809 304.584 68.5459 290.459C72.9911 288.269 78.6256 286.359 81.5686 286.046C81.8924 286.011 82.4913 287.018 82.8989 288.281ZM344.881 311.444C349.578 313.718 353.212 319.411 355.897 328.7C356.714 331.525 358.276 336.878 359.368 340.596C361.3 347.173 362.264 350.514 365.296 361.143C366.102 363.968 367.615 369.2 368.659 372.769C369.702 376.337 370.688 379.744 370.849 380.339C371.333 382.121 373.599 389.99 376.768 400.886C379.691 410.937 381.274 416.646 381.274 417.134C381.274 417.268 374.832 417.378 366.958 417.378H352.643L352.398 416.161C352.263 415.492 352.001 413.971 351.817 412.782C351.632 411.592 351.142 408.429 350.728 405.752C350.314 403.076 349.466 397.601 348.843 393.586C348.22 389.571 347.367 383.975 346.947 381.15C346.526 378.324 345.673 372.728 345.05 368.713C343.395 358.05 342.554 352.577 341.297 344.288C340.114 336.491 339.673 326.199 340.415 323.698C340.77 322.501 340.683 322.211 339.969 322.211C338.509 322.211 337.923 324.86 338.116 330.593C338.267 335.107 338.164 336 337.491 336C336.192 336 334.696 332.057 333.936 326.63C332.871 319.021 331.193 317.38 326.366 319.223C323.452 320.336 322.188 321.545 314.599 330.465C310.122 335.727 308.436 337.352 307.45 337.352C306.334 337.352 306.222 337.187 306.623 336.131C306.878 335.459 307.877 333.574 308.842 331.94C309.807 330.307 311.989 326.051 313.689 322.482C315.39 318.913 317.244 315.599 317.809 315.118C319.464 313.707 326.076 311.312 330.459 310.536C335.743 309.6 341.869 309.986 344.881 311.444ZM179.636 316.317C179.636 316.644 179.291 317.678 178.869 318.615C177.28 322.145 173.149 332.26 173.149 332.621C173.149 332.827 172.512 334.341 171.734 335.985C170.37 338.867 170.243 338.974 168.182 338.974C166.483 338.974 165.526 338.537 163.515 336.845C162.124 335.675 160.285 334.452 159.428 334.128C157.609 333.441 155.85 333.847 155.85 334.955C155.85 335.381 155.393 335.729 154.835 335.729C153.065 335.729 152.562 336.944 153.714 338.443C154.952 340.055 155.025 340.596 154.003 340.596C152.637 340.596 152.756 341.893 154.32 344.052C155.161 345.215 155.85 346.353 155.85 346.582C155.85 346.811 155.137 347.155 154.266 347.347C150.311 348.216 151.154 350.847 155.819 352.197C157.471 352.676 159.57 353.303 160.484 353.591C161.397 353.879 162.552 354.114 163.051 354.114C164.231 354.114 164.196 354.718 162.839 357.793C160.702 362.636 160.307 363.59 159.326 366.28C158.783 367.767 157.94 369.714 157.451 370.606L156.564 372.228L130.935 372.021C116.839 371.907 105.204 371.724 105.08 371.615C104.955 371.505 105.122 370.868 105.45 370.199C106.016 369.048 107.805 364.708 113.472 350.739C114.83 347.391 116.155 344.165 116.416 343.57C116.677 342.975 117.762 340.298 118.828 337.622C119.894 334.945 120.984 332.269 121.25 331.674C122.196 329.562 123.795 325.699 124.496 323.834C124.888 322.793 125.62 320.968 126.124 319.778C126.628 318.589 127.189 317.189 127.373 316.669C127.684 315.786 129.43 315.723 153.671 315.723C172.178 315.723 179.636 315.894 179.636 316.317ZM108.369 320.454C108.468 320.677 109.704 321.789 111.117 322.924C112.529 324.059 113.685 325.348 113.685 325.789C113.685 326.892 109.549 328.674 106.954 328.688C104.513 328.702 104.906 327.805 107.463 327.525C109.832 327.266 109.898 325.695 107.581 324.727C104.243 323.332 102.332 323.095 102.332 324.078C102.332 324.557 102.697 325.089 103.143 325.26C104.278 325.696 104.153 326.359 102.873 326.694C101.377 327.085 101.52 328.013 103.342 329.714L104.891 331.162L102.171 334.122C100.675 335.749 98.8726 338.389 98.1656 339.987C96.899 342.852 96.8536 342.888 94.9448 342.579C92.7386 342.221 91.3147 341.108 90.199 338.871C89.4935 337.457 89.5368 337.097 90.6909 334.768C91.3866 333.364 92.7338 330.563 93.6852 328.544C95.5713 324.541 97.7077 322.458 101.368 321.051C103.789 320.119 108.059 319.755 108.369 320.454ZM216.209 325.726C219.602 334.579 221.848 340.839 222.375 342.912C223.68 348.041 225.195 348.707 235.565 348.707C240.095 348.707 243.36 348.914 243.189 349.191C243.025 349.458 243.33 350.219 243.868 350.884C244.966 352.241 248.191 352.949 253.507 353C257.718 353.041 268.116 354.854 272.308 356.278C278.613 358.42 278.898 358.95 286.544 382.772C288.023 387.382 289.773 392.978 290.433 395.208C291.092 397.439 291.955 400.237 292.349 401.427C292.744 402.616 293.604 405.414 294.262 407.645C294.919 409.875 295.791 412.743 296.2 414.017C296.608 415.292 296.943 416.571 296.943 416.86C296.943 417.196 283.574 417.335 259.777 417.246L222.612 417.107L222.472 389.553C222.39 373.344 222.124 361.79 221.825 361.491C221.511 361.177 220.295 361.426 218.61 362.15C217.121 362.791 214.128 363.461 211.96 363.637C207.309 364.017 203.459 362.833 199.493 359.803C194.758 356.187 190.988 348.392 190.988 342.218C190.988 338.483 192.71 333.061 194.986 329.632C198.95 323.659 204.67 320.522 211.18 320.749L214.344 320.86L216.209 325.726ZM331.013 321.976C331.787 324.015 331.668 325.996 330.771 325.996C329.767 325.996 326.675 323.388 326.675 322.542C326.675 320.332 330.212 319.871 331.013 321.976ZM117.917 323.565C117.751 323.731 117.188 323.191 116.666 322.363L115.717 320.86L116.968 322.061C117.656 322.722 118.083 323.399 117.917 323.565ZM122.796 321.985C122.901 322.072 122.901 322.361 122.796 322.627C122.549 323.251 119.09 322.356 119.09 321.669C119.09 321.235 122.213 321.501 122.796 321.985ZM114.766 323.022C114.766 323.171 114.644 323.293 114.496 323.293C114.347 323.293 114.225 323.171 114.225 323.022C114.225 322.874 114.347 322.752 114.496 322.752C114.644 322.752 114.766 322.874 114.766 323.022ZM328.221 326.685L330.729 328.128L328.296 328.132C326.958 328.134 324.801 327.653 323.502 327.064C321.395 326.107 321.217 325.89 321.854 325.048C323.49 322.883 324.147 322.659 324.954 323.99C325.372 324.678 326.842 325.89 328.221 326.685ZM121.438 325.321C121.575 325.544 120.475 328.646 118.994 332.215C117.512 335.783 115.138 341.502 113.717 344.922C111.611 349.989 110.818 351.324 109.432 352.137C107.25 353.419 102.184 353.873 99.17 353.057C97.0984 352.497 96.8644 352.28 97.199 351.24C97.4082 350.59 97.8807 348.477 98.2488 346.544C99.7062 338.899 104.011 333.312 111.092 329.878C115.38 327.798 118.767 325.847 119 325.321C119.1 325.097 119.633 324.915 120.185 324.915C120.737 324.915 121.301 325.097 121.438 325.321ZM332.95 331.798C333.158 332.907 333.777 334.55 334.324 335.448C334.872 336.346 335.321 337.263 335.322 337.487C335.323 337.71 333.851 337.892 332.05 337.892H328.776L327.765 335.594C327.209 334.331 326.591 332.641 326.393 331.841C326.044 330.43 326.112 330.38 328.651 330.181C330.091 330.069 331.563 329.932 331.921 329.879C332.279 329.825 332.742 330.689 332.95 331.798ZM159.094 336C159.094 336.148 158.972 336.27 158.823 336.27C158.675 336.27 158.553 336.148 158.553 336C158.553 335.851 158.675 335.729 158.823 335.729C158.972 335.729 159.094 335.851 159.094 336ZM162.538 338.742L164.412 340.672L169.587 340.499L174.762 340.325L175.278 341.811C175.982 343.836 174.67 348.12 172.76 350.029C171.95 350.84 171.2 351.238 171.092 350.915C170.984 350.593 170.032 350.329 168.977 350.329C165.508 350.329 160.202 349.093 159.276 348.069C157.985 346.642 158.735 346.286 161.099 347.206C166.55 349.326 172.608 349.683 172.608 347.885C172.608 347.308 171.965 347.076 170.311 347.053C169.047 347.036 166.333 346.584 164.278 346.048C160.406 345.039 160.136 344.815 157.481 340.397L156.224 338.305L157.4 338.935C158.047 339.281 159.115 340.388 159.775 341.393C161.216 343.593 163.065 344.532 167.788 345.464C171.663 346.228 174.23 345.9 174.23 344.641C174.23 344.05 173.579 343.84 171.745 343.84C169.184 343.84 163.639 342.481 162.507 341.575C161.546 340.806 159.575 336.811 160.158 336.811C160.436 336.811 161.507 337.68 162.538 338.742ZM249.371 341.677C249.111 342.583 249.111 344.016 249.371 344.922L249.836 346.544H238.827C232.772 346.544 227.194 346.306 226.431 346.017C225.277 345.577 225.045 345.143 225.045 343.421C225.045 342.283 225.337 341.061 225.694 340.704C226.158 340.239 229.673 340.055 238.089 340.055H249.836L249.371 341.677ZM338.814 342.083C339.017 343.198 339.313 344.658 339.474 345.327L339.766 346.544H296.581C258.37 346.544 253.257 346.447 252.195 345.702C250.856 344.764 250.627 342.79 251.664 341.129C252.323 340.072 253.017 340.055 295.391 340.055H338.447L338.814 342.083ZM157.472 344.111C157.472 344.259 157.35 344.381 157.202 344.381C157.053 344.381 156.931 344.259 156.931 344.111C156.931 343.962 157.053 343.84 157.202 343.84C157.35 343.84 157.472 343.962 157.472 344.111ZM270.429 350.922C272.863 352.14 274.989 353.003 275.153 352.838C275.792 352.199 274.744 350.876 272.778 349.839L270.724 348.754L281.652 348.73L292.58 348.707L294.377 350.284C295.365 351.152 297.056 353.646 298.136 355.827C300.204 360.006 303.97 368.149 303.97 368.441C303.97 368.536 305.031 370.886 306.327 373.665C307.623 376.443 309.48 380.541 310.453 382.772C311.427 385.002 313.285 389.093 314.583 391.861C315.882 394.63 316.944 396.98 316.944 397.084C316.944 397.187 318.047 399.633 319.396 402.519C320.744 405.405 322.469 409.26 323.229 411.085C323.99 412.91 324.833 414.635 325.103 414.918C325.373 415.2 325.593 415.869 325.593 416.405C325.593 417.315 324.746 417.378 312.458 417.378H299.322L298.724 415.621C298.395 414.654 297.594 412.038 296.946 409.808C296.297 407.577 295.438 404.779 295.036 403.59C294.635 402.4 293.779 399.602 293.134 397.371C292.488 395.141 291.28 391.248 290.448 388.72C289.617 386.192 288.051 381.204 286.968 377.635C282.096 361.585 279.751 357.212 274.904 355.133C271.729 353.772 264.544 352.092 260.183 351.692C253.693 351.097 246.946 350.27 246.128 349.97C244.12 349.233 248.039 348.78 256.741 348.744L266.004 348.707L270.429 350.922ZM340.643 353.168C341.393 358.302 342.321 364.312 343.965 374.661C345.211 382.509 346.251 389.202 347.492 397.371C347.922 400.197 348.76 405.671 349.354 409.537C349.949 413.404 350.442 416.749 350.448 416.972C350.455 417.196 345.495 417.378 339.426 417.378H328.393L327.309 415.08C326.713 413.816 325.454 411.078 324.512 408.997C323.57 406.915 322.355 404.238 321.813 403.049C321.269 401.859 320.222 399.548 319.484 397.912C318.746 396.276 317.265 393.03 316.192 390.699C315.119 388.368 314.241 386.38 314.241 386.28C314.241 386.181 313.025 383.507 311.538 380.339C310.052 377.17 308.835 374.493 308.835 374.391C308.835 374.288 307.619 371.611 306.132 368.443C304.646 365.274 303.43 362.593 303.43 362.486C303.43 361.629 298.353 351.783 297.213 350.427L295.765 348.707H317.879H339.992L340.643 353.168ZM158.553 350.254C158.553 350.51 157.945 350.603 157.202 350.461C156.458 350.319 155.85 350.109 155.85 349.995C155.85 349.882 156.458 349.788 157.202 349.788C157.945 349.788 158.553 349.998 158.553 350.254ZM163.013 351.768C162.642 351.918 162.033 351.918 161.661 351.768C161.29 351.618 161.594 351.496 162.337 351.496C163.08 351.496 163.385 351.618 163.013 351.768ZM397.491 417.919C397.491 418.315 397.653 418.477 397.852 418.279C398.049 418.081 398.049 417.756 397.852 417.558C397.653 417.36 397.491 417.522 397.491 417.919Z" fill="#141414"/>
</svg>
