<svg width="499" height="240" viewBox="0 0 499 240" fill="none" xmlns="http://www.w3.org/2000/svg">
<rect width="499" height="240" rx="16" fill="white"/>
<rect x="182.397" y="43.1879" width="140.172" height="195.206" rx="10.3049" fill="white"/>
<rect x="182.397" y="43.1879" width="140.172" height="195.206" rx="10.3049" stroke="#1B1B1B" stroke-width="0.7" stroke-linecap="round" stroke-linejoin="round"/>
<rect x="193.879" y="52.9929" width="117.208" height="175.596" rx="1.87781" fill="white" stroke="#1B1B1B" stroke-width="0.7" stroke-linecap="round" stroke-linejoin="round"/>
<rect x="206.305" y="81.8591" width="15.5747" height="15.6251" rx="7.61025" fill="white" stroke="#1B1B1B" stroke-width="0.7" stroke-linecap="round" stroke-linejoin="round"/>
<rect x="227.37" y="83.9296" width="77.2909" height="11.4847" rx="5.59366" fill="white" stroke="#1B1B1B" stroke-width="0.7" stroke-linecap="round" stroke-linejoin="round"/>
<rect x="206.305" y="177.536" width="15.5747" height="15.6251" rx="7.61025" fill="white"/>
<rect x="227.37" y="179.606" width="77.2909" height="11.4847" rx="5.59366" fill="white"/>
<rect x="206.305" y="113.751" width="15.5747" height="15.6251" rx="7.61025" fill="white"/>
<rect x="227.37" y="115.822" width="77.2909" height="11.4847" rx="5.59366" fill="white"/>
<rect x="206.305" y="145.644" width="15.5747" height="15.6251" rx="7.61025" fill="white"/>
<rect x="227.37" y="147.714" width="77.2909" height="11.4847" rx="5.59366" fill="white"/>
<path fill-rule="evenodd" clip-rule="evenodd" d="M264.181 36.7311H270.593C278.857 36.7311 285.557 43.4523 285.557 51.7433V53.4372C285.558 54.1145 285.29 54.7644 284.812 55.2441C284.334 55.7237 283.685 55.9938 283.007 55.9949H221.967C221.29 55.9939 220.641 55.7238 220.163 55.2441C219.684 54.7645 219.416 54.1145 219.417 53.4372V51.7433C219.417 43.4523 226.117 36.7311 234.381 36.7311H240.794C240.794 30.2523 246.029 25 252.487 25C258.945 25 264.181 30.2523 264.181 36.7311ZM248.025 38.585C248.776 40.3841 250.536 41.5535 252.486 41.5472C253.761 41.5452 254.983 41.0367 255.883 40.1335C256.784 39.2303 257.288 38.0065 257.286 36.7312C257.286 34.782 256.111 33.0249 254.309 32.2805C252.508 31.536 250.435 31.9509 249.059 33.3314C247.683 34.712 247.275 36.7859 248.025 38.585Z" fill="white"/>
<mask id="mask0_1_163" style="mask-type:luminance" maskUnits="userSpaceOnUse" x="219" y="25" width="67" height="31">
<path fill-rule="evenodd" clip-rule="evenodd" d="M270.595 36.7311H264.182C264.182 30.2523 258.947 25 252.489 25C246.031 25 240.795 30.2523 240.795 36.7311H234.383C226.119 36.7311 219.419 43.4523 219.419 51.7433V53.4372C219.418 54.1145 219.686 54.7645 220.164 55.2441C220.642 55.7238 221.292 55.9939 221.969 55.9949H283.009C283.686 55.9938 284.335 55.7237 284.814 55.2441C285.292 54.7644 285.56 54.1145 285.558 53.4372V51.7433C285.558 43.4523 278.859 36.7311 270.595 36.7311ZM252.487 41.5472C250.538 41.5535 248.777 40.3841 248.027 38.585C247.277 36.7859 247.685 34.712 249.061 33.3314C250.437 31.9509 252.51 31.536 254.311 32.2805C256.113 33.0249 257.288 34.782 257.288 36.7312C257.29 38.0065 256.785 39.2303 255.885 40.1335C254.985 41.0367 253.763 41.5452 252.487 41.5472H252.487Z" fill="white"/>
</mask>
<g mask="url(#mask0_1_163)">
<path d="M277.904 31.0099C291.92 52.3292 262.074 57.1442 223.531 50.6542C184.989 44.1643 227.49 60.9476 227.49 60.9476L303.224 63.4424L296.442 30.7831L275.417 29.1322" fill="white"/>
</g>
<path d="M264.181 36.7311H263.831C263.831 36.9244 263.987 37.0811 264.181 37.0811V36.7311ZM240.794 36.7311V37.0811C240.987 37.0811 241.144 36.9244 241.144 36.7311H240.794ZM219.417 53.4372L219.767 53.4378V53.4372H219.417ZM221.967 55.9949L221.967 56.3449H221.967V55.9949ZM283.007 55.9949V56.3449H283.008L283.007 55.9949ZM285.557 53.4372H285.207V53.4378L285.557 53.4372ZM252.486 41.5472L252.487 41.8972C252.68 41.8966 252.836 41.7398 252.836 41.5467C252.835 41.3536 252.679 41.1972 252.486 41.1972V41.5472ZM257.286 36.7312L256.936 36.7312V36.7318L257.286 36.7312ZM252.486 41.5472L252.485 41.1972C252.292 41.1975 252.135 41.3543 252.136 41.5475C252.136 41.7407 252.292 41.8972 252.486 41.8972V41.5472ZM270.593 36.3811H264.181V37.0811H270.593V36.3811ZM264.531 36.7311C264.531 30.06 259.139 24.65 252.487 24.65V25.35C258.751 25.35 263.831 30.4445 263.831 36.7311H264.531ZM252.487 24.65C245.835 24.65 240.444 30.06 240.444 36.7311H241.144C241.144 30.4445 246.224 25.35 252.487 25.35V24.65ZM240.794 36.3811H234.381V37.0811H240.794V36.3811ZM234.381 36.3811C225.923 36.3811 219.067 43.2601 219.067 51.7433H219.767C219.767 43.6446 226.312 37.0811 234.381 37.0811V36.3811ZM219.067 51.7433V53.4372H219.767V51.7433H219.067ZM219.067 53.4367C219.066 54.2068 219.371 54.9458 219.915 55.4912L220.41 54.997C219.998 54.5831 219.767 54.0222 219.767 53.4378L219.067 53.4367ZM219.915 55.4912C220.458 56.0366 221.196 56.3437 221.967 56.3449L221.968 55.6449C221.383 55.644 220.823 55.411 220.41 54.997L219.915 55.4912ZM221.967 56.3449H283.007V55.6449H221.967V56.3449ZM283.008 56.3449C283.778 56.3437 284.516 56.0365 285.06 55.4911L284.564 54.997C284.151 55.4109 283.591 55.644 283.007 55.6449L283.008 56.3449ZM285.06 55.4911C285.603 54.9457 285.908 54.2067 285.907 53.4366L285.207 53.4378C285.208 54.0222 284.976 54.5831 284.564 54.997L285.06 55.4911ZM285.907 53.4372V51.7433H285.207V53.4372H285.907ZM285.907 51.7433C285.907 43.2601 279.052 36.3811 270.593 36.3811V37.0811C278.663 37.0811 285.207 43.6445 285.207 51.7433H285.907ZM252.484 41.1972C250.677 41.203 249.044 40.1186 248.348 38.4503L247.702 38.7197C248.507 40.6496 250.396 41.9039 252.487 41.8972L252.484 41.1972ZM248.348 38.4503C247.652 36.782 248.031 34.8587 249.307 33.5785L248.811 33.0843C247.335 34.5652 246.897 36.7899 247.702 38.7197L248.348 38.4503ZM249.307 33.5785C250.583 32.2983 252.505 31.9135 254.176 32.6039L254.443 31.957C252.511 31.1584 250.287 31.6034 248.811 33.0843L249.307 33.5785ZM254.176 32.6039C255.846 33.2943 256.936 34.9236 256.936 36.7312L257.636 36.7312C257.636 34.6403 256.376 32.7556 254.443 31.957L254.176 32.6039ZM256.936 36.7318C256.938 37.9142 256.47 39.049 255.635 39.8864L256.131 40.3806C257.097 39.4117 257.638 38.0987 257.636 36.7307L256.936 36.7318ZM255.635 39.8864C254.801 40.7239 253.667 41.1954 252.485 41.1972L252.486 41.8972C253.854 41.8951 255.165 41.3495 256.131 40.3806L255.635 39.8864ZM252.486 41.8972H252.486V41.1972H252.486V41.8972Z" fill="#1B1B1B"/>
<path d="M237.527 66.6501L233.002 71.6369" stroke="#1B1B1B" stroke-width="0.7" stroke-linecap="round" stroke-linejoin="round"/>
<path d="M307.585 209.969C305.967 212.286 303.799 214.164 301.275 215.435" stroke="#1B1B1B" stroke-width="0.7" stroke-linecap="round" stroke-linejoin="round"/>
<path d="M186.373 107.885C186.373 107.885 183.75 94.4961 183.204 90.8987C182.658 87.3013 178.562 84.0453 177.712 85.8439C176.863 87.6426 179.533 91.3685 178.198 91.497C176.863 91.6254 178.009 93.4883 179.62 93.938C181.232 94.3877 180.327 101.325 180.327 101.325L186.373 107.885Z" fill="white"/>
<mask id="mask1_1_163" style="mask-type:luminance" maskUnits="userSpaceOnUse" x="177" y="85" width="10" height="23">
<path fill-rule="evenodd" clip-rule="evenodd" d="M186.372 107.885C186.372 107.885 183.749 94.4961 183.202 90.8987C182.656 87.3013 178.56 84.0453 177.711 85.8439C176.861 87.6426 179.531 91.3685 178.196 91.497C176.861 91.6254 178.008 93.4883 179.619 93.938C181.231 94.3877 180.326 101.325 180.326 101.325L186.372 107.885Z" fill="white"/>
</mask>
<g mask="url(#mask1_1_163)">
<path d="M180.124 96.7003C183.408 97.4173 188.235 100.627 188.235 100.627L182.861 101.641L178.019 98.8111L178.609 96.6094" fill="white"/>
</g>
<path fill-rule="evenodd" clip-rule="evenodd" d="M186.373 107.885C186.373 107.885 183.75 94.4961 183.204 90.8987C182.658 87.3013 178.562 84.0453 177.712 85.8439C176.863 87.6426 179.533 91.3685 178.198 91.497C176.863 91.6254 178.009 93.4883 179.62 93.938C181.232 94.3877 180.327 101.325 180.327 101.325L186.373 107.885Z" stroke="#1B1B1B" stroke-width="0.7" stroke-linecap="round" stroke-linejoin="round"/>
<path d="M180.403 96.6146C180.403 96.6146 184.269 98.8201 185.725 101.325C185.725 101.325 188.82 125.608 184.269 126.957C179.718 128.306 151.5 111.925 154.776 105.951C158.053 99.9764 178.989 114.045 178.989 114.045L180.403 96.6146Z" fill="white"/>
<mask id="mask2_1_163" style="mask-type:luminance" maskUnits="userSpaceOnUse" x="154" y="96" width="33" height="32">
<path fill-rule="evenodd" clip-rule="evenodd" d="M180.404 96.6147C180.404 96.6147 184.269 98.8202 185.726 101.326C185.726 101.326 188.821 125.608 184.269 126.957C179.718 128.306 151.5 111.925 154.777 105.951C158.054 99.9765 178.99 114.045 178.99 114.045L180.404 96.6147Z" fill="white"/>
</mask>
<g mask="url(#mask2_1_163)">
<ellipse cx="184.219" cy="127.035" rx="4.38418" ry="2.56382" fill="white" stroke="#1B1B1B" stroke-width="0.7" stroke-linecap="round" stroke-linejoin="round"/>
</g>
<path fill-rule="evenodd" clip-rule="evenodd" d="M180.403 96.6146C180.403 96.6146 184.269 98.8201 185.725 101.325C185.725 101.325 188.82 125.608 184.269 126.957C179.718 128.306 151.5 111.925 154.776 105.951C158.053 99.9764 178.989 114.045 178.989 114.045L180.403 96.6146Z" stroke="#1B1B1B" stroke-width="0.7" stroke-linecap="round" stroke-linejoin="round"/>
<path d="M179.759 99.6102L180.015 96.515C180.015 96.515 185.521 96.6095 186.371 99.2622L186.185 101.641C186.185 101.641 182.307 97.6726 179.759 99.6102Z" fill="white" stroke="#1B1B1B" stroke-width="0.7" stroke-linecap="round" stroke-linejoin="round"/>
<path d="M170.196 204H161.214C156.834 221.1 152.873 238.086 154.51 238.086C157.727 238.086 173.929 240.016 173.933 238.665C173.938 236.337 160.529 236.062 162.233 230.072C162.932 227.614 166.402 214.943 170.196 204Z" fill="#1B1B1B" stroke="#1B1B1B" stroke-width="0.7" stroke-linecap="round" stroke-linejoin="round"/>
<path d="M181.855 170.637L170.417 169.335C170.066 170.87 165.445 187.488 161.215 204H170.196C175.644 188.284 181.855 170.637 181.855 170.637Z" fill="white"/>
<mask id="mask3_1_163" style="mask-type:luminance" maskUnits="userSpaceOnUse" x="161" y="169" width="21" height="35">
<path fill-rule="evenodd" clip-rule="evenodd" d="M181.855 170.637L170.417 169.335C170.066 170.87 165.445 187.488 161.215 204H170.196C175.644 188.284 181.855 170.637 181.855 170.637Z" fill="white"/>
</mask>
<g mask="url(#mask3_1_163)">
<path d="M158.361 181.636C175.54 180.252 172.205 175.881 180.945 173.228C189.686 170.575 170.418 169.335 170.418 169.335L166.709 174.166" fill="white"/>
</g>
<path fill-rule="evenodd" clip-rule="evenodd" d="M181.855 170.637L170.417 169.335C170.066 170.87 165.445 187.488 161.215 204H170.196C175.644 188.284 181.855 170.637 181.855 170.637Z" stroke="#1B1B1B" stroke-width="0.7" stroke-linecap="round" stroke-linejoin="round"/>
<path d="M136.797 168.885L136.844 157.703C125.717 152.169 115.101 146.461 114.653 149.196C114.006 153.148 113.619 168.9 114.571 169.001C117.719 169.334 117.678 156.768 121.575 158.918C123.174 159.8 129.682 164.111 136.797 168.885Z" fill="#1B1B1B" stroke="#1B1B1B" stroke-width="0.7" stroke-linecap="round" stroke-linejoin="round"/>
<path d="M160.937 180.761L172.576 167.461C172.087 167.243 167.182 170.985 159.938 169.334C152.365 167.608 142.335 160.434 136.843 157.703L136.797 168.885C143.877 173.636 151.561 178.847 155.612 181.6C157.35 182.781 159.461 182.448 160.937 180.761Z" fill="white"/>
<mask id="mask4_1_163" style="mask-type:luminance" maskUnits="userSpaceOnUse" x="136" y="157" width="37" height="26">
<path fill-rule="evenodd" clip-rule="evenodd" d="M160.937 180.761L172.575 167.461C172.087 167.243 167.182 170.985 159.938 169.334C152.364 167.608 142.335 160.434 136.843 157.703L136.796 168.885C143.877 173.636 151.56 178.847 155.612 181.6C157.35 182.781 159.461 182.448 160.937 180.761Z" fill="white"/>
</mask>
<g mask="url(#mask4_1_163)">
<path d="M142.698 158.748C142.867 174.629 161.215 176.695 161.215 176.695L147.549 158.748" fill="white"/>
</g>
<path fill-rule="evenodd" clip-rule="evenodd" d="M160.937 180.761L172.576 167.461C172.087 167.243 167.182 170.985 159.938 169.334C152.365 167.608 142.335 160.434 136.843 157.703L136.797 168.885C143.877 173.636 151.561 178.847 155.612 181.6C157.35 182.781 159.461 182.448 160.937 180.761Z" stroke="#1B1B1B" stroke-width="0.7" stroke-linecap="round" stroke-linejoin="round"/>
<path d="M158.896 129.048C161.041 151.182 138.089 160.121 148.043 170.002C162.279 184.133 191.83 173.237 189.459 161.722C185.863 144.263 173.524 127.035 173.524 127.035L158.896 129.048Z" fill="white"/>
<mask id="mask5_1_163" style="mask-type:luminance" maskUnits="userSpaceOnUse" x="145" y="127" width="45" height="50">
<path fill-rule="evenodd" clip-rule="evenodd" d="M158.897 129.048C161.042 151.182 138.089 160.121 148.044 170.002C162.28 184.133 191.831 173.237 189.459 161.722C185.864 144.263 173.524 127.035 173.524 127.035L158.897 129.048Z" fill="white"/>
</mask>
<g mask="url(#mask5_1_163)">
<path d="M141.333 149.486C161.075 151.272 158.731 139.141 166.747 138.813C174.764 138.486 179.147 130.05 179.147 130.05L153.742 127.035L151.698 129.572L141.333 149.486Z" fill="white" stroke="#1B1B1B" stroke-width="0.7" stroke-linecap="round" stroke-linejoin="round"/>
<path d="M196.307 155.77L188.536 149.494L182.299 157.266L174.552 151.008L168.315 158.781L160.568 152.523L154.33 160.295L146.583 154.038L140.327 161.833L148.002 168.032L141.823 175.731L149.593 182.008L155.83 174.236L163.577 180.493L169.815 172.721L177.562 178.979L183.799 171.206L191.546 177.464L197.802 169.669L190.127 163.47L196.307 155.77Z" fill="white" stroke="#1B1B1B" stroke-width="0.7" stroke-linecap="round" stroke-linejoin="round"/>
<path d="M155.824 174.193L148.172 168.013L154.333 160.337L161.984 166.517L155.824 174.193Z" fill="white" stroke="#1B1B1B" stroke-width="0.7" stroke-linecap="round" stroke-linejoin="round"/>
<path d="M169.81 172.679L162.159 166.499L168.319 158.823L175.971 165.003L169.81 172.679Z" fill="white" stroke="#1B1B1B" stroke-width="0.7" stroke-linecap="round" stroke-linejoin="round"/>
<path d="M183.794 171.164L176.142 164.984L182.303 157.308L189.954 163.488L183.794 171.164Z" fill="white" stroke="#1B1B1B" stroke-width="0.7" stroke-linecap="round" stroke-linejoin="round"/>
<path d="M193.303 128L185.532 121.723L179.295 129.495L171.548 123.238L165.311 131.01L157.564 124.752L151.326 132.524L143.579 126.267L137.323 134.062L144.998 140.261L138.819 147.961L146.589 154.237L152.826 146.465L160.574 152.723L166.811 144.95L174.558 151.208L180.795 143.436L188.542 149.693L194.798 141.898L187.124 135.699L193.303 128Z" fill="white" stroke="#1B1B1B" stroke-width="0.7" stroke-linecap="round" stroke-linejoin="round"/>
<path d="M152.823 146.423L145.172 140.243L151.332 132.566L158.983 138.747L152.823 146.423Z" fill="white" stroke="#1B1B1B" stroke-width="0.7" stroke-linecap="round" stroke-linejoin="round"/>
<path d="M166.806 144.908L159.155 138.728L165.315 131.052L172.967 137.232L166.806 144.908Z" fill="white" stroke="#1B1B1B" stroke-width="0.7" stroke-linecap="round" stroke-linejoin="round"/>
<path d="M180.79 143.394L173.138 137.214L179.299 129.537L186.95 135.718L180.79 143.394Z" fill="white" stroke="#1B1B1B" stroke-width="0.7" stroke-linecap="round" stroke-linejoin="round"/>
</g>
<path fill-rule="evenodd" clip-rule="evenodd" d="M158.896 129.048C161.041 151.182 138.089 160.121 148.043 170.002C162.279 184.133 191.83 173.237 189.459 161.722C185.863 144.263 173.524 127.035 173.524 127.035L158.896 129.048Z" stroke="#1B1B1B" stroke-width="0.7" stroke-linecap="round" stroke-linejoin="round"/>
<path d="M154.639 96.9254C152.888 100.14 161.006 106.818 161.006 106.818L151.897 108.131L148.094 98.4868L154.639 96.9254Z" fill="white"/>
<mask id="mask6_1_163" style="mask-type:luminance" maskUnits="userSpaceOnUse" x="148" y="96" width="14" height="13">
<path fill-rule="evenodd" clip-rule="evenodd" d="M154.639 96.9254C152.888 100.14 161.006 106.818 161.006 106.818L151.897 108.131L148.094 98.4868L154.639 96.9254Z" fill="white"/>
</mask>
<g mask="url(#mask6_1_163)">
<path d="M158.683 102.948C158.683 102.948 155.292 104.123 153.446 99.8337C152.586 97.8336 154.692 97.3456 154.692 97.3456L158.683 102.948Z" fill="white"/>
</g>
<path fill-rule="evenodd" clip-rule="evenodd" d="M154.639 96.9254C152.888 100.14 161.006 106.818 161.006 106.818L151.897 108.131L148.094 98.4868L154.639 96.9254Z" stroke="#1B1B1B" stroke-width="0.7" stroke-linecap="round" stroke-linejoin="round"/>
<path d="M141.163 98.5491C124.398 97.7147 141.18 113.945 126.86 119.347C112.54 124.749 131.431 142.522 143.821 130.438C156.21 118.354 137.433 101.184 142.948 100.83C148.462 100.476 141.163 98.5491 141.163 98.5491Z" fill="white" stroke="#1B1B1B" stroke-width="0.7" stroke-linecap="round" stroke-linejoin="round"/>
<path d="M139.752 97.7649C136.889 98.4091 140.908 102.556 143.206 101.111C145.505 99.6653 144.145 99.7409 144.145 99.7409L139.752 97.7649Z" fill="#1B1B1B" stroke="#1B1B1B" stroke-width="0.7" stroke-linecap="round" stroke-linejoin="round"/>
<ellipse cx="149.775" cy="87.0808" rx="6.8665" ry="4.98039" transform="rotate(-29.4711 149.775 87.0808)" fill="white" stroke="#1B1B1B" stroke-width="0.7" stroke-linecap="round" stroke-linejoin="round"/>
<path d="M155.437 97.7649L159.865 107.722L150.399 108.739L144.967 98.4463L155.437 97.7649Z" fill="white"/>
<mask id="mask7_1_163" style="mask-type:luminance" maskUnits="userSpaceOnUse" x="144" y="97" width="16" height="12">
<path fill-rule="evenodd" clip-rule="evenodd" d="M155.435 97.765L159.863 107.722L150.397 108.74L144.965 98.4464L155.435 97.765Z" fill="white"/>
</mask>
<g mask="url(#mask7_1_163)">
<path d="M154.268 99.4036C151.797 100.91 156.498 103.017 159.119 105.908C161.74 108.799 156.751 98.4268 156.751 98.4268L152.492 97.6553" fill="white"/>
</g>
<path fill-rule="evenodd" clip-rule="evenodd" d="M155.437 97.7649L159.865 107.722L150.399 108.739L144.967 98.4463L155.437 97.7649V97.7649Z" stroke="#1B1B1B" stroke-width="0.7" stroke-linecap="round" stroke-linejoin="round"/>
<path d="M154.268 99.4037C162.146 98.3366 157.955 87.3119 150.963 85.526C142.971 83.4849 146.555 92.8044 146.555 92.8044L147.703 94.8642L149.687 98.4235" fill="white"/>
<path d="M154.268 99.4037C162.146 98.3366 157.955 87.3119 150.963 85.526C142.971 83.4849 146.555 92.8044 146.555 92.8044L147.703 94.8642L149.687 98.4235" stroke="#1B1B1B" stroke-width="0.7" stroke-linecap="round" stroke-linejoin="round"/>
<path d="M146.416 83.4542C145.763 83.6061 145.136 83.8574 144.559 84.1994C138.382 87.8332 136.034 96.6807 141.704 99.5468C148.257 102.86 147.224 103.804 147.224 103.804C147.224 103.804 154.557 100.614 149.386 95.2274C154.846 92.5122 151.945 83.9628 151.945 83.9628" fill="white"/>
<path d="M146.416 83.4542C145.763 83.6061 145.136 83.8574 144.559 84.1994C138.382 87.8332 136.034 96.6807 141.704 99.5468C148.257 102.86 147.224 103.804 147.224 103.804C147.224 103.804 154.557 100.614 149.386 95.2274C154.846 92.5122 151.945 83.9628 151.945 83.9628" stroke="#1B1B1B" stroke-width="0.7" stroke-linecap="round" stroke-linejoin="round"/>
<path d="M151.723 93.1178C145.864 93.9819 146.06 99.9109 152.192 98.732L151.723 93.1178Z" fill="white"/>
<path d="M151.723 93.1178C145.864 93.9819 146.06 99.9109 152.192 98.732" stroke="#1B1B1B" stroke-width="0.7" stroke-linecap="round" stroke-linejoin="round"/>
<path d="M155.766 92.2755C155.62 92.3455 155.453 92.3546 155.301 92.301C155.149 92.2474 155.024 92.1354 154.955 91.9897L154.511 91.0615C154.366 90.7582 154.493 90.3945 154.796 90.2481C154.941 90.1782 155.108 90.169 155.261 90.2226C155.413 90.2762 155.537 90.3882 155.607 90.5339L156.051 91.4621C156.196 91.7654 156.069 92.1292 155.766 92.2755Z" fill="#1B1B1B"/>
<path d="M154.406 88.1747C152.716 88.898 152.677 89.7636 153.763 89.3806C154.849 88.9976 155.51 87.7022 154.406 88.1747Z" fill="#1B1B1B"/>
<path d="M156.651 90.5494C159.018 90.8466 159.278 93.0071 157.807 93.1431L156.651 90.5494Z" fill="white"/>
<path d="M156.651 90.5494C159.018 90.8466 159.278 93.0071 157.807 93.1431" stroke="#1B1B1B" stroke-width="0.7" stroke-linecap="round" stroke-linejoin="round"/>
<ellipse opacity="0.27" cx="153.039" cy="95.146" rx="1.87604" ry="1.8821" fill="white"/>
<path d="M155.142 94.3157C155.718 94.8851 156.559 95.0946 157.335 94.8618L155.142 94.3157Z" fill="white"/>
<path d="M155.142 94.3157C155.718 94.8851 156.559 95.0946 157.335 94.8618" stroke="#1B1B1B" stroke-width="0.7" stroke-linecap="round" stroke-linejoin="round"/>
<path d="M151.692 108.906C158.908 113.664 164.756 107.502 161.005 104.822C158.79 103.239 149.1 99.4951 148.138 106.987L150.337 110.166" fill="#1B1B1B"/>
<path d="M151.692 108.906C158.908 113.664 164.756 107.502 161.005 104.822C158.79 103.239 149.1 99.4951 148.138 106.987L150.337 110.166" stroke="#1B1B1B" stroke-width="0.7" stroke-linecap="round" stroke-linejoin="round"/>
<path d="M178.622 133.003C183.547 130.722 168.757 104.916 156.656 103.861C140.726 102.473 157.143 132.545 157.689 133.124C158.235 133.702 166.97 138.399 178.622 133.003Z" fill="white"/>
<mask id="mask8_1_163" style="mask-type:luminance" maskUnits="userSpaceOnUse" x="149" y="103" width="31" height="33">
<path fill-rule="evenodd" clip-rule="evenodd" d="M178.622 133.003C183.547 130.722 168.757 104.916 156.656 103.861C140.727 102.473 157.144 132.545 157.69 133.123C158.236 133.702 166.971 138.399 178.622 133.003Z" fill="white"/>
</mask>
<g mask="url(#mask8_1_163)">
<path d="M161.241 109.195L158.597 109.423C158.597 109.423 154.585 117.537 170.634 122.412C180.468 125.399 182.36 134.556 186.755 134.817C198.473 135.513 174.827 114.626 174.827 114.626L161.241 109.195Z" fill="white"/>
<path d="M138.081 124.46C151.684 122.927 154.573 114.888 152.267 104.674C149.961 94.4601 140.79 109.46 140.79 109.46L138.171 112.133L138.081 124.46Z" fill="white"/>
</g>
<path fill-rule="evenodd" clip-rule="evenodd" d="M178.622 133.003C183.547 130.722 168.757 104.916 156.656 103.861C140.726 102.473 157.143 132.545 157.689 133.124C158.235 133.702 166.97 138.399 178.622 133.003Z" stroke="#1B1B1B" stroke-width="0.7" stroke-linecap="round" stroke-linejoin="round"/>
<path d="M150.113 67.2909L164.281 51.5715L221.802 103.753C222.966 104.811 223.057 106.61 222.004 107.779L217.456 112.825L211.647 119.27C211.143 119.83 210.436 120.167 209.683 120.205C208.93 120.243 208.192 119.979 207.634 119.472L150.113 67.2909Z" fill="white"/>
<mask id="mask9_1_163" style="mask-type:luminance" maskUnits="userSpaceOnUse" x="150" y="51" width="73" height="70">
<path fill-rule="evenodd" clip-rule="evenodd" d="M150.112 67.2909L164.28 51.5715L221.801 103.753C222.966 104.811 223.056 106.61 222.003 107.779L217.455 112.825L211.647 119.27C211.142 119.83 210.435 120.167 209.682 120.205C208.929 120.243 208.191 119.979 207.633 119.472L150.112 67.2909Z" fill="white"/>
</mask>
<g mask="url(#mask9_1_163)">
<path d="M157.835 55.2002L160.032 52.7635L211.778 99.7066L209.582 102.143L157.835 55.2002Z" fill="white" stroke="#1B1B1B" stroke-width="0.7" stroke-linecap="round" stroke-linejoin="round"/>
<path d="M153.887 59.583L156.083 57.1464L207.83 104.089L205.634 106.526L153.887 59.583Z" fill="white" stroke="#1B1B1B" stroke-width="0.7" stroke-linecap="round" stroke-linejoin="round"/>
<path d="M150.096 63.7873L152.293 61.3506L204.039 108.294L201.843 110.73L150.096 63.7873Z" fill="white" stroke="#1B1B1B" stroke-width="0.7" stroke-linecap="round" stroke-linejoin="round"/>
<path d="M199.169 116.516L218.117 95.4943L226.349 102.962L207.401 123.984L199.169 116.516Z" fill="white" stroke="#1B1B1B" stroke-width="0.7" stroke-linecap="round" stroke-linejoin="round"/>
<path d="M201.223 114.662L218.479 95.5175L216.627 93.8373L199.371 112.982L201.223 114.662Z" fill="white" stroke="#1B1B1B" stroke-width="0.7" stroke-linecap="round" stroke-linejoin="round"/>
</g>
<path fill-rule="evenodd" clip-rule="evenodd" d="M150.113 67.2909L164.281 51.5715L221.802 103.753C222.966 104.811 223.057 106.61 222.004 107.779L217.456 112.825L211.647 119.27C211.143 119.83 210.436 120.167 209.683 120.205C208.93 120.243 208.192 119.979 207.634 119.472L150.113 67.2909Z" stroke="#1B1B1B" stroke-width="0.7" stroke-linecap="round" stroke-linejoin="round"/>
<path d="M144.015 47.4741C144.524 46.9094 145.231 46.6161 145.832 46.7202L164.28 51.5715L150.112 67.2909L143.45 49.3638C143.286 48.7741 143.506 48.0388 144.015 47.4741Z" fill="white"/>
<mask id="mask10_1_163" style="mask-type:luminance" maskUnits="userSpaceOnUse" x="143" y="46" width="22" height="22">
<path fill-rule="evenodd" clip-rule="evenodd" d="M144.017 47.4742C144.526 46.9095 145.233 46.6162 145.834 46.7204L164.282 51.5716L150.113 67.291L143.452 49.364C143.288 48.7742 143.508 48.0389 144.017 47.4742Z" fill="white"/>
</mask>
<g mask="url(#mask10_1_163)">
<path d="M145.66 69.0654L165.555 46.9926L168.698 49.8439L148.803 71.9168L145.66 69.0654Z" fill="white" stroke="#1B1B1B" stroke-width="0.7" stroke-linecap="round" stroke-linejoin="round"/>
<path d="M138.847 53.5323C135.747 50.7203 136.013 45.3574 139.441 41.554C142.869 37.7506 148.161 36.9469 151.261 39.759C154.361 42.571 151.84 45.8885 148.412 49.6919C144.984 53.4953 141.947 56.3444 138.847 53.5323Z" fill="#1B1B1B" stroke="#1B1B1B" stroke-width="0.7" stroke-linecap="round" stroke-linejoin="round"/>
</g>
<path fill-rule="evenodd" clip-rule="evenodd" d="M144.015 47.4741V47.4741C144.524 46.9094 145.231 46.6161 145.832 46.7202L164.28 51.5715L150.112 67.2909L143.45 49.3638C143.286 48.7741 143.506 48.0388 144.015 47.4741Z" stroke="#1B1B1B" stroke-width="0.7" stroke-linecap="round" stroke-linejoin="round"/>
<path d="M190.941 98.2957C190.941 98.2957 192.928 89.6289 193.226 86.0132C193.778 79.2889 192.62 76.9101 191.113 78.1346C189.606 79.359 190.468 83.9457 189.214 83.4433C187.961 82.9409 188.222 85.147 189.486 86.2972C190.749 87.4474 187.07 93.2682 187.07 93.2682L190.941 98.2957Z" fill="white"/>
<mask id="mask11_1_163" style="mask-type:luminance" maskUnits="userSpaceOnUse" x="187" y="77" width="7" height="22">
<path fill-rule="evenodd" clip-rule="evenodd" d="M190.941 98.2957C190.941 98.2957 192.928 89.6289 193.226 86.0132C193.778 79.2889 192.62 76.9101 191.113 78.1346C189.606 79.359 190.468 83.9457 189.214 83.4433C187.961 82.9409 188.222 85.147 189.486 86.2972C190.749 87.4474 187.07 93.2682 187.07 93.2682L190.941 98.2957Z" fill="white"/>
</mask>
<g mask="url(#mask11_1_163)">
<path d="M193.683 94.7774C192.989 90.7225 188.702 89.9661 188.702 89.9661L188.705 94.7457L192.778 95.9495" fill="white"/>
</g>
<path fill-rule="evenodd" clip-rule="evenodd" d="M190.941 98.2957C190.941 98.2957 192.928 89.6289 193.226 86.0132C193.778 79.2889 192.62 76.9101 191.113 78.1346C189.606 79.359 190.468 83.9457 189.214 83.4433C187.961 82.9409 188.222 85.147 189.486 86.2972C190.749 87.4474 187.07 93.2682 187.07 93.2682L190.941 98.2957Z" stroke="#1B1B1B" stroke-width="0.7" stroke-linecap="round" stroke-linejoin="round"/>
<path d="M157.061 105.226C164.03 104.156 181.175 107.107 181.175 107.107L188.241 90.3566C192.474 93.3281 192.117 94.6261 192.117 94.6261C192.117 94.6261 188.008 119.721 181.539 119.441C169.373 118.914 157.546 116.28 157.546 116.28" fill="white"/>
<mask id="mask12_1_163" style="mask-type:luminance" maskUnits="userSpaceOnUse" x="157" y="90" width="36" height="30">
<path fill-rule="evenodd" clip-rule="evenodd" d="M157.06 105.226C164.029 104.156 181.173 107.107 181.173 107.107L188.239 90.3566C192.473 93.3281 192.116 94.6261 192.116 94.6261C192.116 94.6261 188.007 119.721 181.538 119.441C169.372 118.914 157.544 116.28 157.544 116.28" fill="white"/>
</mask>
<g mask="url(#mask12_1_163)">
<ellipse cx="184.032" cy="119.789" rx="6.19422" ry="4.16542" fill="white" stroke="#1B1B1B" stroke-width="0.7" stroke-linecap="round" stroke-linejoin="round"/>
</g>
<path d="M157.061 105.226C164.03 104.156 181.175 107.107 181.175 107.107L188.241 90.3566C192.474 93.3281 192.117 94.6261 192.117 94.6261C192.117 94.6261 188.008 119.721 181.539 119.441C169.373 118.914 157.546 116.28 157.546 116.28" stroke="#1B1B1B" stroke-width="0.7" stroke-linecap="round" stroke-linejoin="round"/>
<path d="M167.202 125.721C172.035 126.316 173.437 124.149 173.437 124.149C173.437 124.149 180.522 130.498 173.301 131.551C167.314 132.423 167.202 125.721 167.202 125.721Z" fill="#1B1B1B" stroke="#1B1B1B" stroke-width="0.7" stroke-linecap="round" stroke-linejoin="round"/>
<path d="M186.752 92.8471L188.029 90.0181C188.029 90.0181 193.185 91.963 193.096 94.7479L192.125 96.9253C192.125 96.9253 189.801 91.8811 186.752 92.8471Z" fill="white" stroke="#1B1B1B" stroke-width="0.7" stroke-linecap="round" stroke-linejoin="round"/>
<path d="M338.339 175.982L314.855 174.537C311.26 174.316 308.923 170.643 310.236 167.277L313.137 159.835C313.701 158.381 314.876 157.249 316.351 156.74C317.825 156.231 319.449 156.397 320.789 157.194L339.644 168.411L338.339 175.982Z" fill="white"/>
<mask id="mask13_1_163" style="mask-type:luminance" maskUnits="userSpaceOnUse" x="309" y="156" width="31" height="20">
<path fill-rule="evenodd" clip-rule="evenodd" d="M338.338 175.982L314.854 174.537C311.26 174.316 308.923 170.643 310.235 167.277L313.137 159.836C313.7 158.381 314.876 157.249 316.35 156.74C317.824 156.231 319.448 156.397 320.789 157.194L339.644 168.411L338.338 175.982Z" fill="white"/>
</mask>
<g mask="url(#mask13_1_163)">
<path d="M335.169 162.352C334.588 168.322 332.122 171.137 328.108 168.565C324.094 165.992 328.783 171.137 332.653 172.836C336.523 174.535 313.55 175.982 313.137 159.836C312.863 149.126 309.294 170.528 309.294 170.528L309.866 179.194L313.937 181.621L331.251 184.533L339.086 176.864V166.672L335.169 162.352Z" fill="white"/>
</g>
<path fill-rule="evenodd" clip-rule="evenodd" d="M338.339 175.982L314.855 174.537C311.26 174.316 308.923 170.643 310.236 167.277L313.137 159.835C313.701 158.381 314.876 157.249 316.351 156.74C317.825 156.231 319.449 156.397 320.789 157.194L339.644 168.411L338.339 175.982Z" stroke="#1B1B1B" stroke-width="0.7" stroke-linecap="round" stroke-linejoin="round"/>
<path d="M340.952 175.982L364.435 174.537C368.03 174.316 370.367 170.643 369.055 167.277L366.153 159.835C365.589 158.381 364.414 157.249 362.94 156.74C361.465 156.231 359.842 156.397 358.501 157.194L339.646 168.411L340.952 175.982Z" fill="white" stroke="#1B1B1B" stroke-width="0.7" stroke-linecap="round" stroke-linejoin="round"/>
<path d="M340.952 175.982L364.435 174.537C368.03 174.316 370.367 170.643 369.055 167.277L366.153 159.835C365.589 158.381 364.414 157.249 362.94 156.74C361.465 156.231 359.842 156.397 358.501 157.194L339.646 168.411L340.952 175.982Z" fill="white"/>
<mask id="mask14_1_163" style="mask-type:luminance" maskUnits="userSpaceOnUse" x="339" y="156" width="31" height="20">
<path fill-rule="evenodd" clip-rule="evenodd" d="M340.953 175.982L364.437 174.537C368.032 174.316 370.369 170.643 369.056 167.277L366.154 159.836C365.591 158.381 364.415 157.249 362.941 156.74C361.467 156.231 359.843 156.397 358.503 157.194L339.648 168.411L340.953 175.982Z" fill="white"/>
</mask>
<g mask="url(#mask14_1_163)">
<path d="M344.123 162.352C344.703 168.322 351.276 176.512 355.29 173.94C359.304 171.368 350.939 179.163 347.069 180.862C343.199 182.56 365.741 175.982 366.154 159.836C366.428 149.126 369.997 170.528 369.997 170.528L369.425 179.194L365.354 181.621L348.04 184.533L340.205 176.864V166.672L344.123 162.352Z" fill="white"/>
</g>
<path fill-rule="evenodd" clip-rule="evenodd" d="M340.952 175.982L364.435 174.537C368.03 174.316 370.367 170.643 369.055 167.277L366.153 159.835C365.589 158.381 364.414 157.249 362.94 156.74C361.465 156.231 359.842 156.397 358.501 157.194L339.646 168.411L340.952 175.982Z" stroke="#1B1B1B" stroke-width="0.7" stroke-linecap="round" stroke-linejoin="round"/>
<rect x="334.179" y="164.442" width="10.9301" height="12.1712" rx="5.04133" fill="white" stroke="#1B1B1B" stroke-width="0.7" stroke-linecap="round" stroke-linejoin="round"/>
<path d="M340.25 239.618H303.327C300.083 239.612 297.458 236.978 297.464 233.734V183.512H340.25L340.25 239.618Z" fill="white"/>
<path fill-rule="evenodd" clip-rule="evenodd" d="M340.25 239.618H303.327C300.083 239.612 297.458 236.978 297.464 233.734V183.512H340.25L340.25 239.618Z" stroke="#1B1B1B" stroke-width="0.7" stroke-linecap="round" stroke-linejoin="round"/>
<path d="M338.281 239.618H375.205C378.448 239.612 381.073 236.978 381.067 233.734V183.512H338.281L338.281 239.618Z" fill="white"/>
<path fill-rule="evenodd" clip-rule="evenodd" d="M338.281 239.618H375.205C378.448 239.612 381.073 236.978 381.067 233.734V183.512H338.281L338.281 239.618Z" stroke="#1B1B1B" stroke-width="0.7" stroke-linecap="round" stroke-linejoin="round"/>
<path d="M322.708 233.734V183.512H314.437V233.734C314.432 236.978 317.056 239.612 320.3 239.618H328.57C325.327 239.612 322.702 236.978 322.708 233.734Z" fill="white" stroke="#1B1B1B" stroke-width="0.7" stroke-linecap="round" stroke-linejoin="round"/>
<path d="M355.287 183.512V233.734C355.293 236.978 352.668 239.612 349.424 239.618H358.428C361.672 239.612 364.296 236.978 364.291 233.734V183.512H355.287Z" fill="white" stroke="#1B1B1B" stroke-width="0.7" stroke-linecap="round" stroke-linejoin="round"/>
<rect opacity="0.06" x="297.464" y="180.993" width="40.8185" height="12.4698" fill="black"/>
<rect opacity="0.06" x="338.281" y="180.993" width="42.7862" height="12.4698" fill="black"/>
<path d="M341.203 173.999H296.709C295.094 174.002 293.787 175.314 293.789 176.929V185.919C293.788 186.947 294.619 187.781 295.646 187.783H338.284V176.929C338.281 175.314 339.588 174.002 341.203 173.999Z" fill="white" stroke="#1B1B1B" stroke-width="0.7" stroke-linecap="round" stroke-linejoin="round"/>
<path d="M382.564 173.999H341.201C339.585 174.002 338.278 175.314 338.281 176.929V187.783H383.627C384.654 187.781 385.485 186.947 385.483 185.919V176.929C385.486 175.314 384.179 174.002 382.564 173.999Z" fill="white" stroke="#1B1B1B" stroke-width="0.7" stroke-linecap="round" stroke-linejoin="round"/>
<path d="M364.435 173.94H355.289C356.907 173.946 358.215 175.264 358.208 176.882V187.783H367.354V176.882C367.361 175.264 366.053 173.946 364.435 173.94V173.94Z" fill="white" stroke="#1B1B1B" stroke-width="0.7" stroke-linecap="round" stroke-linejoin="round"/>
<path d="M322.822 173.999H313.676C312.063 173.999 310.756 175.33 310.756 176.973V187.987H319.902V176.973C319.902 175.33 321.209 173.999 322.822 173.999Z" fill="white" stroke="#1B1B1B" stroke-width="0.7" stroke-linecap="round" stroke-linejoin="round"/>
<path d="M338.687 173.999H329.541C327.925 174.002 326.618 175.314 326.621 176.929V196.87L330.834 192.113L335.767 196.87V176.929C335.765 176.153 336.072 175.409 336.62 174.859C337.167 174.31 337.911 174 338.687 173.999Z" fill="white" stroke="#1B1B1B" stroke-width="0.7" stroke-linecap="round" stroke-linejoin="round"/>
<path d="M307.878 177.623L305.059 180.567" stroke="#1B1B1B" stroke-width="0.7" stroke-linecap="round" stroke-linejoin="round"/>
<path d="M361.116 225.766C359.823 227.078 358.399 228.255 356.866 229.277" stroke="#1B1B1B" stroke-width="0.7" stroke-linecap="round" stroke-linejoin="round"/>
<path d="M326.512 104.448L326.683 104.553L326.437 104.044L324.699 94.6892C323.995 90.9038 319.714 89.017 316.459 91.0588L308.78 95.8763C307.881 96.4256 307.177 97.2422 306.766 98.2117C305.778 100.624 305.17 105.187 312.618 108.112C323.133 112.241 327.017 107.164 327.017 107.164L326.512 104.448Z" fill="#1B1B1B" stroke="#1B1B1B" stroke-width="0.7" stroke-linecap="round" stroke-linejoin="round"/>
<path d="M332.384 137.789L309.612 136.52C309.612 136.52 305.516 133.158 303.919 133.981C301.515 135.221 297.598 137.595 295.781 138.247C295.781 138.247 295.708 140.468 300.981 138.071C300.981 138.071 302.459 141.297 308.207 140.556L338.15 145.898L332.384 137.789Z" fill="white" stroke="#1B1B1B" stroke-width="0.7" stroke-linecap="round" stroke-linejoin="round"/>
<path d="M314.238 136.777C314.238 136.777 313.831 141.559 317.58 144.366L337.967 146.081C342.453 146.746 346.086 142.473 344.724 138.134L337.51 115.152C336.849 111.652 333.439 109.286 329.794 109.8C325.789 110.364 323.164 114.147 324.146 117.941L328.735 135.673L314.238 136.777Z" fill="white"/>
<path fill-rule="evenodd" clip-rule="evenodd" d="M314.238 136.777C314.238 136.777 313.831 141.559 317.58 144.366L337.967 146.081C342.453 146.746 346.086 142.473 344.724 138.134L337.51 115.152C336.849 111.652 333.439 109.286 329.794 109.8V109.8C325.789 110.364 323.164 114.147 324.146 117.941L328.735 135.673L314.238 136.777Z" stroke="#1B1B1B" stroke-width="0.7" stroke-linecap="round" stroke-linejoin="round"/>
<path d="M306.339 175.985L318.629 191.35L325.446 188.489L314.534 172.328L311.243 177.63" fill="white"/>
<mask id="mask15_1_163" style="mask-type:luminance" maskUnits="userSpaceOnUse" x="306" y="172" width="20" height="20">
<path fill-rule="evenodd" clip-rule="evenodd" d="M306.338 175.985L318.629 191.35L325.445 188.489L314.533 172.328L311.242 177.63" fill="white"/>
</mask>
<g mask="url(#mask15_1_163)">
<path d="M320.501 179.051C318.297 185.184 314.543 181.975 314.82 186.682C315.098 191.389 308.815 182.973 308.815 182.973L310.833 181.761L319.399 178.534" fill="white"/>
</g>
<path d="M306.339 175.985L318.629 191.35L325.446 188.489L314.534 172.328L311.243 177.63" stroke="#1B1B1B" stroke-width="0.7" stroke-linecap="round" stroke-linejoin="round"/>
<path d="M309.99 204.169C309.99 204.169 305.866 199.441 313.054 196.5C319.994 193.66 315.801 189.403 315.801 189.403L324.316 186.636L327.867 190.683C328.358 191.242 328.183 191.974 327.438 192.474L309.99 204.169Z" fill="#1B1B1B" stroke="#1B1B1B" stroke-width="0.7" stroke-linecap="round" stroke-linejoin="round"/>
<path d="M308.626 183.25C308.626 183.25 317.337 182.746 320.288 179.101L309.541 162.353L334.237 171.764C336.103 167.4 323.419 159.922 337.395 172.964L339.502 166.712C339.781 166.818 340.647 168.853 340.926 168.748C343.723 167.69 340.834 168.194 341.769 165.047L346.418 157.755L343.158 156.727L305.182 148.116C300.325 146.485 294.888 147.5 291.888 150.598C289.219 153.354 289.037 157.198 291.424 160.373L308.626 183.25Z" fill="white" stroke="#1B1B1B" stroke-width="0.7" stroke-linecap="round" stroke-linejoin="round"/>
<path d="M305.114 179.459C305.114 179.459 307.171 183.693 308.181 184.64C308.181 184.64 317.532 185.514 320.351 178.87L317.496 174.571C317.496 174.571 314.009 181.43 305.114 179.459Z" fill="white" stroke="#1B1B1B" stroke-width="0.7" stroke-linecap="round" stroke-linejoin="round"/>
<path d="M299.052 179.749L313.249 198.435L319.631 193.308L306.696 173.289L304.128 181.1" fill="white"/>
<mask id="mask16_1_163" style="mask-type:luminance" maskUnits="userSpaceOnUse" x="299" y="173" width="21" height="26">
<path fill-rule="evenodd" clip-rule="evenodd" d="M299.052 179.749L313.249 198.435L319.632 193.308L306.697 173.289L304.129 181.1" fill="white"/>
</mask>
<g mask="url(#mask16_1_163)">
<path d="M313.29 182.273C311.188 187.669 305.995 187.811 308.094 192.459C310.193 197.106 302.587 192.661 302.587 192.661L302.854 185.562L309.696 184.059" fill="white"/>
</g>
<path d="M299.052 179.749L313.249 198.435L319.631 193.308L306.696 173.289L304.128 181.1" stroke="#1B1B1B" stroke-width="0.7" stroke-linecap="round" stroke-linejoin="round"/>
<path d="M306.365 217.445C306.365 217.445 301.656 211.758 308.396 206.453C314.905 201.331 310.19 196.298 310.19 196.298L318.269 190.99L322.319 195.855C322.879 196.527 322.801 197.555 322.128 198.369L306.365 217.445Z" fill="#1B1B1B" stroke="#1B1B1B" stroke-width="0.7" stroke-linecap="round" stroke-linejoin="round"/>
<path d="M302.27 189.223C302.27 189.223 310.839 186.961 313.288 181.465L300.439 160.617L335.482 173.958C337.779 174.833 340.296 174.948 342.663 174.287C347.183 173.019 350.487 169.142 351.021 164.478L352.308 153.34L336.394 147.682L333.027 146.874L294.252 142.031C289.224 140.69 283.967 143.056 281.399 147.815C279.115 152.05 279.437 157.315 282.219 161.203L302.27 189.223Z" fill="white"/>
<mask id="mask17_1_163" style="mask-type:luminance" maskUnits="userSpaceOnUse" x="279" y="141" width="74" height="49">
<path fill-rule="evenodd" clip-rule="evenodd" d="M302.268 189.223C302.268 189.223 310.838 186.961 313.286 181.465L300.438 160.617L335.48 173.958C337.777 174.833 340.294 174.948 342.661 174.287C347.182 173.019 350.485 169.142 351.019 164.478L352.306 153.34L336.392 147.682L333.026 146.874L294.25 142.031C289.222 140.69 283.965 143.056 281.397 147.815C279.113 152.05 279.435 157.315 282.218 161.203L302.268 189.223Z" fill="white"/>
</mask>
<g mask="url(#mask17_1_163)">
<path d="M311.9 141.659C336.35 152.723 348.214 151.818 348.707 159.734C349.201 167.65 339.548 176.982 324.756 169.622C309.965 162.261 347.848 181.747 347.848 181.747C347.848 181.747 363.854 169.007 364.53 168.328C365.207 167.65 365.658 155.339 364.981 154.031C364.305 152.723 356.189 147 356.189 147L354.357 144.128" fill="white"/>
</g>
<path fill-rule="evenodd" clip-rule="evenodd" d="M302.27 189.223C302.27 189.223 310.839 186.961 313.288 181.465L300.439 160.617L335.482 173.958C337.779 174.833 340.296 174.948 342.663 174.287V174.287C347.183 173.019 350.487 169.142 351.021 164.478L352.308 153.34L336.394 147.682L333.027 146.874L294.252 142.031C289.224 140.69 283.967 143.056 281.399 147.815V147.815C279.115 152.05 279.437 157.315 282.219 161.203L302.27 189.223Z" stroke="#1B1B1B" stroke-width="0.7" stroke-linecap="round" stroke-linejoin="round"/>
<path d="M322.938 102.292L332.889 108.805L328.597 118.744L315.775 108.162L322.938 102.292Z" fill="white"/>
<mask id="mask18_1_163" style="mask-type:luminance" maskUnits="userSpaceOnUse" x="315" y="102" width="18" height="17">
<path fill-rule="evenodd" clip-rule="evenodd" d="M322.94 102.292L332.891 108.805L328.599 118.744L315.777 108.162L322.94 102.292Z" fill="white"/>
</mask>
<g mask="url(#mask18_1_163)">
<path d="M321.877 106.612C322.169 111.412 321.411 112.389 322.761 114.377C324.111 116.364 318.68 114.29 318.68 114.29L316.143 110.424L321.141 105.273" fill="white"/>
</g>
<path fill-rule="evenodd" clip-rule="evenodd" d="M322.938 102.292L332.889 108.805L328.597 118.744L315.775 108.162L322.938 102.292V102.292Z" stroke="#1B1B1B" stroke-width="0.7" stroke-linecap="round" stroke-linejoin="round"/>
<path d="M322.166 104.914L321.15 102.799C318.145 103.612 312.062 104.404 309.744 98.4834C308 101.688 311.067 110.823 314.651 112.698C316.196 113.506 320.104 110.839 322.026 108.991" fill="white"/>
<path d="M322.166 104.914L321.15 102.799C318.145 103.612 312.062 104.404 309.744 98.4834C308 101.688 311.067 110.823 314.651 112.698C316.196 113.506 320.104 110.839 322.026 108.991" stroke="#1B1B1B" stroke-width="0.7" stroke-linecap="round" stroke-linejoin="round"/>
<path d="M318.913 103.627C320.367 97.292 326.128 101.487 321.753 105.273L318.913 103.627Z" fill="white"/>
<path d="M318.913 103.627C320.367 97.292 326.128 101.487 321.753 105.273" stroke="#1B1B1B" stroke-width="0.7" stroke-linecap="round" stroke-linejoin="round"/>
<path d="M330.887 146.944C330.887 146.944 345.7 154.089 355.626 153.807C355.626 153.807 361.854 114.592 330.376 106.613L323.15 113.382C323.15 113.382 319.793 124.24 330.887 146.944Z" fill="white"/>
<path fill-rule="evenodd" clip-rule="evenodd" d="M330.887 146.944C330.887 146.944 345.7 154.089 355.626 153.807C355.626 153.807 361.854 114.592 330.376 106.613L323.15 113.382C323.15 113.382 319.793 124.24 330.887 146.944Z" stroke="#1B1B1B" stroke-width="0.7" stroke-linecap="round" stroke-linejoin="round"/>
<path d="M320.073 145.56L293.006 142.37L281.298 114.538L284.483 114.878L294.953 139.768L320.4 142.768L320.073 145.56Z" fill="white"/>
<path fill-rule="evenodd" clip-rule="evenodd" d="M320.073 145.56L293.006 142.37L281.298 114.538L284.483 114.878L294.953 139.768L320.4 142.768L320.073 145.56V145.56Z" stroke="#1B1B1B" stroke-width="0.7" stroke-linecap="round" stroke-linejoin="round"/>
<path d="M335.655 138.983L312.883 137.714C312.883 137.714 308.786 134.353 307.19 135.176C304.786 136.415 300.868 138.789 299.052 139.442C299.052 139.442 298.979 141.663 304.252 139.265C304.252 139.265 305.73 142.491 311.478 141.751L341.421 147.092L335.655 138.983Z" fill="white"/>
<mask id="mask19_1_163" style="mask-type:luminance" maskUnits="userSpaceOnUse" x="299" y="135" width="43" height="13">
<path fill-rule="evenodd" clip-rule="evenodd" d="M335.656 138.983L312.884 137.714C312.884 137.714 308.787 134.353 307.191 135.176C304.787 136.415 300.869 138.789 299.052 139.442C299.052 139.442 298.979 141.663 304.253 139.265C304.253 139.265 305.731 142.491 311.479 141.751L341.422 147.092L335.656 138.983Z" fill="white"/>
</mask>
<g mask="url(#mask19_1_163)">
<path d="M318.798 136.818C316.499 136.509 318.099 141.4 317.062 142.746C316.025 144.092 319.722 143.712 319.722 143.712L319.035 139.053" fill="white"/>
<path d="M316.1 137.893C319.796 138.084 313.842 142.558 315.585 144.507C317.328 146.456 320.401 142.768 320.401 142.768L318.853 137.87" fill="white"/>
</g>
<path fill-rule="evenodd" clip-rule="evenodd" d="M335.655 138.983L312.883 137.714C312.883 137.714 308.786 134.353 307.19 135.176C304.786 136.415 300.868 138.789 299.052 139.442C299.052 139.442 298.979 141.663 304.252 139.265C304.252 139.265 305.73 142.491 311.478 141.751L341.421 147.092L335.655 138.983Z" stroke="#1B1B1B" stroke-width="0.7" stroke-linecap="round" stroke-linejoin="round"/>
<path d="M328.264 122.409L332.006 136.868L317.509 137.972C317.509 137.972 316.65 143.603 320.4 146.409L341.238 147.276C345.724 147.941 349.357 143.668 347.995 139.329L340.781 116.347" fill="white"/>
<mask id="mask20_1_163" style="mask-type:luminance" maskUnits="userSpaceOnUse" x="317" y="116" width="32" height="32">
<path fill-rule="evenodd" clip-rule="evenodd" d="M328.262 122.409L332.004 136.868L317.508 137.972C317.508 137.972 316.648 143.603 320.398 146.409L341.236 147.276C345.722 147.941 349.355 143.668 347.993 139.329L340.78 116.347" fill="white"/>
</mask>
<g mask="url(#mask20_1_163)">
<path d="M351.78 124.728L353.572 128.371L357.58 128.956L354.68 131.792L355.365 135.797L351.78 133.906L348.195 135.797L348.879 131.792L345.979 128.956L349.987 128.371L351.78 124.728Z" fill="white" stroke="#1B1B1B" stroke-width="0.7" stroke-linecap="round" stroke-linejoin="round"/>
</g>
<path d="M328.264 122.409L332.006 136.868L317.509 137.972C317.509 137.972 316.65 143.603 320.4 146.409L341.238 147.276C345.724 147.941 349.357 143.668 347.995 139.329L340.781 116.347" stroke="#1B1B1B" stroke-width="0.7" stroke-linecap="round" stroke-linejoin="round"/>
<path d="M328.195 103.917C328.195 103.917 323.552 110.761 323.15 113.381L322.673 115.494L330.376 106.612C330.376 106.612 330.133 104.521 328.195 103.917Z" fill="white" stroke="#1B1B1B" stroke-width="0.7" stroke-linecap="round" stroke-linejoin="round"/>
<path d="M298.371 184.64C298.371 184.64 301.114 188.462 302.269 189.224C302.269 189.224 311.632 188.492 313.287 181.465L310.64 177.17C310.64 177.17 307.47 185.068 298.371 184.64Z" fill="white" stroke="#1B1B1B" stroke-width="0.7" stroke-linecap="round" stroke-linejoin="round"/>
<ellipse cx="323.982" cy="117.002" rx="0.351399" ry="0.352538" fill="white" stroke="#1B1B1B" stroke-width="0.7" stroke-linecap="round" stroke-linejoin="round"/>
<ellipse cx="324.872" cy="125.08" rx="0.351399" ry="0.352538" fill="white" stroke="#1B1B1B" stroke-width="0.7" stroke-linecap="round" stroke-linejoin="round"/>
<ellipse cx="326.524" cy="132.198" rx="0.351399" ry="0.352538" fill="white" stroke="#1B1B1B" stroke-width="0.7" stroke-linecap="round" stroke-linejoin="round"/>
<path d="M313.278 106.514C313.629 106.426 313.843 106.071 313.756 105.72L313.492 104.645C313.451 104.476 313.344 104.331 313.196 104.241C313.047 104.151 312.869 104.123 312.701 104.165C312.35 104.252 312.136 104.608 312.223 104.959L312.487 106.034C312.528 106.203 312.635 106.348 312.783 106.438C312.932 106.528 313.11 106.555 313.278 106.514Z" fill="#1B1B1B"/>
<path d="M311.613 102.175C313.509 101.615 314.132 102.307 312.969 102.734C311.807 103.162 310.374 102.541 311.613 102.175Z" fill="#1B1B1B"/>
<path d="M311.291 105.824C309.325 107.904 310.795 110.158 312.271 109.171L311.291 105.824Z" fill="white"/>
<path d="M311.291 105.824C309.325 107.904 310.795 110.158 312.271 109.171" stroke="#1B1B1B" stroke-width="0.7" stroke-linecap="round" stroke-linejoin="round"/>
<ellipse opacity="0.27" cx="315.673" cy="106.3" rx="1.48922" ry="1.10057" transform="rotate(-23.7824 315.673 106.3)" fill="white"/>
<path d="M315.434 107.996C315.179 108.83 314.491 109.459 313.637 109.637L315.434 107.996Z" fill="white"/>
<path d="M315.434 107.996C315.179 108.83 314.491 109.459 313.637 109.637" stroke="#1B1B1B" stroke-width="0.7" stroke-linecap="round" stroke-linejoin="round"/>
<path d="M320.517 102.96C320.547 102.706 320.728 102.496 320.974 102.428C321.22 102.359 321.483 102.447 321.639 102.649C321.796 102.851 321.814 103.127 321.686 103.349" stroke="#1B1B1B" stroke-width="0.7" stroke-linecap="round" stroke-linejoin="round"/>
<path d="M315.659 96.2704C315.753 96.9854 316.134 97.6314 316.714 98.0603" stroke="#1B1B1B" stroke-width="0.7" stroke-linecap="round" stroke-linejoin="round"/>
<path d="M336.057 126.297L336.91 127.153" stroke="#1B1B1B" stroke-width="0.7" stroke-linecap="round" stroke-linejoin="round"/>
<path d="M331.787 136.725C332.428 136.834 333.028 137.113 333.523 137.533" stroke="#1B1B1B" stroke-width="0.7" stroke-linecap="round" stroke-linejoin="round"/>
<path d="M300.898 161.007L299.206 159.564" stroke="#1B1B1B" stroke-width="0.7" stroke-linecap="round" stroke-linejoin="round"/>
<path d="M321.158 152.405C320.895 153.925 320.976 155.485 321.394 156.969" stroke="#1B1B1B" stroke-width="0.7" stroke-linecap="round" stroke-linejoin="round"/>
<path d="M308.495 198.735C309.333 199.535 310.48 199.928 311.633 199.809L306.291 203.095" stroke="#1B1B1B" stroke-width="0.7" stroke-linecap="round" stroke-linejoin="round"/>
</svg>
