<svg width="400" height="445" viewBox="0 0 400 445" fill="none" xmlns="http://www.w3.org/2000/svg">
<path fill-rule="evenodd" clip-rule="evenodd" d="M114.484 36.0747C113.456 37.1059 113.413 37.8657 113.413 54.8822V72.6149L63.1934 72.6268C15.2133 72.6381 12.8746 72.6837 10.7576 73.6477C5.83043 75.8923 2.50549 80.3797 1.42503 86.2423C1.07898 88.1209 0.931133 98.666 1.03023 114.382C1.18558 139.007 1.2129 139.576 2.39246 142.498C3.82593 146.05 7.23444 149.713 10.5631 151.279C12.8628 152.36 13.9143 152.42 33.4633 152.571L53.9529 152.729V225.241V297.754L34.3177 297.895L14.683 298.036L13.1424 303.006L11.6023 307.977H8.15741H4.71194L4.18269 309.992C3.49059 312.627 1.40574 320.351 1.07255 321.514C0.857742 322.264 1.26647 322.451 3.41024 322.588L6.00828 322.754L6.40146 325.71C6.61788 327.335 6.98321 331.748 7.21355 335.517C7.62923 342.327 7.62495 342.368 6.4636 342.368C4.91603 342.368 4.83675 342.76 5.28672 348.199C5.83739 354.858 7.32711 374.162 7.65655 378.908C8.15419 386.07 8.3765 386.937 9.80676 387.297C10.5176 387.476 11.0988 387.978 11.0988 388.412C11.0988 388.846 11.3393 392.145 11.6334 395.742C11.928 399.34 12.2719 403.552 12.3984 405.104L12.6282 407.925H8.11402C5.46135 407.925 3.59934 408.147 3.59934 408.463C3.59934 408.82 70.0232 409 201.8 409C333.576 409 400 408.82 400 408.463C400 408.107 378.099 407.925 335.368 407.925C273.856 407.925 270.776 407.88 271.563 406.985C274.551 403.587 272.13 397.596 267.481 396.885C264.882 396.487 263.059 394.391 259.768 388.016C255.965 380.648 255.769 379.153 255.783 357.693C255.79 347.235 255.919 338.477 256.07 338.232C256.221 337.987 258.716 337.802 261.614 337.821C264.513 337.84 278.636 337.903 292.999 337.962L319.113 338.069V346.049C319.113 353.978 319.122 354.042 320.643 356.124C322.702 358.946 328.121 364.043 330.217 365.13C331.729 365.914 335.037 366.012 360.254 366.012H388.592L390.4 364.79C391.394 364.118 392.756 362.752 393.425 361.755L394.643 359.941V331.52C394.643 298.716 395.094 301.549 388.925 295.56C384.035 290.813 383.088 290.244 380.061 290.244H377.502V262.839V235.434H385.564C394.769 235.434 395.85 235.109 398.404 231.572L400 229.362V138.441V47.5204L398.404 45.3097C395.379 41.121 401.685 41.4483 323.939 41.4483C254.88 41.4483 254.234 41.4579 252.114 42.5434C250.78 43.2258 249.641 44.3393 249.09 45.4989C248.603 46.522 248.009 47.3592 247.769 47.3592C247.529 47.3592 247.332 66.3413 247.332 89.5417V131.724H187.604H127.876V111.842V91.9598H147.624C166.791 91.9598 167.414 91.927 168.783 90.8458L170.195 89.7324V65.7094V41.6858L166.832 38.3429L163.47 35H139.513C116.27 35 115.524 35.0322 114.484 36.0747ZM163.231 37.1494C164.269 38.1903 164.302 38.9404 164.302 60.9591C164.302 79.7457 164.171 83.8752 163.542 84.7372C162.809 85.742 161.927 85.7802 139.417 85.7802C119.231 85.7802 115.983 85.6706 115.544 84.9741C115.245 84.4986 115.033 74.5451 115.028 60.6856C115.021 38.8829 115.087 37.1634 115.958 36.6551C116.553 36.3074 125.154 36.1016 139.527 36.0908C161.457 36.0753 162.193 36.108 163.231 37.1494ZM123.014 45.1684C121.78 46.4059 121.448 47.2179 121.448 48.9954C121.448 51.0895 121.755 51.5667 125.704 55.6253L129.96 59.9989L125.704 64.3547C121.755 68.3972 121.448 68.8728 121.448 70.9626C121.448 72.8895 121.791 73.579 123.823 75.7359C125.974 78.0197 126.427 78.2572 128.631 78.2572C130.956 78.2572 131.256 78.0659 135.363 73.9707L139.661 69.6847L143.959 73.9707C148.07 78.0702 148.364 78.2572 150.699 78.2572C152.78 78.2572 153.372 77.9982 154.704 76.5022C155.819 75.2507 156.267 74.1915 156.267 72.8095C156.267 71.1087 155.731 70.3204 151.887 66.3698L147.506 61.8678L151.887 57.3658C155.8 53.3443 156.267 52.6484 156.267 50.8407C156.267 49.1373 155.856 48.4054 153.665 46.2076C151.365 43.8997 150.798 43.5977 148.773 43.5977C146.632 43.5977 146.198 43.8777 142.14 47.8665L137.798 52.1358L133.438 47.8665C129.392 43.9051 128.917 43.5977 126.829 43.5977C125.057 43.5977 124.248 43.9309 123.014 45.1684ZM128.384 45.2098C128.614 45.2098 130.691 47.1443 132.998 49.5086C135.306 51.873 137.442 53.8075 137.747 53.8075C138.051 53.8075 140.278 51.8327 142.697 49.4189C146.376 45.7482 147.377 45.0308 148.82 45.0308C150.723 45.0308 153.053 47.1872 153.053 48.9503C153.053 50.1491 150.263 53.5834 146.62 56.8693C145.15 58.1955 143.947 59.5201 143.947 59.8124C143.947 60.1048 145.996 62.4804 148.5 65.092C151.158 67.8642 153.053 70.293 153.053 70.9287C153.053 72.8385 150.776 74.9395 148.768 74.882C147.281 74.8396 146.257 74.1072 142.641 70.4988C140.253 68.1162 138.046 66.1667 137.737 66.1667C137.427 66.1667 135.309 68.1012 133.031 70.4655C130.752 72.8299 128.48 74.7923 127.981 74.8262C124.792 75.0438 122.877 73.608 122.877 70.9996C122.877 69.6213 123.651 68.5429 127.251 64.9136C129.657 62.4869 131.626 60.2703 131.626 59.9871C131.626 59.7039 129.657 57.4873 127.251 55.0606C123.719 51.4995 122.877 50.3383 122.877 49.0331C122.877 46.5929 125.31 44.335 127.251 44.9749C127.643 45.1039 128.153 45.2098 128.384 45.2098ZM264.03 49.3232C265.251 50.4313 265.3 53.1326 264.123 54.4367C262.186 56.584 258.581 55.0122 258.581 52.0202C258.581 48.8993 261.805 47.3033 264.03 49.3232ZM278.937 49.5086C281.059 51.6371 279.516 55.4195 276.527 55.4195C274.808 55.4195 273.045 53.6511 273.045 51.9267C273.045 50.2023 274.808 48.4339 276.527 48.4339C277.263 48.4339 278.348 48.9175 278.937 49.5086ZM293.281 49.2706C294.726 50.2856 294.885 52.9961 293.585 54.4367C291.648 56.584 288.044 55.0122 288.044 52.0202C288.044 48.9122 290.749 47.4914 293.281 49.2706ZM398.393 145.211C398.393 236.056 398.643 229.472 395.074 232.485C393.541 233.779 393.231 233.822 385.495 233.822H377.502V198.742V163.663L380.994 161.53C383.943 159.73 384.574 159.076 385.048 157.326C385.356 156.187 385.481 154.922 385.325 154.514C385.169 154.107 383.345 151.103 381.272 147.839C379.198 144.576 377.502 141.684 377.502 141.413C377.502 141.142 378.711 140.242 380.189 139.413C382.284 138.236 382.991 137.489 383.4 136.023C384.168 133.265 384.063 132.602 382.724 131.777C380.153 130.193 368.931 121.829 368.931 121.498C368.931 121.305 369.835 120.866 370.94 120.521C377.476 118.486 382.858 110.684 382.858 103.244C382.858 95.9131 376.916 86.7565 370.002 83.4341L367.056 82.0187H324.737H282.419L279.473 83.4292C273.264 86.4014 269.186 92.4907 268.841 99.3038C268.611 103.851 269.222 106.056 272.015 110.775C274.62 115.176 277.898 118.421 281.348 120.011L284.026 121.246L317.75 121.514L351.473 121.783L352.356 126.754L353.239 131.724H301.089H248.939V97.3333V62.9425H323.666H398.393V145.211ZM113.413 79.4431V85.1966L116.868 88.5782C120.268 91.906 120.37 91.9598 123.296 91.9598H126.269L126.264 116.006L126.259 140.053L124.991 142.74C123.436 146.033 120.91 148.51 117.619 149.968C115.165 151.055 114.39 151.071 64.6563 151.08L14.1848 151.089L11.4363 149.793C7.95385 148.151 6.11595 146.37 4.26572 142.849L2.79743 140.053L2.79636 112.648C2.79582 85.9699 2.82529 85.1789 3.91646 82.8247C6.09345 78.1266 9.70016 75.1325 14.3129 74.1942C15.344 73.9847 38.0637 73.7853 64.8004 73.7514L113.413 73.6897V79.4431ZM369.531 84.8538C372.492 86.3175 376.084 89.8044 377.682 92.7658C378.65 94.5616 378.841 95.7997 378.841 100.289C378.841 105.167 378.708 105.885 377.397 108.08C374.414 113.078 369.876 116.348 364.991 117.019C362.774 117.324 362.433 117.171 357.767 113.785C355.073 111.83 352.534 110.23 352.125 110.23C351.22 110.23 350.095 114.347 350.537 116.043L350.851 117.246L316.635 117.097L282.419 116.947L279.741 115.511C273.79 112.321 270.856 107.762 270.487 101.133C270.132 94.7277 272.163 90.4391 277.483 86.3691C281.412 83.3626 280.52 83.4153 325.541 83.5276L367.056 83.6307L369.531 84.8538ZM25.1817 99.0797C18.3406 105.978 14.2566 110.504 14.0241 111.445C13.2656 114.517 15.7147 117.884 26.5359 128.643C36.4599 138.511 36.7042 138.71 38.9192 138.71C43.5233 138.71 45.9414 133.505 43.2882 129.306C42.7278 128.419 39.2556 124.55 35.5717 120.708L28.8736 113.723L36.5922 105.891C44.066 98.307 44.3108 97.9873 44.3108 95.7981C44.3108 91.0479 42.0004 88.1983 38.1478 88.1983C36.0324 88.1983 35.6799 88.4938 25.1817 99.0797ZM70.32 89.4073C69.5668 90.072 66.3356 95.5735 63.1403 101.632C59.945 107.691 55.343 116.396 52.9143 120.977C50.485 125.558 48.3744 130.052 48.2233 130.964C47.8987 132.925 49.5834 136.601 51.3865 137.868C52.9652 138.977 56.0608 138.92 57.5714 137.753C58.7531 136.841 78.7939 99.5875 79.6815 96.6536C80.2836 94.6627 78.9053 90.6712 77.1322 89.2719C75.2546 87.7904 72.0808 87.8538 70.32 89.4073ZM86.9447 89.8517C85.4443 91.64 85.154 94.027 86.1198 96.6267C86.4294 97.4585 89.9745 101.458 93.9985 105.512L101.315 112.885L93.4366 120.9C85.9382 128.527 85.5579 129.017 85.5579 131.059C85.5579 135.686 88.0263 138.71 91.8017 138.71C93.6771 138.71 94.4292 138.083 104.2 128.366C109.922 122.676 114.945 117.227 115.362 116.255C115.964 114.858 115.999 114.018 115.529 112.225C115.027 110.308 113.276 108.292 104.116 99.0797L93.2962 88.1983H90.8139C88.6996 88.1983 88.1259 88.4433 86.9447 89.8517ZM76.5853 90.9915C77.7027 92.2876 77.8082 95.0651 76.7963 96.5418C76.1664 97.4618 63.7714 120.847 58.7826 130.527C56.8617 134.256 55.5107 135.486 53.3369 135.486C51.6983 135.486 49.6675 133.316 49.6675 131.566C49.6675 130.427 69.0151 92.9732 70.5064 91.2247C72.3298 89.086 74.8593 88.9893 76.5853 90.9915ZM103.369 100.444C112.717 109.792 113.413 110.623 113.413 112.437C113.413 114.255 112.711 115.084 102.953 124.801C97.2008 130.53 92.1194 135.299 91.6619 135.399C88.7515 136.035 86.1578 133.063 87.1927 130.276C87.5008 129.447 91.4144 125.081 95.8894 120.574L104.026 112.379L95.5059 103.82C88.27 96.5504 86.9865 95.0168 86.9865 93.639C86.9865 90.8088 89.4506 88.9683 91.986 89.9049C92.7225 90.1768 97.8452 94.9195 103.369 100.444ZM40.9772 90.647C41.8354 91.2494 42.1681 92.0275 42.1681 93.43C42.1681 95.2237 41.5086 96.0426 33.7783 103.853C26.2044 111.504 25.4619 112.418 26.1449 113.25C26.5611 113.757 30.336 117.601 34.5347 121.792C41.312 128.558 42.1681 129.614 42.1681 131.206C42.1681 133.543 40.3773 135.486 38.2233 135.486C36.8429 135.486 35.1448 134.026 26.5606 125.458C21.0351 119.943 16.2268 114.735 15.876 113.885C15.4731 112.909 15.4131 111.953 15.7131 111.288C15.974 110.71 20.7453 105.64 26.3152 100.023C35.1491 91.1145 36.6559 89.8103 38.1146 89.8103C39.0343 89.8103 40.3226 90.187 40.9772 90.647ZM367.431 122.645C374.885 127.995 381.177 132.554 381.414 132.776C381.65 132.997 380.139 134.212 378.055 135.474C375.972 136.738 374.14 137.977 373.985 138.228C373.83 138.48 375.975 142.285 378.751 146.684L383.8 154.682L380.9 156.446C377.483 158.523 378.454 159.326 372.322 149.349C370.015 145.596 367.82 142.513 367.444 142.498C367.069 142.483 365.185 143.471 363.257 144.692C361.329 145.913 359.565 146.699 359.336 146.438C359.108 146.177 357.757 139.193 356.335 130.918C353.06 111.858 353.222 112.917 353.577 112.917C353.743 112.917 359.977 117.295 367.431 122.645ZM267.688 221.194C267.688 266.153 267.506 289.17 267.152 289.17C266.798 289.17 266.617 266.153 266.617 221.194C266.617 176.235 266.798 153.218 267.152 153.218C267.506 153.218 267.688 176.235 267.688 221.194ZM289.883 163.604C291.013 164.433 291.165 166.813 290.165 168.021C289.074 169.34 286.354 168.806 285.395 167.084C284.64 165.728 284.67 165.548 285.874 164.263C287.309 162.731 288.439 162.545 289.883 163.604ZM135.376 166.115C135.376 166.466 125.298 166.652 106.213 166.652C87.3492 166.652 76.9335 166.463 76.7192 166.115C76.5001 165.759 86.356 165.578 105.882 165.578C125.187 165.578 135.376 165.763 135.376 166.115ZM174.748 166.115C174.54 166.452 168.939 166.652 159.717 166.652C150.275 166.652 145.018 166.46 145.018 166.115C145.018 165.769 150.385 165.578 160.049 165.578C169.932 165.578 174.965 165.761 174.748 166.115ZM354.2 166.115C353.985 166.463 343.481 166.652 324.438 166.652C305.175 166.652 295.007 166.467 295.007 166.115C295.007 165.763 305.285 165.578 324.769 165.578C344.474 165.578 354.419 165.759 354.2 166.115ZM179.576 183.107C178.554 185.562 178.537 189.244 179.537 191.645C179.961 192.664 180.104 193.623 179.855 193.778C179.246 194.155 177.694 189.473 177.694 187.256C177.694 185.239 179.172 181.161 179.902 181.161C180.169 181.161 180.022 182.037 179.576 183.107ZM218.812 182.434C220.336 185.789 219.819 192.779 218.002 193.386C217.538 193.542 217.58 193.063 218.148 191.698C219.164 189.258 219.16 185.95 218.138 183.496C217.203 181.25 217.189 181.161 217.784 181.161C218.031 181.161 218.494 181.734 218.812 182.434ZM127.341 187.609C127.341 187.948 123.68 188.147 117.431 188.147C111.181 188.147 107.521 187.948 107.521 187.609C107.521 187.27 111.181 187.072 117.431 187.072C123.68 187.072 127.341 187.27 127.341 187.609ZM173.677 187.609C173.467 187.95 166.708 188.147 155.164 188.147C143.4 188.147 136.983 187.957 136.983 187.609C136.983 187.262 143.511 187.072 155.495 187.072C167.701 187.072 173.895 187.255 173.677 187.609ZM214.924 187.609C214.715 187.947 208.858 188.147 199.121 188.147C189.385 188.147 183.527 187.947 183.319 187.609C183.101 187.256 188.502 187.072 199.121 187.072C209.741 187.072 215.142 187.256 214.924 187.609ZM244.118 187.609C244.118 187.948 240.379 188.147 233.972 188.147C227.785 188.147 223.697 187.937 223.495 187.609C223.278 187.258 226.792 187.072 233.641 187.072C240.269 187.072 244.118 187.269 244.118 187.609ZM354.2 187.609C353.989 187.952 346.516 188.147 333.544 188.147C320.352 188.147 313.22 187.958 313.22 187.609C313.22 187.26 320.463 187.072 333.876 187.072C347.509 187.072 354.418 187.255 354.2 187.609ZM150.375 209.103C150.375 209.453 142.875 209.641 128.948 209.641C115.02 209.641 107.521 209.453 107.521 209.103C107.521 208.754 115.02 208.566 128.948 208.566C142.875 208.566 150.375 208.754 150.375 209.103ZM190.015 209.103C190.015 209.449 184.658 209.641 175.016 209.641C165.374 209.641 160.017 209.449 160.017 209.103C160.017 208.758 165.374 208.566 175.016 208.566C184.658 208.566 190.015 208.758 190.015 209.103ZM244.118 209.103C244.118 209.453 236.261 209.641 221.62 209.641C206.978 209.641 199.121 209.453 199.121 209.103C199.121 208.754 206.978 208.566 221.62 208.566C236.261 208.566 244.118 208.754 244.118 209.103ZM354.467 209.103C354.467 209.452 347.236 209.641 333.844 209.641C320.452 209.641 313.22 209.452 313.22 209.103C313.22 208.755 320.452 208.566 333.844 208.566C347.236 208.566 354.467 208.755 354.467 209.103ZM290.514 228.896C291.744 231.385 289.861 233.724 287.172 233.046C283.769 232.19 284.7 227.134 288.198 227.476C289.339 227.588 290.097 228.052 290.514 228.896ZM209.835 230.019C209.835 230.317 199.118 230.588 183.185 230.692C152.691 230.892 141.268 230.716 141.268 230.05C141.268 229.79 156.518 229.569 175.552 229.551C196.333 229.532 209.835 229.716 209.835 230.019ZM354.206 230.071C354.417 230.413 344.076 230.598 324.769 230.598C305.422 230.598 295.007 230.411 295.007 230.064C295.007 229.337 353.758 229.344 354.206 230.071ZM196.268 248.879C195.773 250.822 195.683 252.39 195.995 253.675C196.249 254.726 196.587 256.31 196.745 257.197C197.017 258.719 196.968 258.691 195.871 256.695C194.395 254.01 194.307 250.221 195.65 247.234C196.936 244.371 197.223 245.135 196.268 248.879ZM247.704 247.833C248.055 248.846 248.357 250.576 248.374 251.678C248.406 253.808 246.984 258.003 246.23 258.003C245.982 258.003 246.129 257.164 246.556 256.139C247.58 253.682 247.544 249.225 246.484 247.169C245.833 245.906 245.802 245.579 246.35 245.759C246.743 245.888 247.352 246.821 247.704 247.833ZM190.312 251.603C190.492 251.894 180.512 252.092 165.642 252.092C150.518 252.092 140.79 251.896 140.975 251.596C141.379 250.941 189.909 250.947 190.312 251.603ZM243.882 251.606C244.059 251.893 235.046 252.092 221.888 252.092C206.615 252.092 199.702 251.916 199.938 251.534C200.373 250.827 243.445 250.897 243.882 251.606ZM354.229 251.602C354.409 251.894 346.165 252.092 333.844 252.092C320.521 252.092 313.272 251.905 313.48 251.567C313.9 250.887 353.809 250.921 354.229 251.602ZM128.008 269.953C127.199 272.721 127.423 275.687 128.658 278.557C129.315 280.084 128.108 279.63 127.407 278.085C126.223 275.477 126.092 272.25 127.053 269.347C128.244 265.751 129.081 266.282 128.008 269.953ZM232.348 268.884C233.783 272.056 233.566 276.215 231.825 278.944C230.894 280.403 230.605 279.047 231.474 277.299C232.53 275.174 232.559 271.093 231.53 269.287C230.745 267.91 230.496 266.601 231.02 266.601C231.182 266.601 231.779 267.629 232.348 268.884ZM290.53 271.918C291.236 273.345 290.798 275.133 289.548 275.923C288.329 276.695 286.183 275.926 285.386 274.431C284.774 273.285 284.803 272.902 285.589 271.698C286.79 269.86 289.574 269.983 290.53 271.918ZM228.182 273.201C228.066 273.566 165.5 273.828 164.436 273.467C164.085 273.349 219.514 272.712 225.905 272.761C227.231 272.772 228.256 272.969 228.182 273.201ZM110.905 273.451C104.664 273.537 94.2985 273.537 87.8709 273.451C81.4428 273.366 86.5489 273.296 99.2176 273.295C111.886 273.295 117.146 273.365 110.905 273.451ZM149.467 273.45C146.17 273.544 140.625 273.544 137.147 273.45C133.669 273.357 136.367 273.279 143.143 273.279C149.919 273.279 152.765 273.356 149.467 273.45ZM354.356 273.341C353.984 273.713 294.943 273.7 294.571 273.327C294.418 273.174 307.873 273.049 324.47 273.049C341.066 273.049 354.515 273.18 354.356 273.341ZM390.23 299.719C393.61 302.305 393.573 301.951 393.56 331.469C393.549 356.822 393.494 358.34 392.505 360.527C391.686 362.335 390.94 363.065 389.049 363.904C386.728 364.934 385.614 364.968 359.413 364.821C329.178 364.651 330.507 364.813 328.196 361.012C327.197 359.368 327.152 358.102 327.15 331.459C327.148 300.741 327.071 301.468 330.522 299.358C332.165 298.352 333.412 298.308 360.31 298.307L388.382 298.305L390.23 299.719ZM67.8039 303.275C68.4371 305.418 68.9546 307.352 68.9535 307.574C68.9524 307.796 56.3913 307.977 41.0394 307.977C16.988 307.977 13.1676 307.87 13.4226 307.205C13.5849 306.78 13.9899 305.42 14.322 304.182C14.6541 302.945 15.1437 301.358 15.4094 300.656L15.8931 299.379H41.2735H66.6533L67.8039 303.275ZM255.411 306.902H319.113V321.401V335.9L291.392 336.044C276.145 336.124 221.305 336.125 169.525 336.048L75.38 335.908L75.3832 333.63C75.3848 332.377 75.5391 329.387 75.725 326.987L76.0641 322.622L78.3659 322.677C79.6322 322.709 80.8177 322.583 81.0003 322.4C81.183 322.217 80.5321 318.957 79.554 315.157L77.775 308.246L74.1667 308.087C72.1825 308 70.5589 307.698 70.5589 307.418C70.5589 306.979 188.735 306.342 190.996 306.768C191.388 306.842 220.375 306.902 255.411 306.902ZM356.626 307.022C355.899 307.408 355.029 308.325 354.694 309.059C354.358 309.794 353.507 311.604 352.802 313.082L351.521 315.769H346.388C340.578 315.769 340.112 315.991 338.443 319.552C336.849 322.954 337.024 324.005 339.736 327.322C341.062 328.943 342.147 330.761 342.147 331.363C342.147 332.546 341.21 334.108 338.837 336.879C337.967 337.895 337.326 339.275 337.326 340.132C337.326 341.967 339.761 345.913 342.124 347.909C343.838 349.355 344.02 349.388 348.309 349.039L352.729 348.679L353.608 351.335C354.141 352.944 355.321 354.808 356.601 356.061C358.584 358.004 358.913 358.13 361.979 358.13C365.915 358.13 367.052 357.193 368.932 352.4C370.408 348.639 371.225 348.229 375.841 348.931C380.073 349.574 381.248 349.109 383.207 346.015C385.291 342.724 385.128 340.91 382.43 337.402C381.128 335.71 380.18 333.895 380.18 333.097C380.18 332.306 381.065 330.593 382.254 329.085C383.395 327.637 384.496 325.922 384.701 325.273C385.522 322.681 380.145 315.386 377.424 315.4C376.73 315.403 374.677 315.58 372.862 315.792L369.56 316.178L368.577 313.399C368.015 311.814 366.739 309.784 365.604 308.673C363.923 307.026 363.178 306.694 360.783 306.522C359.097 306.401 357.414 306.604 356.626 307.022ZM78.0723 315.634L79.5535 321.411H41.2413H2.92974L3.27633 319.665C3.46649 318.704 4.12644 316.042 4.74194 313.75L5.8615 309.582L41.2263 309.72L76.5906 309.858L78.0723 315.634ZM365.019 310.396C365.65 310.839 366.559 312.388 367.039 313.839C367.52 315.289 368.523 317.136 369.268 317.942C370.605 319.389 370.688 319.404 375.35 319.051C379.946 318.703 380.107 318.731 381.127 320.03C381.703 320.766 382.484 322.116 382.862 323.032C383.477 324.521 383.426 324.865 382.383 326.28C377.863 332.414 377.648 333.611 380.443 337.087C383.344 340.695 383.655 341.513 382.859 343.44C382.483 344.352 381.694 345.711 381.108 346.459C380.083 347.766 379.883 347.805 376.107 347.45C370.147 346.89 369.687 347.122 367.581 351.757C365.65 356.009 364.679 356.876 361.853 356.876C359.314 356.876 357.944 355.696 356.808 352.529C356.265 351.013 355.259 349.165 354.572 348.422C353.364 347.114 353.175 347.083 348.651 347.438C343.478 347.844 343.217 347.724 341.38 344.087C340.3 341.949 340.572 340.925 342.986 338.026C346.166 334.208 346.107 332.218 342.689 328.07C340.274 325.139 340.186 324.745 341.408 322.324C343.157 318.86 343.548 318.661 347.821 319.049C349.952 319.243 352.289 319.252 353.013 319.07C354.232 318.763 355.497 316.748 357.854 311.36C358.658 309.521 362.953 308.944 365.019 310.396ZM210.633 315.129C205.192 320.588 208.542 328.934 216.173 328.934C218.453 328.934 219.211 328.664 220.765 327.295C223.001 325.326 224.005 322.609 223.498 319.898C222.66 315.411 220.1 313.351 215.362 313.351C212.73 313.351 212.212 313.546 210.633 315.129ZM217.102 317.892C219.46 319.442 219.894 325.505 217.746 326.873C215.302 328.429 210.792 326.105 209.926 322.844C209.382 320.791 210.021 318.179 211.306 317.208C212.424 316.363 215.29 316.701 217.102 317.892ZM25.2942 324.378C35.8744 325.32 47.7171 326.342 62.7916 327.614C68.684 328.111 73.6326 328.672 73.7885 328.86C73.9444 329.048 73.8576 332.165 73.5951 335.785L73.1184 342.368H41.3153H9.51214L9.27537 341.159C9.00271 339.769 7.88261 326.083 7.88421 324.155C7.88475 322.694 6.12023 322.67 25.2942 324.378ZM357.424 325.295C356.252 325.978 354.749 327.5 354.086 328.676C351.625 333.033 353.132 338.668 357.424 341.17C359.117 342.156 360.171 342.374 362.537 342.229C366.123 342.008 368.483 340.517 370.014 337.508C372.068 333.469 370.839 328.221 367.237 325.648C364.69 323.828 360.217 323.668 357.424 325.295ZM365.428 326.336C368.121 327.566 368.554 333.131 366.191 336.145C363.286 339.849 356.663 340.165 355.077 336.673C354.216 334.778 354.321 331.314 355.297 329.421C356.949 326.217 361.882 324.715 365.428 326.336ZM175.533 356.205C175.512 376.052 175.091 380.328 172.622 385.741C169.746 392.045 166.403 396.641 164.692 396.641C162.576 396.641 159.897 398.408 159.096 400.332C158.26 402.341 158.507 405.942 159.57 407.227C160.043 407.798 155.774 407.914 136.111 407.864C113.503 407.807 112.36 407.759 116.895 407.056C119.547 406.645 125.774 405.314 130.735 404.098C138.519 402.191 140.204 401.584 143.047 399.667C149.208 395.515 152.33 389.133 151.847 381.678C151.701 379.416 151.41 377.157 151.201 376.658C150.913 375.97 151.318 375.495 152.875 374.692C163.951 368.978 160.249 352.642 147.867 352.589C145.869 352.581 143.288 353.254 138.648 354.996C131.917 357.521 130.834 357.765 130.287 356.876C130.105 356.581 129.244 356.339 128.375 356.339C126.902 356.339 126.278 356.794 124.539 359.134C124.103 359.721 121.955 360.435 118.558 361.123L113.257 362.196L112.225 360.88C110.827 359.097 108.481 359.121 107.059 360.933C106.469 361.687 105.909 362.529 105.816 362.804C105.722 363.079 103.209 363.463 100.232 363.658L94.8186 364.014L94.4587 362.576C93.7092 359.581 89.4522 359.372 87.9646 362.258C87.1542 363.83 87.054 363.862 82.9995 363.855C75.7673 363.842 75.6848 363.741 76.4396 355.814C76.7074 352.999 77.001 348.883 77.091 346.667C77.2468 342.839 77.1943 342.628 76.0496 342.465C75.0334 342.32 74.8443 341.962 74.8443 340.181V338.069H125.198H175.552L175.533 356.205ZM184.285 338.909C188.714 339.874 190.047 340.327 194.794 342.475C203.851 346.572 208.911 347.367 216.263 345.848C225.435 343.954 228.274 344.202 232.89 347.303C235.666 349.168 238.338 352.583 241.462 358.261C244.668 364.086 247.538 367.035 250.814 367.868C253.342 368.51 253.513 368.665 253.863 370.638C254.067 371.788 254.248 373.938 254.265 375.417C254.323 380.451 257.109 387.912 261.187 393.954L262.82 396.372L237.533 396.641C223.625 396.789 202.318 396.841 190.184 396.758L168.122 396.606L170.384 393.265C173.033 389.353 175.102 384.724 176.301 380.028C177.009 377.257 177.159 373.307 177.159 357.37V338.069H178.794C179.693 338.069 182.164 338.447 184.285 338.909ZM75.6618 346.532C75.5021 347.936 75.1256 352.349 74.825 356.339C74.5245 360.329 73.9256 368.188 73.4939 373.803C73.0621 379.419 72.7075 384.436 72.7054 384.953C72.7016 385.838 70.8434 385.894 41.2044 385.894H9.70712L9.0777 377.162C7.73797 358.579 6.80965 346.875 6.56216 345.458L6.3045 343.98H41.1283H75.9526L75.6618 346.532ZM151.714 354.671C154.208 355.829 156.494 358.119 157.304 360.27C158.009 362.14 158.043 366.032 157.372 367.805C156.169 370.978 149.509 370.825 144.959 367.519C141.551 365.043 137.349 363.285 134.011 362.939C131.72 362.702 131.103 362.454 131.331 361.859C131.493 361.435 131.626 360.645 131.626 360.105C131.626 359.369 132.597 358.785 135.51 357.77C137.646 357.025 141.081 355.8 143.143 355.046C147.611 353.412 148.884 353.357 151.714 354.671ZM129.925 358.892C130.523 360.062 129.26 363.325 128.21 363.325C127.805 363.325 126.708 363.478 125.771 363.666L124.067 364.008L125.547 360.98C126.695 358.634 127.3 357.951 128.237 357.951C128.902 357.951 129.662 358.375 129.925 358.892ZM111.18 362.069C111.72 363.036 110.567 366.501 109.469 367.212C108.798 367.647 105.378 367.776 105.378 367.367C105.378 367.225 106.031 365.775 106.829 364.143C107.945 361.859 108.557 361.175 109.481 361.175C110.141 361.175 110.906 361.577 111.18 362.069ZM92.955 363.149C93.0466 363.792 92.6197 365.303 92.0069 366.507C90.9853 368.516 90.7153 368.698 88.7612 368.698C87.5886 368.698 86.6292 368.57 86.6292 368.414C86.6292 368.258 87.3636 366.671 88.2609 364.888C89.7136 362.001 90.0511 361.664 91.341 361.814C92.3534 361.931 92.8393 362.333 92.955 363.149ZM122.808 363.285C122.133 364.593 121.478 364.963 118.91 365.482C117.213 365.824 114.92 366.3 113.815 366.539C111.605 367.015 111.507 366.891 112.57 364.964C113.158 363.9 114.104 363.474 117.507 362.741C123.775 361.391 123.784 361.392 122.808 363.285ZM139.779 366.123C143.393 367.805 147.055 371.394 148.826 374.99C149.904 377.178 150.096 378.376 150.1 382.962C150.108 389.383 149.46 390.763 145.653 392.442C142.504 393.83 136.254 394.328 133.484 393.411C132.363 393.04 129.907 391.3 128.026 389.544C126.145 387.789 123.594 385.893 122.357 385.329C117.941 383.318 110.883 384.363 107.595 387.515C106.706 388.367 104.6 390.902 102.914 393.149C100.993 395.71 98.9326 397.775 97.3909 398.684C95.1561 400.001 94.4683 400.128 89.8433 400.07C85.7448 400.018 83.7253 399.678 79.4656 398.323C76.5569 397.398 73.6642 396.637 73.0375 396.633C70.7834 396.616 70.5332 396.031 70.9039 391.637C71.199 388.13 71.3988 387.506 72.2259 387.506C73.6814 387.506 74.1276 386.149 74.5245 380.52C74.7227 377.712 75.0222 374.206 75.1904 372.728L75.4957 370.042L88.6958 370.037C103.536 370.032 109.693 369.325 121.716 366.244C130.496 363.995 135.141 363.964 139.779 366.123ZM85.9794 365.747C86.0646 365.816 85.8305 366.54 85.4598 367.355L84.7865 368.839L80.2509 368.489C77.7563 368.296 75.628 368.052 75.5214 367.945C75.4148 367.838 75.4877 367.111 75.6837 366.329L76.0389 364.908L80.9323 365.264C83.6235 365.46 85.8948 365.677 85.9794 365.747ZM104.079 366.471C103.406 367.776 102.865 368.056 100.449 368.347C98.8882 368.535 96.4594 368.691 95.0522 368.693L92.4943 368.698L93.3112 367.113C94.1764 365.434 94.3071 365.405 102.58 365.038L104.87 364.937L104.079 366.471ZM59.3097 390.128C62.6979 390.742 66.3458 391.495 67.4166 391.801L69.3627 392.358L69.0965 395.977C68.9503 397.968 68.6771 401.41 68.4896 403.626L68.1484 407.657L41.2306 407.796C26.4261 407.873 14.2952 407.873 14.2732 407.796C14.2513 407.719 13.9459 404.201 13.5945 399.978L12.9555 392.299L15.892 391.443C17.5071 390.972 21.6093 390.143 25.0077 389.601C33.481 388.25 50.3789 388.51 59.3097 390.128ZM240.502 398.783C268.04 398.79 268.787 398.818 269.831 399.865C270.545 400.581 270.902 401.656 270.902 403.089C270.902 404.522 270.545 405.597 269.831 406.313C268.774 407.373 268.045 407.388 215.499 407.388H162.237L161.127 405.972C159.714 404.17 159.713 402.01 161.123 400.212L162.229 398.801L186.166 398.647C199.331 398.562 210.585 398.556 211.174 398.634C211.763 398.712 224.961 398.779 240.502 398.783Z" fill="#141414"/>
</svg>
