<svg width="845" height="189" viewBox="0 0 845 189" fill="none" xmlns="http://www.w3.org/2000/svg">
<g clip-path="url(#clip0_106_17)">
<path d="M140.412 34.2169C126.773 20.5558 105.341 19.4536 90.4461 30.8849C89.113 31.8845 87.8312 33.0122 86.6263 34.2169L27.3546 93.4748C12.4854 108.315 -9.28005 83.9402 4.28169 70.4073L63.5534 11.1493C73.4747 1.20466 87.5492 -2.07606 100.214 1.25592C104.828 2.48619 109.263 4.5879 113.237 7.61231C114.673 8.66316 116.031 9.84217 117.339 11.1493L140.412 34.2169Z" fill="#1E1E1E"/>
<path d="M286.411 117.414L200.529 31.5513C200.221 31.2437 199.913 30.9361 199.58 30.6542C203.528 27.6554 207.963 25.5793 212.527 24.3491H212.578C225.242 20.9658 239.317 24.2978 249.238 34.2168L244.906 29.8853C245.495 30.4235 246.11 30.9874 246.674 31.5513L282.873 67.7417C296.409 81.2746 297.614 102.522 286.411 117.414Z" fill="#1E1E1E"/>
<path d="M193.146 140.712L167.945 165.932L144.872 142.865L147 140.712C161.844 125.872 161.844 101.779 147 86.9134L144.847 84.786L167.92 61.7185L170.073 63.8458C170.073 63.8458 170.278 64.0509 170.355 64.1534L193.146 86.9134C194.453 88.2205 195.633 89.579 196.709 91.0143C207.887 105.931 206.682 127.179 193.146 140.712Z" fill="#1E1E1E"/>
<path d="M144.872 189L96.5726 140.712C83.0109 127.179 81.806 105.931 93.0091 91.0143C94.0859 89.5789 95.2652 88.2205 96.5726 86.9134L119.646 63.8458L121.773 61.7185L144.846 38.651L149.281 34.2169L172.354 11.1493C177.277 6.22825 183.199 2.92191 189.48 1.25592H189.505C202.195 -2.07606 216.244 1.20466 226.165 11.1493L249.238 34.2169C239.317 24.2978 225.242 20.9658 212.578 24.3491H212.527C207.963 25.5793 203.528 27.6554 199.58 30.6542C199.478 30.7311 199.375 30.808 199.273 30.8849C197.94 31.8845 196.658 32.9866 195.427 34.2169L167.919 61.7185L144.846 84.786L142.718 86.9134C127.849 101.779 127.849 125.872 142.718 140.712L167.945 165.932L144.872 189Z" fill="#8956F5"/>
</g>
<path d="M396.258 117.758H396.429C399.678 104.567 403.441 90.508 406.007 82.871L419.519 42.4299H455.266V146.57H430.636V103.005C430.636 90.3344 431.149 75.2341 431.662 62.7373H431.32C427.729 76.7962 422.768 93.9793 417.466 110.642L405.152 146.57H382.917L370.944 109.774C365.642 92.2436 361.366 76.6226 357.432 62.7373H357.261C357.432 75.4076 357.432 89.9873 357.432 103.005V146.57H334V42.4299H373.168L386.851 83.7389C389.074 90.8551 393.008 104.567 396.258 117.758Z" fill="#1E1E1E"/>
<path d="M514.882 149C481.529 149 461.86 125.568 461.86 94.1529C461.86 62.9108 482.898 40 514.882 40C547.379 40 567.732 62.9108 567.732 94.1529C567.732 125.568 548.234 149 514.882 149ZM514.882 126.61C533.867 126.61 543.274 113.592 543.274 93.9793C543.274 76.6226 533.696 62.5637 514.882 62.5637C496.067 62.5637 486.489 76.6226 486.489 93.9793C486.489 113.592 495.896 126.61 514.882 126.61Z" fill="#1E1E1E"/>
<path d="M574.522 146.57V42.4299H599.151V87.3838H600.519L636.608 42.4299H664.829V42.7771L619.162 95.8885L666.027 146.223V146.57H636.779L600.519 107.518H599.151V146.57H574.522Z" fill="#1E1E1E"/>
<path d="M728.721 125.221H687.501L679.976 146.57H654.491L694.172 42.4299H722.906L762.587 146.57H736.076L728.721 125.221ZM708.881 67.0764H707.684C705.118 75.4076 702.21 83.9124 699.132 92.4172L694.685 105.088H721.709L717.262 92.4172C714.354 84.086 711.446 75.4076 708.881 67.0764Z" fill="#1E1E1E"/>
<path d="M806.003 115.154H788.729V146.57H764.099V42.4299H805.148C831.659 42.4299 845 54.5796 845 78.7054C845 99.0127 830.804 115.154 806.003 115.154ZM802.925 64.6465H788.729V92.9379H803.267C814.042 92.9379 819.344 88.2516 819.344 78.7054C819.344 69.3328 813.871 64.6465 802.925 64.6465Z" fill="#1E1E1E"/>
<defs>
<clipPath id="clip0_106_17">
<rect width="294" height="189" fill="white"/>
</clipPath>
</defs>
</svg>
