<svg width="294" height="189" viewBox="0 0 294 189" fill="none" xmlns="http://www.w3.org/2000/svg">
<g clip-path="url(#clip0_97_4)">
<path d="M140.411 34.2169C126.773 20.5558 105.34 19.4536 90.4457 30.8849C89.1126 31.8845 87.8307 33.0122 86.6258 34.2169L27.3541 93.4748C12.4849 108.315 -9.28054 83.9402 4.2812 70.4073L63.5529 11.1493C73.4743 1.20466 87.5487 -2.07606 100.213 1.25592C104.828 2.48619 109.263 4.58789 113.237 7.61231C114.672 8.66316 116.031 9.84217 117.338 11.1493L140.411 34.2169Z" fill="#1E1E1E"/>
<path d="M286.412 117.414L200.529 31.5513C200.221 31.2437 199.914 30.9361 199.581 30.6542C203.529 27.6554 207.964 25.5793 212.527 24.3491H212.578C225.243 20.9658 239.317 24.2978 249.239 34.2168L244.906 29.8853C245.496 30.4235 246.111 30.9874 246.675 31.5513L282.874 67.7417C296.41 81.2746 297.615 102.522 286.412 117.414Z" fill="#1E1E1E"/>
<path d="M193.146 140.712L167.945 165.932L144.872 142.865L147 140.712C161.844 125.872 161.844 101.779 147 86.9134L144.847 84.786L167.92 61.7185L170.073 63.8458C170.073 63.8458 170.278 64.0509 170.355 64.1534L193.146 86.9134C194.453 88.2205 195.633 89.579 196.709 91.0143C207.887 105.931 206.682 127.179 193.146 140.712Z" fill="#1E1E1E"/>
<path d="M144.872 189L96.5731 140.712C83.0114 127.179 81.8065 105.931 93.0096 91.0143C94.0864 89.5789 95.2656 88.2205 96.5731 86.9134L119.646 63.8458L121.774 61.7185L144.847 38.651L149.282 34.2169L172.355 11.1493C177.277 6.22825 183.199 2.92191 189.48 1.25592H189.506C202.196 -2.07606 216.245 1.20466 226.166 11.1493L249.239 34.2169C239.317 24.2978 225.243 20.9658 212.579 24.3491H212.527C207.964 25.5793 203.529 27.6554 199.581 30.6542C199.478 30.7311 199.376 30.808 199.273 30.8849C197.94 31.8845 196.658 32.9866 195.428 34.2169L167.92 61.7185L144.847 84.786L142.719 86.9134C127.85 101.779 127.85 125.872 142.719 140.712L167.945 165.932L144.872 189Z" fill="#8956F5"/>
</g>
<defs>
<clipPath id="clip0_97_4">
<rect width="294" height="189" fill="white"/>
</clipPath>
</defs>
</svg>
