<svg width="271" height="64" viewBox="0 0 271 64" fill="none" xmlns="http://www.w3.org/2000/svg">
<mask id="mask0_42_90" style="mask-type:alpha" maskUnits="userSpaceOnUse" x="0" y="0" width="64" height="64">
<path d="M0 2C0 0.895431 0.895431 0 2 0H62C63.1046 0 64 0.895431 64 2V62C64 63.1046 63.1046 64 62 64H2C0.895431 64 0 63.1046 0 62V2Z" fill="#FFFFFF"/>
</mask>
<g mask="url(#mask0_42_90)">
<path d="M57.2834 58.2272C56.5044 59.0201 55.2284 59.0257 54.4425 58.2398L50.9693 54.7666C49.8745 53.6718 48.0026 54.4472 48.0026 55.9954V55.9954C48.0026 56.9552 47.2245 57.7332 46.2648 57.7332H44.6693C43.5647 57.7332 42.6693 56.8378 42.6693 55.7332V44.6666C42.6693 43.562 43.5647 42.6666 44.6693 42.6666H55.7359C56.8405 42.6666 57.7359 43.562 57.7359 44.6666V46.2426C57.7359 47.2131 56.9491 47.9999 55.9786 47.9999V47.9999C54.4129 47.9999 53.6289 49.8928 54.7359 50.9999L58.2008 54.4648C58.977 55.241 58.9826 56.4977 58.2133 57.2807L57.2834 58.2272ZM32.0026 58.6666C28.3137 58.6666 24.847 57.9666 21.6026 56.5666C18.3582 55.1666 15.5359 53.2666 13.1359 50.8666C10.7359 48.4666 8.83594 45.6444 7.43594 42.3999C6.03594 39.1555 5.33594 35.6888 5.33594 31.9999C5.33594 28.311 6.03594 24.8444 7.43594 21.5999C8.83594 18.3555 10.7359 15.5333 13.1359 13.1333C15.5359 10.7333 18.3582 8.83325 21.6026 7.43325C24.847 6.03325 28.3137 5.33325 32.0026 5.33325C35.6915 5.33325 39.1582 6.03325 42.4026 7.43325C45.647 8.83325 48.4693 10.7333 50.8693 13.1333C53.2693 15.5333 55.1693 18.3555 56.5693 21.5999C57.9693 24.8444 58.6693 28.311 58.6693 31.9999C58.6693 32.8888 58.6248 33.7777 58.5359 34.6666C58.5009 35.0167 58.459 35.3668 58.4102 35.717C58.2786 36.6612 57.4497 37.3333 56.4963 37.3333H55.2308C53.9297 37.3333 52.9793 36.1085 53.1497 34.8186C53.1564 34.7679 53.1629 34.7172 53.1693 34.6666C53.2804 33.7777 53.3359 32.8888 53.3359 31.9999C53.3359 31.111 53.2804 30.2221 53.1693 29.3333C53.1218 28.9532 53.0641 28.5732 52.9963 28.1932C52.8351 27.2897 52.0255 26.6666 51.1077 26.6666H45.925C44.7022 26.6666 43.77 27.7544 43.8737 28.9727C43.884 29.0929 43.8936 29.2131 43.9026 29.3333C43.9693 30.2221 44.0026 31.111 44.0026 31.9999C44.0026 32.8888 43.9693 33.7777 43.9026 34.6666C43.8787 34.9859 43.8504 35.3052 43.8179 35.6245C43.7174 36.6094 42.8702 37.3333 41.8802 37.3333H40.5916C39.3689 37.3333 38.4367 36.2455 38.5404 35.0272C38.5506 34.907 38.5603 34.7868 38.5693 34.6666C38.6359 33.7777 38.6693 32.8888 38.6693 31.9999C38.6693 31.111 38.6359 30.2221 38.5693 29.3333C38.5453 29.0139 38.5171 28.6946 38.4845 28.3753C38.3841 27.3904 37.5369 26.6666 36.5469 26.6666H27.4583C26.4683 26.6666 25.6211 27.3904 25.5207 28.3753C25.4881 28.6946 25.4599 29.0139 25.4359 29.3333C25.3693 30.2221 25.3359 31.111 25.3359 31.9999C25.3359 32.8888 25.3693 33.7777 25.4359 34.6666C25.4599 34.9859 25.4881 35.3052 25.5207 35.6245C25.6211 36.6094 26.4683 37.3333 27.4583 37.3333H32.6693C33.7738 37.3333 34.6693 38.2287 34.6693 39.3333V40.6666C34.6693 41.7712 33.7738 42.6666 32.6693 42.6666H29.5705C28.2469 42.6666 27.2877 43.9309 27.7413 45.1743C28.1139 46.1957 28.5343 47.1931 29.0026 48.1666C29.7009 49.6182 30.5055 51.0167 31.4165 52.362C31.7765 52.8937 32.3834 53.2062 33.0248 53.1754C33.573 53.1492 34.1211 53.1018 34.6693 53.0333C34.826 53.0137 34.9826 52.9944 35.1393 52.9755C36.3141 52.8339 37.3359 53.76 37.3359 54.9432V56.3899C37.3359 57.4174 36.5571 58.2758 35.5365 58.395C35.2474 58.4288 34.9584 58.4638 34.6693 58.4999C33.7804 58.611 32.8915 58.6666 32.0026 58.6666ZM11.0089 35.8066C11.1701 36.7101 11.9798 37.3333 12.8975 37.3333H18.0802C19.303 37.3333 20.2352 36.2455 20.1315 35.0272C20.1212 34.907 20.1116 34.7868 20.1026 34.6666C20.0359 33.7777 20.0026 32.8888 20.0026 31.9999C20.0026 31.111 20.0359 30.2221 20.1026 29.3333C20.1116 29.2131 20.1212 29.0929 20.1315 28.9727C20.2352 27.7544 19.303 26.6666 18.0802 26.6666H12.8975C11.9798 26.6666 11.1701 27.2897 11.0089 28.1932C10.9411 28.5732 10.8834 28.9532 10.8359 29.3333C10.7248 30.2221 10.6693 31.111 10.6693 31.9999C10.6693 32.8888 10.7248 33.7777 10.8359 34.6666C10.8834 35.0466 10.9411 35.4266 11.0089 35.8066ZM15.5285 18.4897C14.5691 19.6863 15.5068 21.3333 17.0406 21.3333H19.8974C20.8199 21.3333 21.6177 20.7008 21.8701 19.8135C22.1889 18.6931 22.5553 17.5886 22.9693 16.4999C22.9856 16.457 23.002 16.4141 23.0184 16.3713C23.6636 14.6919 22.117 13.0013 20.5942 13.9591C19.8564 14.4232 19.1481 14.9368 18.4693 15.4999C17.3869 16.3978 16.4067 17.3944 15.5285 18.4897ZM20.5942 50.0407C22.117 50.9986 23.6636 49.3079 23.0184 47.6285C23.002 47.5857 22.9856 47.5428 22.9693 47.4999C22.5553 46.4113 22.1889 45.3067 21.8701 44.1863C21.6177 43.2991 20.8199 42.6666 19.8974 42.6666H17.0406C15.5068 42.6666 14.5691 44.3135 15.5285 45.5102C16.4067 46.6055 17.3869 47.602 18.4693 48.4999C19.1481 49.0631 19.8564 49.5767 20.5942 50.0407ZM27.7413 18.8255C27.2877 20.069 28.2469 21.3333 29.5705 21.3333H34.4347C35.7584 21.3333 36.7175 20.069 36.2639 18.8255C35.8913 17.8042 35.4709 16.8067 35.0026 15.8333C34.5553 14.9034 34.0644 13.9953 33.5298 13.109C32.8255 11.9415 31.1797 11.9415 30.4754 13.109C29.9408 13.9953 29.4499 14.9034 29.0026 15.8333C28.5343 16.8067 28.1139 17.8042 27.7413 18.8255ZM42.1351 19.8135C42.3875 20.7008 43.1853 21.3333 44.1078 21.3333H46.9646C48.4984 21.3333 49.4361 19.6863 48.4767 18.4897C47.5985 17.3944 46.6183 16.3978 45.5359 15.4999C44.8571 14.9368 44.1488 14.4232 43.411 13.9591C41.8882 13.0013 40.3416 14.6919 40.9868 16.3713C41.0032 16.4141 41.0196 16.457 41.0359 16.4999C41.4499 17.5886 41.8163 18.6931 42.1351 19.8135Z" fill="#FFFFFF"/>
</g>
<path d="M241.078 48.8V15.2H255.622C258.63 15.2 261.222 15.696 263.398 16.688C265.574 17.648 267.254 19.04 268.438 20.864C269.622 22.688 270.214 24.864 270.214 27.392C270.214 29.888 269.622 32.048 268.438 33.872C267.254 35.696 265.574 37.104 263.398 38.096C261.222 39.056 258.63 39.536 255.622 39.536H245.398L248.854 36.032V48.8H241.078ZM248.854 36.896L245.398 33.2H255.19C257.59 33.2 259.382 32.688 260.566 31.664C261.75 30.64 262.342 29.216 262.342 27.392C262.342 25.536 261.75 24.096 260.566 23.072C259.382 22.048 257.59 21.536 255.19 21.536H245.398L248.854 17.84V36.896Z" fill="#FFFFFF"/>
<path d="M199.914 48.8L214.89 15.2H222.57L237.594 48.8H229.434L217.146 19.136H220.218L207.882 48.8H199.914ZM207.402 41.6L209.466 35.696H226.746L228.858 41.6H207.402Z" fill="#FFFFFF"/>
<path d="M177.304 41.12L176.872 32.144L192.952 15.2H201.592L187.096 30.8L182.776 35.408L177.304 41.12ZM170.344 48.8V15.2H178.072V48.8H170.344ZM193.336 48.8L181.384 34.16L186.472 28.64L202.408 48.8H193.336Z" fill="#FFFFFF"/>
<path d="M146.166 49.376C143.51 49.376 141.046 48.944 138.774 48.08C136.534 47.216 134.582 46 132.918 44.432C131.286 42.864 130.006 41.024 129.078 38.912C128.182 36.8 127.734 34.496 127.734 32C127.734 29.504 128.182 27.2 129.078 25.088C130.006 22.976 131.302 21.136 132.966 19.568C134.63 18 136.582 16.784 138.822 15.92C141.062 15.056 143.494 14.624 146.118 14.624C148.774 14.624 151.206 15.056 153.414 15.92C155.654 16.784 157.59 18 159.222 19.568C160.886 21.136 162.182 22.976 163.11 25.088C164.038 27.168 164.502 29.472 164.502 32C164.502 34.496 164.038 36.816 163.11 38.96C162.182 41.072 160.886 42.912 159.222 44.48C157.59 46.016 155.654 47.216 153.414 48.08C151.206 48.944 148.79 49.376 146.166 49.376ZM146.118 42.752C147.622 42.752 148.998 42.496 150.246 41.984C151.526 41.472 152.646 40.736 153.606 39.776C154.566 38.816 155.302 37.68 155.814 36.368C156.358 35.056 156.63 33.6 156.63 32C156.63 30.4 156.358 28.944 155.814 27.632C155.302 26.32 154.566 25.184 153.606 24.224C152.678 23.264 151.574 22.528 150.294 22.016C149.014 21.504 147.622 21.248 146.118 21.248C144.614 21.248 143.222 21.504 141.942 22.016C140.694 22.528 139.59 23.264 138.63 24.224C137.67 25.184 136.918 26.32 136.374 27.632C135.862 28.944 135.606 30.4 135.606 32C135.606 33.568 135.862 35.024 136.374 36.368C136.918 37.68 137.654 38.816 138.582 39.776C139.542 40.736 140.662 41.472 141.942 41.984C143.222 42.496 144.614 42.752 146.118 42.752Z" fill="#FFFFFF"/>
<path d="M84 48.8V15.2H90.432L104.736 38.912H101.328L115.392 15.2H121.776L121.872 48.8H114.576L114.528 26.384H115.872L104.64 45.248H101.136L89.664 26.384H91.296V48.8H84Z" fill="#FFFFFF"/>
</svg>
