<svg width="400" height="445" viewBox="0 0 400 445" fill="none" xmlns="http://www.w3.org/2000/svg">
<rect width="400" height="445" fill="white"/>
<path fill-rule="evenodd" clip-rule="evenodd" d="M100.883 0.245767C97.6321 0.895542 94.9255 2.47833 92.4187 5.19572C91.1071 6.61745 88.621 8.69451 86.893 9.81079C81.4197 13.3479 77.7834 20.145 78.1742 26.1079C78.5004 31.0856 80.5657 34.6455 86.7204 40.8351L91.9761 46.121V52.0751V58.0297L89.3319 61.0292C87.8772 62.6792 85.9116 64.9945 84.963 66.1735C83.6854 67.7618 82.5347 68.5055 80.5262 69.0414C73.0644 71.0324 63.2065 77.2713 56.5675 84.2039C47.95 93.2025 34.285 112.515 28.5127 123.852C23.6305 133.441 22.7877 136.466 23.0399 143.503C23.2414 149.125 23.3639 149.631 25.6713 154.397C30.2679 163.892 43.9813 181.554 58.1741 196.258L63.7365 202.022L62.8252 218.751C62.3236 227.952 61.777 237.479 61.6094 239.923C61.4424 242.366 60.9386 249.864 60.491 256.584C59.5535 270.648 58.4502 284.307 57.1937 297.403C55.5454 314.585 54.6842 323.777 54.1242 330.169C53.8163 333.682 53.4161 337.431 53.2346 338.5C53.0537 339.569 52.5482 343.692 52.1117 347.663C51.6747 351.634 50.9433 358.132 50.4857 362.103C50.0281 366.074 49.4062 371.572 49.104 374.321C48.8022 377.07 48.3018 381.165 47.9928 383.422C47.5681 386.522 47.5965 387.722 48.1081 388.337C48.9191 389.313 53.0175 391.955 58.1529 394.814C61.2091 396.515 61.8159 397.076 61.4218 397.83C61.1557 398.34 60.3797 401.131 59.6977 404.033C57.1798 414.745 59.2964 420.157 69.6869 429.579C77.5646 436.723 86.1749 442.314 91.4194 443.692C92.1849 443.893 93.7364 444.334 94.867 444.672C96.5315 445.17 97.278 445.118 98.7928 444.401C104.703 441.604 103.724 437.809 93.9902 425.778C87.8154 418.145 85.3493 414.337 83.3709 409.38C81.8539 405.579 82.2703 402.238 85.3532 393.481C88.1572 385.515 92.5306 372.213 93.9346 367.379C94.3337 366.004 95.4582 362.131 96.433 358.771C97.4083 355.411 98.8306 350.287 99.5938 347.386C100.357 344.484 101.318 340.86 101.73 339.333C102.377 336.935 102.427 339.36 102.098 357.104C101.889 368.406 101.718 382.276 101.718 387.927V398.201L108.813 398.213C112.716 398.219 115.929 398.41 115.953 398.638C116.068 399.701 115.137 402.675 114.186 404.283C112.814 406.603 110.903 414.104 110.903 417.173C110.903 418.863 111.245 419.923 112.046 420.723C113.173 421.847 113.587 421.861 139.862 421.695C164.496 421.539 166.608 421.452 167.517 420.544C169.408 418.658 167.131 416.966 159.188 414.355C154.444 412.795 149.215 410.373 146.513 408.484C143.314 406.248 137.682 400.641 137.946 399.954C138.354 398.89 139.858 390.77 140.69 385.15C141.119 382.249 141.857 377.437 142.331 374.46C143.952 364.262 144.859 358.212 145.434 353.772C145.75 351.329 146.241 347.955 146.524 346.275C147.28 341.79 148.592 331.569 149.591 322.394C150.073 317.965 150.708 312.467 151.003 310.176C151.297 307.885 151.68 303.762 151.853 301.013C152.027 298.264 152.283 295.452 152.423 294.765L152.676 293.515H210.051C241.607 293.515 267.342 293.703 267.24 293.932C267.138 294.161 266.126 296.254 264.992 298.583C262.455 303.793 261.643 306.886 261.869 310.467C262.115 314.349 263.183 314.767 273.619 315.072C278.147 315.205 281.762 315.405 281.65 315.516C281.539 315.627 277.081 316.228 271.745 316.852C264.296 317.723 261.883 318.2 261.348 318.908C259.718 321.068 261.238 332.731 263.82 337.879C266.024 342.276 267.374 342.325 275.446 338.299C280.488 335.784 281.195 335.546 279.58 336.904C278.508 337.806 275.565 339.932 273.039 341.628C269.917 343.724 268.446 345.058 268.446 345.793C268.446 350.116 277.046 358.581 283.087 360.204C284.953 360.705 285.512 360.606 287.549 359.415C291.468 357.123 296.111 351.764 298.563 346.703C299.786 344.177 300.63 342.734 300.437 343.498C299.784 346.091 296.465 352.645 293.584 357.037C290.109 362.333 289.891 364.118 292.523 365.719C294.704 367.046 300.021 367.219 302.31 366.039C304.581 364.867 308.798 360.131 310.429 356.919C311.416 354.976 311.868 353.199 311.868 351.26C311.868 348.157 312.869 343.498 313.535 343.498C314.47 343.498 321.888 363.576 321.888 366.107C321.888 366.643 320.515 366.823 316.432 366.823C312.931 366.823 310.738 367.062 310.309 367.49C309.399 368.397 309.465 371.26 310.421 372.333C310.925 372.899 311.532 376.461 312.133 382.374C313.67 397.496 315.662 406.421 319.135 413.752C320.293 416.195 322.029 418.944 322.992 419.861L324.744 421.527L336.816 421.717C348.553 421.902 348.93 421.874 350.442 420.686C354.827 417.241 361.685 397.562 365.05 378.764C365.671 375.296 366.476 372.626 367.195 371.654C368.256 370.219 368.28 369.982 367.502 368.599L366.66 367.101L356.454 366.949L346.248 366.798L346.597 365.006C346.975 363.067 349.103 357.377 349.715 356.671C349.922 356.432 349.983 356.97 349.851 357.865C349.523 360.098 351.303 361.825 353.934 361.825C357.074 361.825 358.107 361.021 357.682 358.908L357.325 357.123L359.192 358.69C361.22 360.393 363.157 360.411 365.698 358.749C367.375 357.653 367.333 357.373 365.031 354.365C363.96 352.965 363.083 351.723 363.083 351.606C363.083 351.489 364.023 351.873 365.17 352.46C368.148 353.982 369.442 353.657 369.665 351.335C369.94 348.461 369.408 347.209 367.413 346.029L365.588 344.95L367.536 344.641C369.403 344.344 369.492 344.224 369.651 341.785C369.755 340.175 369.375 338.061 368.615 336.034C367.542 333.175 367.139 332.708 364.883 331.713C359.172 329.193 350.345 330.718 349.707 334.335C349.477 335.641 349.33 335.791 349.029 335.029C348.49 333.668 347.549 333.809 344.569 335.694C341.746 337.48 339.415 341.167 339.983 342.949C340.167 343.529 341.226 344.327 342.337 344.722L344.356 345.442L341.611 345.72C339.037 345.98 338.858 346.1 338.723 347.663C338.549 349.671 340.715 353.684 342.117 353.954C342.663 354.059 343.947 353.748 344.969 353.264C345.992 352.78 347.088 352.384 347.404 352.384C347.721 352.384 347.101 354.28 346.028 356.599C344.954 358.917 343.791 362.166 343.444 363.818L342.812 366.823H334.855C328.323 366.823 326.898 366.681 326.898 366.029C326.898 364.811 321.51 348.482 319.938 344.937C319.174 343.212 318.548 341.683 318.548 341.538C318.548 340.93 321.386 341.357 324.445 342.426C330.436 344.519 334.316 343.218 336.876 338.257C338 336.077 338.274 334.587 338.483 329.518L338.736 323.408L336.561 324.515C335.365 325.123 332.889 325.884 331.059 326.204C326.133 327.067 314.094 327.504 314.094 326.819C314.094 325.98 316.156 325.341 323.124 324.023C333.009 322.154 336.316 320.3 338.325 315.503C339.016 313.854 339.14 312.518 338.842 309.949C338.286 305.14 337.779 304.067 336.066 304.067C334.457 304.067 322.143 308.107 315.816 310.711C313.547 311.644 311.611 312.327 311.512 312.228C311.414 312.13 315.33 309.606 320.216 306.619C334.458 297.912 334.897 297.486 332.368 294.801L331.157 293.515L349.765 293.508C359.998 293.504 368.932 293.35 369.618 293.167C370.303 292.984 371.367 292.02 371.984 291.026C373.097 289.229 373.103 288.497 373.103 157.191V25.1638L371.21 23.2756L369.318 21.3873H247.626C164.344 21.3873 125.934 21.2063 125.934 20.8142C125.934 20.4988 126.31 19.3436 126.769 18.2473C128.827 13.3329 126.928 8.36518 122.222 6.35254C120.845 5.76386 119.036 5.2818 118.202 5.2818C117.369 5.2818 115.824 4.63258 114.769 3.83841C110.774 0.83112 105.186 -0.614491 100.883 0.245767ZM114.757 19.0415C116.363 20.0278 117.666 21.424 118.499 23.0534C120.104 26.1885 120.112 26.5467 118.558 26.1013C117.869 25.9036 116.867 25.6203 116.331 25.4709C115.702 25.296 115.357 25.5087 115.357 26.0707C115.357 26.5494 115.745 26.941 116.22 26.941C117.874 26.941 120.367 28.6187 120.367 29.7322C120.367 30.7102 119.98 30.8285 116.78 30.8285C113.705 30.8285 113.07 31.0046 112.327 32.0631L111.46 33.2971V32.0631C111.46 31.36 111.116 30.8285 110.66 30.8285C109.383 30.8285 110.2 34.6228 112.07 37.3701C112.959 38.6775 113.687 39.8993 113.687 40.0859C113.687 40.9744 111.502 41.9025 109.373 41.918C106.872 41.9369 106.188 42.7033 108.203 43.2292C109.843 43.6569 112.65 43.0693 113.826 42.0513C115.091 40.9567 115.06 39.4311 113.728 37.2807L112.655 35.5491H116.76H120.864L120.546 38.0482C119.986 42.4312 117.156 48.3941 114.194 51.4275C110.934 54.7669 108.367 55.9615 105.451 55.4961C103.906 55.2495 103.142 55.39 102.622 56.0154C101.439 57.4365 102.656 58.6722 108.218 61.6973C113.17 64.3902 113.416 64.6129 113.58 66.5334C113.674 67.6402 113.463 69.0847 113.109 69.7434C112.538 70.8069 112.115 70.9113 109.319 70.6808C104.561 70.2882 99.9663 68.2883 97.0036 65.3205C93.4486 61.7584 93.0472 60.0134 93.6028 50.5439C93.8538 46.2676 93.8705 42.269 93.6395 41.6581C93.4085 41.0472 91.9394 39.4716 90.374 38.1565C87.1519 35.4491 86.3486 33.5404 87.7715 31.9715C88.5653 31.0968 89.0196 31.0234 90.7358 31.4966C92.5261 31.9898 92.8785 31.912 93.7536 30.8335C94.2992 30.1621 95.0179 28.6015 95.3513 27.3653C96.6183 22.673 100.703 18.1535 104.354 17.4043C107.666 16.7251 112.129 17.4276 114.757 19.0415ZM342.055 23.0168L369.737 23.0534L370.589 24.3502C371.347 25.5048 371.442 40.1247 371.452 157.776L371.464 289.906L370.01 291.168L368.557 292.431L348.423 292.273L328.29 292.114L322.911 290.064C319.953 288.936 316.321 287.853 314.839 287.659L312.146 287.304L310.348 289.854C308.657 292.254 308.399 292.405 305.992 292.405H303.435L303.526 289.767C303.575 288.316 303.594 286.804 303.567 286.406C303.385 283.748 289.208 282.632 279.858 284.54L274.291 285.676L271.193 289.054L268.095 292.432L210.815 292.412C179.31 292.402 153.361 292.208 153.15 291.983C152.94 291.757 152.977 289.447 153.233 286.851C153.489 284.255 153.714 280.443 153.733 278.382L153.768 274.633H250.462H347.157L348.718 273.141L350.279 271.648V243.108V214.568L348.652 212.945L347.025 211.322H251.51H155.995L155.992 206.74C155.99 204.22 155.828 200.096 155.631 197.576L155.274 192.995H251.636H347.999L349.974 190.966L351.949 188.937V124.367C351.949 64.0498 351.886 59.6869 350.981 58.1152C350.449 57.19 349.435 56.1698 348.728 55.8487C347.844 55.4467 314.418 55.2645 241.479 55.2645H135.516L133.787 56.8756L132.058 58.4867V64.9878C132.058 70.8713 131.968 71.4545 131.114 71.1273C130.595 70.9291 128.904 70.3837 127.356 69.9167C122.629 68.4894 121.76 67.9035 118.204 63.7477C115.538 60.631 114.662 59.1487 114.28 57.1116C113.816 54.6275 113.887 54.3754 115.623 52.3516C120.467 46.7064 123.24 36.5643 121.954 29.198L121.33 25.6231L122.936 24.3419L124.542 23.0612L213.612 22.9185C262.601 22.8402 305.313 22.8218 308.527 22.8779C311.742 22.934 326.83 22.9962 342.055 23.0168ZM101.44 26.023C100.368 26.4073 99.021 26.9865 98.4459 27.3097C96.6178 28.3377 98.5601 28.8125 100.792 27.8834C101.914 27.4169 103.286 26.891 103.841 26.7144C104.396 26.5378 104.695 26.1418 104.504 25.8341C104.075 25.141 103.86 25.1544 101.44 26.023ZM333.832 26.6383C331.874 28.5904 331.925 32.0486 333.938 33.9097C337.16 36.8886 341.873 34.6422 341.911 30.1093C341.935 27.2842 339.975 25.2749 337.197 25.2749C335.817 25.2749 334.775 25.697 333.832 26.6383ZM346.71 26.9837C344.758 29.2979 344.822 31.5783 346.896 33.6481C349.885 36.6293 354.406 35.0559 355.085 30.798C355.341 29.193 355.119 28.491 353.903 27.0493C351.807 24.5629 348.775 24.5357 346.71 26.9837ZM359.994 26.7444C357.018 29.9488 359.119 35.2714 363.361 35.2714C367.613 35.2714 369.788 29.6922 366.726 26.6383C364.812 24.7278 361.824 24.7751 359.994 26.7444ZM339.449 27.749C341.073 29.3685 341.182 30.8096 339.808 32.5024C337.844 34.921 333.578 33.3349 333.578 30.1865C333.578 28.8897 335.963 26.3856 337.197 26.3856C337.684 26.3856 338.697 26.9993 339.449 27.749ZM351.977 27.2331C353.267 27.899 353.619 28.4543 353.619 29.8272C353.619 31.987 352.23 33.6053 350.376 33.6053C348.36 33.6053 346.939 32.0847 346.939 29.9272C346.939 28.491 347.275 27.9051 348.47 27.2586C350.37 26.2301 350.038 26.2329 351.977 27.2331ZM365.637 27.6757C366.935 28.7892 367.089 29.2385 366.766 30.959C365.963 35.2281 359.743 34.3845 359.743 30.0066C359.743 28.882 362.198 26.3856 363.305 26.3856C363.761 26.3856 364.811 26.966 365.637 27.6757ZM99.3433 31.1306C96.1285 32.4791 96.8009 34.9615 100.62 35.8434C104.662 36.777 108.677 35.5241 108.677 33.3277C108.677 32.5857 108.239 31.7515 107.703 31.4744C106.03 30.6097 101.072 30.4053 99.3433 31.1306ZM106.126 32.2763C107.677 32.8706 107.07 34.0252 105.001 34.4123C102.636 34.8549 102.497 34.7716 102.918 33.1644C103.238 31.9459 104.413 31.6205 106.126 32.2763ZM119.743 32.4413C120.904 33.1749 119.956 34.1607 118.088 34.1607C116.604 34.1607 116.493 34.0452 117.027 33.05C117.667 31.857 118.517 31.6666 119.743 32.4413ZM99.4146 33.3277C99.5905 33.7858 99.492 34.1607 99.1958 34.1607C98.8991 34.1607 98.6564 33.7858 98.6564 33.3277C98.6564 32.8695 98.7549 32.4946 98.8752 32.4946C98.9954 32.4946 99.2381 32.8695 99.4146 33.3277ZM113.687 33.3277C113.687 33.4804 113.562 33.6053 113.409 33.6053C113.256 33.6053 113.13 33.4804 113.13 33.3277C113.13 33.1749 113.256 33.05 113.409 33.05C113.562 33.05 113.687 33.1749 113.687 33.3277ZM101.193 43.7257C99.6317 45.9494 100.222 46.7402 101.996 44.802C103.894 42.7294 103.983 42.4911 102.863 42.4911C102.421 42.4911 101.67 43.0465 101.193 43.7257ZM110.903 45.8539C109.832 46.1132 107.674 46.1821 106.107 46.0072C104.385 45.8139 103.118 45.9166 102.901 46.2665C102.393 47.0868 109.336 47.7443 112.156 47.1423C113.408 46.8752 114.536 46.3443 114.663 45.9622C114.922 45.1808 113.812 45.1491 110.903 45.8539ZM108.526 49.7486C107.984 50.0707 107.688 50.5734 107.868 50.8649C108.049 51.1565 108.467 51.2281 108.798 51.0243C109.129 50.8205 109.989 50.6289 110.71 50.5989C111.432 50.5684 112.029 50.294 112.036 49.9886C112.058 49.2072 109.707 49.0467 108.526 49.7486ZM348.864 57.6248L350.294 58.8744L350.304 123.717C350.311 167.87 350.128 188.907 349.731 189.647C349.41 190.245 348.212 191.003 347.069 191.332C345.611 191.751 316.735 191.882 250.354 191.768L155.717 191.606L155.355 184.386C154.739 172.095 152.686 149.665 151.308 140.172L150.614 135.388L155.057 137.578C159.734 139.882 164.087 141.334 169.636 142.439C173.928 143.295 185.882 142.883 192.18 141.662C194.782 141.158 197.82 140.607 198.929 140.438L200.947 140.132L202.994 144.21C204.12 146.453 206.433 150.007 208.132 152.109L211.224 155.93L204.64 162.515L198.057 169.099L180.227 169.245C168.81 169.339 162.397 169.592 162.397 169.947C162.397 170.303 168.879 170.555 180.434 170.649L198.47 170.796L205.525 163.832L212.58 156.868L213.652 158.059C215.617 160.238 221.451 164.061 225.909 166.09C228.331 167.193 230.724 168.309 231.227 168.572C235.128 170.607 250.122 171.41 257.402 169.975C274.074 166.688 288.618 153.938 294.306 137.622C295.03 135.547 296.049 131.113 296.572 127.77C297.592 121.245 297.254 115.854 295.351 108.302C292.248 95.9854 282.932 84.2395 271.19 77.8378C264.54 74.2118 259.419 72.7212 249.936 71.6511L246.735 71.2901V82.0924V92.8948L250.493 93.4618C255.693 94.246 260.075 96.011 263.849 98.8416C277.762 109.275 279.251 128.876 267.056 141.043C254.691 153.378 233.479 151.441 224.158 137.125C222.362 134.367 222.332 134.222 222.999 131.614L223.684 128.935L229.225 127.996C240.179 126.139 244.567 124.237 249.533 119.194C252.364 116.318 253.358 114.889 253.667 113.248C253.995 111.503 253.887 110.98 253.107 110.528C252.575 110.22 251.509 109.28 250.738 108.441C249.47 107.06 248.968 106.913 245.54 106.913C243.453 106.913 239.975 107.217 237.81 107.586C232.315 108.527 231.983 108.242 231.983 102.604C231.983 98.9999 231.78 97.922 230.922 96.9762C228.494 94.2971 226.164 96.1137 225.302 101.36C224.797 104.428 223.253 107.551 220.702 110.662C218.815 112.963 218.683 113.022 215.416 113.022H212.065L212.378 109.994C212.982 104.161 217.701 96.1504 222.801 92.3017C227.743 88.5724 232.168 86.8258 238.524 86.0966L241.725 85.7295V74.5828V63.4356L236.73 63.8115C220.229 65.0545 206.218 73.6087 197.14 87.9843C192.523 95.2956 189.41 104.778 189.4 111.559L189.396 113.705L186.195 113.322C180.552 112.646 176.594 111.102 172.696 108.059C169.419 105.5 169.799 105.893 163.788 98.8605C150.636 83.4725 143.102 76.6232 135.815 73.431L133.171 72.2725V65.687C133.171 59.4353 133.24 59.0326 134.538 57.7387L135.904 56.3752H241.669H347.433L348.864 57.6248ZM93.9245 63.7521C96.0644 67.4647 100.297 70.3576 105.379 71.5811C107.433 72.0759 109.642 72.4808 110.287 72.4808C110.932 72.4808 111.46 72.639 111.46 72.8329C111.46 73.3477 106.979 82.1085 106.406 82.7144C105.724 83.4348 100.958 82.2574 97.0971 80.4141C91.3922 77.6906 86.814 73.9214 85.5347 70.8952C84.8082 69.1769 84.8416 68.8953 85.965 67.2853C88.4011 63.7921 91.0114 60.8187 91.6254 60.8365C91.9717 60.847 93.006 62.1588 93.9245 63.7521ZM119.125 67.0088C121.264 69.7517 121.514 70.3948 121.63 73.4415C121.701 75.3037 121.577 77.0092 121.355 77.2313C121.134 77.454 119.759 76.6632 118.3 75.4747C113.985 71.9576 113.526 71.3995 114.243 70.5381C114.589 70.1216 115.018 68.38 115.195 66.6683C115.393 64.759 115.755 63.6338 116.133 63.7582C116.471 63.8699 117.818 65.3327 119.125 67.0088ZM84.7815 72.4635C86.8206 75.7696 89.2434 77.7645 94.9472 80.834C100.128 83.6214 105.575 85.0564 107.36 84.1034C108.337 83.5814 108.897 83.6547 110.314 84.4899C112.329 85.6773 112.347 85.7395 113.101 93.8623C114.573 109.727 115.425 118.734 115.911 123.574C116.203 126.476 116.583 131.349 116.755 134.404C117.59 149.153 118.284 155.515 119.182 156.651C122.183 160.448 126.327 164.671 127.051 164.671C127.546 164.671 128.979 162.65 130.499 159.812L133.1 154.952L132.604 146.622C131.391 126.283 127.096 102.922 121.754 87.6055C119.68 81.662 119.703 79.9915 121.856 79.9826C122.75 79.9787 122.892 79.3917 123.033 75.1187C123.122 72.4463 123.301 70.2593 123.433 70.2593C123.565 70.2593 125.525 70.8624 127.788 71.5994C136.463 74.4245 143.248 78.8336 151.132 86.7708C154.096 89.7548 157.092 92.972 157.789 93.9195C158.486 94.8675 161.759 98.6789 165.062 102.39C174.764 113.289 178.013 114.627 196.077 115.165L208.045 115.521L209.709 118.845C211.211 121.845 211.372 122.686 211.362 127.453C211.355 130.36 211.107 133.155 210.811 133.666C210.314 134.523 210.078 134.505 207.767 133.442C204.107 131.759 201.422 131.887 196.896 133.959C193.884 135.338 191.502 135.921 186.262 136.562C181.148 137.187 178.596 137.8 175.747 139.089C171.229 141.133 169.137 141.201 163.727 139.486C158.417 137.803 155.077 136.083 154.298 134.631C153.405 132.967 153.97 127.196 155.403 123.347L156.625 120.065L155.008 116.96C154.119 115.253 152.739 112.606 151.941 111.079C151.143 109.551 150.07 107.088 149.556 105.605C148.57 102.761 145.791 99.1382 144.594 99.1382C144.203 99.1382 143.562 99.5264 143.167 100.001C142.411 100.91 142.574 102.183 144.588 111.079C145.072 113.217 145.852 117.09 146.321 119.687C146.79 122.283 147.41 125.657 147.699 127.184C149.843 138.513 151.748 154.404 152.91 170.641C153.161 174.147 153.071 175.227 152.529 175.243C152.139 175.254 149.315 175.631 146.253 176.08C138.004 177.291 119.686 178.141 109.233 177.798C98.5729 177.448 89.0129 176.159 77.411 173.507C74.8463 172.921 74.8073 172.878 74.2395 170.042C73.6617 167.155 73.2753 165.537 71.696 159.395C69.6658 151.498 71.1466 145.728 76.3416 141.295C77.9198 139.949 80.0163 137.602 81.0005 136.081C82.7897 133.317 82.7908 133.31 82.6477 126.688C82.4841 119.132 82.6177 118.775 87.094 114.751C89.9676 112.168 92.2528 108.434 91.754 107.137C91.5826 106.692 90.6868 106.358 89.662 106.358C88.111 106.358 86.996 107.239 81.4035 112.883C73.2352 121.127 60.4548 138.141 58.0928 143.917C56.99 146.613 58.3355 150.561 63.5583 159.951C65.9911 164.323 71.7795 173.366 73.5771 175.601C76.0215 178.64 78.6156 182.376 78.6156 182.857C78.6156 184.354 69.0735 191.936 63.4114 194.937L60.2706 196.602L58.7269 194.905C39.6353 173.915 29.817 161.013 26.2091 152.175C24.5657 148.151 24.3982 147.21 24.4282 142.179C24.4561 137.535 24.7144 135.943 26.0042 132.46C30.8023 119.506 47.2758 95.4689 59.995 82.8638C63.2444 79.6438 68.6609 75.8757 74.1621 73.0078C75.2065 72.4636 81.8823 69.9744 82.935 69.7367C83.0146 69.7184 83.8452 70.9457 84.7815 72.4635ZM117.936 77.0969C119.503 78.5209 119.62 78.8391 119.086 80.2486C118.677 81.3299 117.662 82.1907 115.811 83.0249C113.17 84.2161 113.096 84.2189 110.917 83.217C109.701 82.6572 108.699 82.0541 108.691 81.8759C108.683 81.6976 109.722 79.6327 111 77.2874L113.323 73.0228L114.757 74.2685C115.546 74.9532 116.976 76.2261 117.936 77.0969ZM258.662 74.4279C267.182 76.636 275.029 80.7257 279.21 85.1364L280.788 86.8019L274.339 93.2475C270.791 96.7929 267.75 99.6936 267.578 99.6936C267.407 99.6936 266.343 98.9671 265.212 98.0797C261.844 95.4339 257.785 93.6273 252.814 92.561L248.127 91.5558L247.974 82.2957L247.822 73.0361H250.557C252.062 73.0361 255.71 73.6626 258.662 74.4279ZM118.513 89.3027C121.152 91.3959 121.583 92.0484 122.622 95.5283C123.261 97.6665 124.027 100.011 124.323 100.737C124.62 101.464 124.757 102.164 124.628 102.292C124.499 102.421 122.257 100.827 119.644 98.7495C115.213 95.2262 114.87 94.8053 114.541 92.4738C114.347 91.0993 114.039 89.1222 113.858 88.0804C113.568 86.4104 113.65 86.2321 114.547 86.5753C115.107 86.7897 116.892 88.0171 118.513 89.3027ZM296.28 88.5863V90.2646L319.244 90.1197L342.207 89.9747V88.5863V87.1979L319.244 87.0529L296.28 86.908V88.5863ZM285.557 91.7808C289.198 96.4241 292.549 103.069 294.17 108.857C295.949 115.212 295.937 127.451 294.146 133.755C292.169 140.714 287.364 149.574 283.634 153.137L282.046 154.653L275.415 148.02L268.783 141.387L270.486 139.273C278.462 129.371 278.629 113.703 270.862 103.957C269.846 102.681 269.01 101.387 269.005 101.082C268.995 100.365 281.35 88.0704 282.085 88.0665C282.391 88.0648 283.954 89.7365 285.557 91.7808ZM230.315 102.921C229.994 106.327 230.086 107.16 230.876 108.031C232.368 109.676 234.79 109.884 240.336 108.842C245.357 107.9 249.519 108.036 249.519 109.144C249.519 109.708 245.047 111.07 241.31 111.644C239.003 112 237.927 112.674 238.804 113.215C239.045 113.363 241.115 113.116 243.406 112.664C250.466 111.273 252.302 111.142 252.302 112.028C252.302 112.922 247.484 114.472 242.987 115.026C240.27 115.36 238.316 116.461 239.332 117.084C239.777 117.357 248.376 115.672 250.214 114.951C250.782 114.729 251.189 114.823 251.189 115.177C251.189 115.937 248.386 117.121 243.841 118.283C241.917 118.775 240.107 119.412 239.819 119.7C238.721 120.795 240.181 120.961 243.033 120.064C244.664 119.551 246.453 119.131 247.009 119.131C247.881 119.131 247.837 119.291 246.681 120.304C243.683 122.932 234.764 126.018 228.331 126.653L224.679 127.013L224.899 125.135C225.167 122.842 223.336 117.441 221.457 114.984L220.073 113.174L221.73 111.59C223.647 109.758 226.694 103.977 226.694 102.172C226.694 101.494 227.085 100.009 227.561 98.8705C228.414 96.8335 228.445 96.8173 229.562 97.8259C230.584 98.7483 230.659 99.2559 230.315 102.921ZM305.323 106.167C302.889 107.16 307.163 107.469 323.359 107.469C337.596 107.469 341.415 107.32 341.233 106.774C341.055 106.241 336.937 106.057 323.512 105.981C313.893 105.927 305.708 106.011 305.323 106.167ZM122.047 111.92C126.535 115.545 127.611 116.704 127.847 118.168C128.782 123.962 129.329 128.703 129.089 128.942C128.824 129.206 125.301 126.549 119.705 121.868C116.891 119.512 116.912 119.577 116.201 111.217C116.026 109.155 116.03 107.469 116.21 107.469C116.391 107.469 119.017 109.472 122.047 111.92ZM233.375 112.552C233.375 114.867 236.279 123.493 236.97 123.229C237.451 123.044 237.167 121.361 235.946 117.165C234.342 111.651 233.375 109.916 233.375 112.552ZM218.54 115.938C220.975 119.157 221.684 121.683 221.684 127.134V132.225L217.123 133.716C214.615 134.537 212.478 135.123 212.374 135.02C212.27 134.916 212.476 133.078 212.83 130.935C213.378 127.621 213.33 126.385 212.504 122.668C211.97 120.265 211.061 117.635 210.485 116.824C209.909 116.013 209.437 115.213 209.437 115.045C209.437 114.878 211.003 114.653 212.916 114.544C214.83 114.436 216.571 114.299 216.785 114.24C216.999 114.181 217.789 114.946 218.54 115.938ZM304.907 116.914C304.716 117.221 304.891 117.6 305.296 117.755C305.701 117.91 313.901 117.971 323.517 117.89C336.904 117.777 341.056 117.58 341.233 117.049C341.531 116.157 305.458 116.023 304.907 116.914ZM304.909 127.462C304.682 127.828 310.841 128.017 322.968 128.017C334.867 128.017 341.372 127.821 341.372 127.462C341.372 127.103 334.981 126.906 323.313 126.906C311.873 126.906 305.127 127.11 304.909 127.462ZM129.467 141.482C130.989 142.72 131.064 143.01 131.361 148.818L131.671 154.865L129.021 152.967C127.563 151.922 124.683 149.651 122.62 147.919L118.869 144.769L118.508 140.142C117.839 131.56 117.436 131.901 123.011 136.326C125.691 138.453 128.596 140.773 129.467 141.482ZM220.937 134.986C221.165 135.579 219.145 137.902 214.414 142.489L207.562 149.132L205.906 146.592L204.25 144.053L207.748 140.532C210.567 137.694 211.853 136.832 214.377 136.085C216.1 135.576 218.01 134.944 218.622 134.68C220.24 133.984 220.568 134.028 220.937 134.986ZM224.578 140.096L225.524 141.698L218.846 148.325L212.169 154.952L210.54 153.008C209.644 151.939 208.904 150.819 208.895 150.518C208.887 150.217 211.813 147.038 215.396 143.453C222.492 136.356 222.392 136.393 224.578 140.096ZM305.327 137.236C302.942 138.316 306.301 138.569 323.001 138.569C334.877 138.569 341.372 138.372 341.372 138.014C341.372 137.658 336.313 137.457 327.316 137.454C319.584 137.452 311.631 137.331 309.641 137.186C307.651 137.04 305.71 137.062 305.327 137.236ZM207.767 138.265C207.767 138.402 206.842 139.412 205.711 140.508L203.654 142.5L202.966 141.229C202.148 139.72 202.409 139.388 204.984 138.662C207.338 138 207.767 137.938 207.767 138.265ZM230.851 145.933C231.32 146.307 218.609 159.673 217.784 159.673C217.619 159.673 216.528 158.886 215.36 157.926L213.235 156.178L220.084 149.328L226.934 142.478L228.624 143.99C229.553 144.822 230.555 145.696 230.851 145.933ZM270.52 145.354L272.368 147.142L261.088 158.405L249.807 169.669H246.044C243.975 169.669 242.282 169.484 242.282 169.257C242.282 168.641 267.516 143.567 268.136 143.567C268.431 143.567 269.503 144.371 270.52 145.354ZM235.743 148.225C237.196 148.8 238.385 149.429 238.385 149.621C238.385 149.813 235.26 153.081 231.44 156.883L224.494 163.795L221.976 162.574C220.591 161.903 219.458 161.041 219.458 160.66C219.458 159.923 232.326 146.797 232.814 147.036C232.972 147.114 234.29 147.649 235.743 148.225ZM250.812 158.221C244.776 164.231 239.542 169.036 239.182 168.899C238.822 168.761 237.368 168.475 235.951 168.263C234.534 168.05 233.375 167.721 233.375 167.53C233.375 167.34 237.192 163.369 241.857 158.708C248.424 152.147 250.665 150.232 251.779 150.232C253.313 150.232 257.734 148.858 260.039 147.664C260.808 147.267 261.516 147.02 261.612 147.117C261.709 147.213 256.849 152.21 250.812 158.221ZM162.119 149.121C162.119 149.48 168.614 149.676 180.489 149.676C192.365 149.676 198.86 149.48 198.86 149.121C198.86 148.762 192.365 148.566 180.489 148.566C168.614 148.566 162.119 148.762 162.119 149.121ZM275.235 150.058C276.094 150.879 276.796 151.819 276.796 152.148C276.796 152.477 273.477 156.046 269.42 160.08L262.044 167.415L257.972 168.264C255.732 168.731 253.605 169.114 253.246 169.114C252.886 169.114 257.221 164.491 262.879 158.84C268.537 153.189 273.281 148.566 273.42 148.566C273.56 148.566 274.376 149.237 275.235 150.058ZM246.161 150.589L247.953 150.946L239.975 158.92C235.588 163.305 231.713 166.893 231.365 166.893C231.017 166.893 229.541 166.367 228.084 165.723L225.435 164.554L232.598 157.393C239.473 150.519 239.853 150.232 242.065 150.232C243.332 150.232 245.175 150.393 246.161 150.589ZM280.036 154.846L281.243 156.128L277.489 158.942C267.041 166.773 264.863 166.988 272.333 159.451C275.542 156.213 278.317 153.564 278.499 153.564C278.68 153.564 279.372 154.141 280.036 154.846ZM162.119 159.673C162.119 160.032 168.614 160.228 180.489 160.228C192.365 160.228 198.86 160.032 198.86 159.673C198.86 159.314 192.365 159.117 180.489 159.117C168.614 159.117 162.119 159.314 162.119 159.673ZM86.4093 176.924C88.3994 177.227 91.0932 177.718 92.3953 178.014C93.6974 178.31 100.336 178.812 107.148 179.131C113.959 179.449 119.846 179.816 120.228 179.947C120.689 180.106 120.924 181.409 120.924 183.814V187.441H113.332C105.647 187.441 94.8225 186.405 86.6876 184.891C82.5865 184.128 82.0704 183.877 80.1705 181.725C79.0354 180.44 78.0957 179.239 78.0829 179.058C78.0695 178.877 77.4471 178.018 76.699 177.149C75.9508 176.28 75.4397 175.407 75.5628 175.208C75.6863 175.009 77.3631 175.19 79.2887 175.61C81.2148 176.029 84.4191 176.621 86.4093 176.924ZM153.768 180.726V184.563L150.011 185.188C144.603 186.086 137.972 186.783 137.485 186.505C137.255 186.372 137.068 184.66 137.068 182.698C137.068 179.445 137.177 179.109 138.32 178.88C140.523 178.435 150.383 177.11 152.516 176.971C153.702 176.894 153.768 177.093 153.768 180.726ZM135.676 183.276V187.163L129.135 187.32L122.594 187.476V183.617C122.594 181.055 122.828 179.661 123.29 179.469C123.673 179.31 126.616 179.227 129.831 179.284L135.676 179.388V183.276ZM83.6125 188.858L86.9531 193.051L84.8717 195.129C82.1111 197.887 78.1079 201.036 73.6589 203.952L70.0237 206.333L65.9966 202.344C63.7821 200.149 62.1026 198.139 62.2652 197.877C62.4272 197.616 64.9824 195.818 67.9434 193.882C70.9044 191.947 74.7049 189.092 76.3889 187.539C78.0729 185.985 79.6355 184.703 79.8615 184.689C80.0875 184.675 81.7754 186.551 83.6125 188.858ZM96.6746 198.45C94.7139 203.599 90.9646 208.18 86.1454 211.312C82.0933 213.946 77.3174 215.679 73.0771 216.054L69.987 216.328L73.6962 215.031C75.7364 214.318 78.0985 213.281 78.9457 212.727L80.4861 211.72L78.4525 209.861L76.4189 208.002L79.6049 205.666C81.3573 204.382 84.2371 201.961 86.0045 200.287L89.2183 197.244L91.1172 199.08C92.1615 200.09 93.3456 200.79 93.7486 200.634C94.1517 200.479 95.1075 199.086 95.8729 197.541C97.5363 194.181 98.0691 194.786 96.6746 198.45ZM347.799 213.796L349.166 215.159V243.208V271.258L347.947 272.39C346.792 273.464 346.038 273.523 333.334 273.531C325.967 273.536 282.739 273.541 237.271 273.543L154.603 273.548L154.457 271.73C154.377 270.73 154.502 267.541 154.735 264.643L155.16 259.374L158.029 258.963C163.616 258.163 166.775 256.527 172.068 251.692C174.807 249.19 177.071 246.955 177.099 246.726C177.239 245.565 175.562 246.719 171.331 250.695C166.329 255.396 162.839 257.187 157.439 257.825C155.106 258.1 154.744 258.019 155.027 257.286C155.21 256.811 155.54 246.524 155.761 234.428L156.164 212.432H251.298H346.433L347.799 213.796ZM325.516 227.741C324.684 228.829 322.634 232.641 320.962 236.21C315.267 248.361 314.168 250.474 311.918 253.607C309.99 256.29 306.081 259.579 303.884 260.366C303.529 260.493 303.407 260.777 303.611 260.998C304.289 261.728 308.209 259.438 310.802 256.798C313.557 253.992 316.188 249.298 320.998 238.608C322.682 234.864 324.949 230.566 326.036 229.057C327.122 227.548 328.012 226.189 328.012 226.038C328.012 225.207 326.845 226.003 325.516 227.741ZM117.656 229.787C119.066 233.124 118.292 246.574 115.905 260.194C115.61 261.874 114.879 266.247 114.281 269.912C113.194 276.567 112.227 282.077 110.671 290.461C110.218 292.905 109.574 296.403 109.238 298.236C108.191 303.965 105.608 316.773 104.757 320.451C100.579 338.518 97.8993 348.69 93.0528 364.88C88.2998 380.758 81.9708 399.76 81.1692 400.559C80.8056 400.922 73.6806 399.311 70.38 398.12L67.9901 397.258L70.8788 394.398C77.9437 387.401 79.6639 382.223 80.8669 364.324C81.6 353.421 82.6867 349.878 86.9158 344.609C90.9223 339.617 91.0275 338.937 88.636 333.502C87.5226 330.971 86.9698 328.811 86.9782 327.022C86.9899 324.432 88.4623 320.27 89.9871 318.517C91.5052 316.771 94.2029 311.294 94.2029 309.957C94.2029 309.021 93.5666 308.083 92.2545 307.084C90.61 305.833 90.3061 305.261 90.3061 303.419C90.3061 300.922 90.679 300.128 96.1329 291.016C102.164 280.94 105.517 272.478 108.454 259.916C109.957 253.493 112.449 240.333 113.45 233.536C113.897 230.503 115.118 227.982 116.139 227.982C116.553 227.982 117.235 228.794 117.656 229.787ZM264.828 230.138C260.767 232.668 257.962 236.8 254.179 245.826C251.359 252.555 249.02 256.915 247.143 258.942C246.508 259.628 246.181 260.377 246.416 260.608C247.553 261.721 251.669 255.006 255.398 245.951C259.063 237.054 262.411 232.333 266.154 230.786C267.895 230.067 268.495 229.092 267.193 229.095C266.811 229.097 265.746 229.566 264.828 230.138ZM275.683 230.31C275.683 230.716 276.169 231.35 276.763 231.721C278.502 232.804 280.555 236.814 283.146 244.188C284.478 247.977 286.205 252.332 286.984 253.865C288.577 257.001 292.186 260.539 294.344 261.079C296.649 261.656 296.569 260.918 294.194 259.71C289.753 257.45 287.486 253.767 284.062 243.255C283.067 240.201 281.511 236.396 280.606 234.801C278.925 231.842 275.683 228.884 275.683 230.31ZM215.951 241.816C214.87 243.01 212.446 246.999 210.565 250.68C208.609 254.507 206.423 257.979 205.461 258.786C204.536 259.563 203.878 260.494 203.999 260.856C204.5 262.358 208.85 256.749 212.086 250.426C213.948 246.787 216.243 243.076 217.186 242.179C218.129 241.282 218.901 240.345 218.901 240.097C218.901 239.119 217.828 239.744 215.951 241.816ZM227.691 241.541C228.609 242.584 230.137 245.521 231.086 248.067C233.496 254.531 236.101 259.569 237.389 260.256C239.218 261.233 239.199 260.321 237.352 258.436C236.39 257.455 235.09 255.262 234.464 253.564C231.206 244.725 230.357 242.786 229.091 241.283C228.331 240.383 227.33 239.645 226.866 239.645C226.274 239.645 226.52 240.21 227.691 241.541ZM184.386 246.768C184.386 247.02 185.036 247.832 185.83 248.573C186.624 249.313 188.296 251.669 189.546 253.807C192.099 258.177 195.558 261.998 195.94 260.87C196.073 260.478 195.532 259.649 194.739 259.026C193.946 258.404 192.25 256.1 190.971 253.907C187.953 248.73 184.386 244.863 184.386 246.768ZM152.384 270.938C152.584 272.818 152.477 277.479 152.146 281.297C150.547 299.728 149.845 307.186 149.035 314.342C148.552 318.618 147.917 324.308 147.625 326.986C147.01 332.64 146.229 338.276 143.148 359.326C141.893 367.895 140.893 374.369 139.588 382.374C139.115 385.275 138.571 388.712 138.379 390.01C138.06 392.169 137.844 392.426 135.861 393.019C133.193 393.817 132.813 393.495 131.758 389.537C130.346 384.246 131.001 378.502 134.622 364.429C136.43 357.406 136.198 355.59 132.776 349.97C131.069 347.169 130.773 346.2 130.814 343.557C130.842 341.714 131.417 338.97 132.224 336.834C139.23 318.263 140.198 315.343 141.798 307.955C142.294 305.664 142.919 302.915 143.186 301.846C143.454 300.777 143.828 298.652 144.018 297.125C145.808 282.743 147.824 271.496 149.145 268.524C150.393 265.716 150.564 265.552 151.262 266.495C151.68 267.059 152.185 269.058 152.384 270.938ZM300.316 285.743L302.404 286.348V294.136C302.404 301.77 302.427 301.92 303.591 301.746C304.431 301.62 305.839 299.8 308.398 295.535L312.018 289.502L314.257 289.801C317.692 290.261 324.091 293.694 326.898 296.584C329.88 299.652 330.728 298.664 318.871 305.924C310.42 311.098 308.879 312.415 309.987 313.521C310.415 313.948 311.824 313.628 314.916 312.403C322.847 309.26 332.1 306.258 332.518 306.693C333.15 307.348 334.135 313.364 334.135 316.562C334.135 319.302 334.056 319.45 332.073 320.393C330.939 320.932 326.761 321.995 322.788 322.754C313.203 324.586 310.793 325.906 313.279 327.964C314.244 328.763 328.245 328.378 332.104 327.446L334.248 326.929L333.859 329.513C333.381 332.694 332.281 334.899 330.633 335.976C329.944 336.426 326.919 337.163 323.91 337.614C317.451 338.582 313.707 340.25 312.237 342.814C311.571 343.977 311.049 346.401 310.788 349.554C310.463 353.461 310.059 355.02 308.832 357.109C305.495 362.791 301.718 365.713 297.709 365.713C294.987 365.713 291.827 364.341 291.827 363.159C291.827 362.639 293.046 360.314 294.536 357.993C300.905 348.071 304.09 339.057 300.995 339.708C300.525 339.807 299.302 341.816 298.278 344.172C297.253 346.527 295.554 349.651 294.503 351.114C291.968 354.64 286.459 359.048 284.588 359.048C280.758 359.048 273.142 353.217 270.797 348.489C269.587 346.048 269.648 344.906 271.018 344.382C271.467 344.211 276.094 341.026 281.3 337.305C289.579 331.387 290.665 330.438 289.957 329.732C289.249 329.026 288.388 329.382 283.084 332.57C276.344 336.621 269.236 340.166 267.852 340.166C265.209 340.166 262.914 333.713 262.47 325.032C262.221 320.157 262.307 319.062 262.939 319.059C264.757 319.054 282.519 316.81 282.976 316.529C283.928 315.941 283.472 314.639 282.224 314.385C281.535 314.245 277.59 314.012 273.456 313.866C263.992 313.532 262.879 313.156 262.879 310.291C262.879 305.333 267.525 294.97 272.064 289.802C274.414 287.126 274.88 286.86 278.618 286.066C280.831 285.596 283.393 285.101 284.312 284.966C287.073 284.56 298.079 285.093 300.316 285.743ZM306.546 296.153C303.496 301.408 303.517 301.4 303.517 297.249V293.515H305.797H308.077L306.546 296.153ZM364.714 332.809C366.402 333.633 366.887 334.322 367.934 337.389C369.792 342.829 369.691 343.358 366.701 343.805C365.323 344.011 364.198 344.463 364.201 344.811C364.203 345.158 365.205 346.012 366.427 346.708C368.496 347.887 368.65 348.145 368.65 350.443C368.65 352.905 368.646 352.91 367.119 352.336C366.277 352.019 364.504 351.129 363.178 350.357C361.853 349.585 360.628 349.094 360.456 349.266C360.285 349.437 360.868 350.486 361.753 351.598C364.297 354.793 365.866 357.038 365.866 357.483C365.866 357.709 364.875 358.189 363.665 358.551C360.598 359.468 359.166 358.437 357.889 354.395C357.288 352.492 356.587 351.273 356.096 351.273C355.072 351.273 355.081 352.255 356.145 356.35C356.615 358.161 356.851 359.885 356.669 360.179C356.143 361.028 352.163 360.808 351.397 359.887C350.962 359.364 350.844 358.348 351.075 357.118C351.436 355.197 350.753 353.089 349.5 352.253C348.501 351.588 345.882 351.771 344.234 352.621C343.389 353.057 342.448 353.244 342.142 353.038C340.96 352.238 339.702 349.848 339.702 348.4C339.702 346.949 339.833 346.879 342.859 346.719C344.595 346.628 346.102 346.292 346.207 345.972C346.313 345.653 345.113 344.85 343.542 344.187C340.865 343.059 340.709 342.885 341.068 341.435C341.523 339.598 343.8 337.065 346.048 335.894C347.607 335.082 347.719 335.112 349.278 336.777C350.165 337.724 351.013 338.5 351.161 338.5C351.309 338.5 351.267 337.266 351.066 335.759L350.702 333.019L353.413 332.155C356.693 331.11 361.843 331.408 364.714 332.809ZM318.488 345.202C320.147 348.903 324.671 361.963 325.45 365.296C325.746 366.568 325.622 366.823 324.704 366.823C323.871 366.823 323.455 366.245 323.006 364.463C322.125 360.972 318.643 351.053 316.58 346.162C314.895 342.166 314.869 341.514 316.386 341.32C316.574 341.297 317.521 343.043 318.488 345.202ZM348.394 356.147C347.653 357.605 346.493 360.618 345.817 362.84C345.14 365.063 344.498 366.795 344.391 366.688C343.85 366.149 347.476 355.69 348.723 354.19C349.841 352.846 349.728 353.52 348.394 356.147ZM356.774 354.42C356.57 354.624 356.403 354.457 356.403 354.05C356.403 353.643 356.57 353.476 356.774 353.68C356.978 353.883 356.978 354.217 356.774 354.42ZM357.339 356.376C357.162 356.818 357.03 356.687 357.003 356.04C356.979 355.455 357.111 355.127 357.296 355.311C357.48 355.496 357.5 355.975 357.339 356.376ZM366.423 369.878V371.266H338.589H310.754V369.878V368.489H338.589H366.423V369.878ZM364.433 375.015C363.885 378.099 360.495 386.961 357.706 392.601C351.499 405.153 345.736 412.404 338.557 416.692C334.936 418.855 327.128 420.275 324.465 419.256C322.892 418.654 320.262 413.75 318.289 407.741C315.628 399.638 312.998 383.821 312.985 375.848L312.981 372.932H338.892H364.804L364.433 375.015ZM136.886 397.507L136.258 400.145H126.921C119.361 400.145 117.584 400 117.584 399.38C117.584 398.131 118.793 397.516 122.037 397.113C126.467 396.564 134.265 395.121 135.623 394.6C137.326 393.946 137.589 394.553 136.886 397.507ZM69.5812 399.336C71.8068 400.065 75.1263 400.97 76.9573 401.348C80.3525 402.047 81.133 402.965 79.6177 404.477C78.4303 405.662 73.2475 405.272 70.0916 403.761C66.3268 401.958 62.7072 398.891 63.2711 397.981C63.5055 397.603 64.1106 397.454 64.6155 397.652C65.1204 397.849 67.355 398.607 69.5812 399.336ZM201.365 420.694C201.139 421.058 205.813 421.249 214.971 421.249C223.9 421.249 228.921 421.049 228.921 420.694C228.921 420.339 224.015 420.138 215.315 420.138C206.845 420.138 201.579 420.348 201.365 420.694ZM257.312 420.694C257.312 421.055 265.024 421.249 279.334 421.249C293.874 421.249 301.239 421.06 301.012 420.694C300.792 420.339 292.842 420.138 278.99 420.138C264.909 420.138 257.312 420.333 257.312 420.694ZM353.619 420.694C353.619 421.046 357.887 421.249 365.31 421.249C372.732 421.249 377 421.046 377 420.694C377 420.341 372.732 420.138 365.31 420.138C357.887 420.138 353.619 420.341 353.619 420.694Z" fill="#141414"/>
</svg>
