<svg width="660" height="180" viewBox="0 0 660 180" fill="none" xmlns="http://www.w3.org/2000/svg">
<path d="M660 2.01074V25.6277H613.02V178.503H584.07V25.6277H536.836V2.01074H660Z" fill="black"/>
<path d="M28.9499 153.261H88.6272V176.624H0V0.131348H28.9499V153.261Z" fill="black"/>
<path d="M205.168 179.244C180.182 179.244 158.999 170.553 141.618 153.172C124.236 135.791 115.546 114.607 115.546 89.6218C115.546 64.6364 124.236 43.453 141.618 26.0718C158.999 8.6906 180.182 0 205.168 0C215.216 0 224.857 1.76528 234.091 5.29584C243.325 8.82639 251.608 13.8506 258.941 20.3686L286.642 45.6257L262.2 67.6238L236.943 44.8109C232.597 41.0088 227.709 38.0214 222.277 35.8487C216.846 33.6761 211.142 32.5898 205.168 32.5898C189.416 32.5898 175.973 38.1572 164.838 49.292C153.703 60.4268 148.136 73.8701 148.136 89.6218C148.136 105.374 153.703 118.817 164.838 129.952C175.973 141.087 189.416 146.654 205.168 146.654C211.142 146.654 216.846 145.568 222.277 143.395C227.709 141.222 232.597 138.235 236.943 134.433L363.228 20.3686C370.561 13.8506 378.844 8.82639 388.078 5.29584C397.311 1.76528 406.953 0 417.001 0C441.987 0 463.17 8.6906 480.551 26.0718C497.932 43.453 506.623 64.6364 506.623 89.6218C506.623 114.607 497.932 135.791 480.551 153.172C463.17 170.553 441.987 179.244 417.001 179.244C406.953 179.244 397.311 177.478 388.078 173.948C378.844 170.417 370.561 165.393 363.228 158.875L335.527 133.618L359.969 111.62L385.226 134.433C389.571 138.235 394.46 141.222 399.891 143.395C405.323 145.568 411.026 146.654 417.001 146.654C432.753 146.654 446.196 141.087 457.331 129.952C468.466 118.817 474.033 105.374 474.033 89.6218C474.033 73.8701 468.466 60.4268 457.331 49.292C446.196 38.1572 432.753 32.5898 417.001 32.5898C411.026 32.5898 405.323 33.6761 399.891 35.8487C394.46 38.0214 389.571 41.0088 385.226 44.8109L258.941 158.875C251.608 165.393 243.325 170.417 234.091 173.948C224.857 177.478 215.216 179.244 205.168 179.244Z" fill="black"/>
</svg>
