<svg width="660" height="316" viewBox="0 0 660 316" fill="none" xmlns="http://www.w3.org/2000/svg">
<g clip-path="url(#clip0_150_673)">
<path d="M83.9563 140.204C81.0179 143.133 76.7119 145.532 72.2138 145.363C68.5859 145.194 65.6588 142.953 63.7601 140.035C61.5111 136.42 60.3131 131.949 59.4428 127.657C58.5839 122.33 58.064 116.991 57.8945 111.483C57.8945 110.627 57.7137 109.591 57.7137 108.735C50.6388 109.771 43.383 110.627 36.1386 110.278C36.4777 114.919 36.4777 119.57 35.7995 124.211C35.2797 128.513 33.9009 132.816 32.1717 136.769C30.7929 139.517 29.0637 142.446 26.3061 143.989C21.6498 146.737 16.4623 144.338 12.8457 140.891C8.17806 136.758 4.91186 130.912 2.83233 125.067C1.62304 121.969 0.933631 118.703 0.583277 115.437C0.063396 110.278 -0.106129 104.939 0.0633971 99.6119C0.40245 89.2948 1.44221 78.9665 3.69126 68.9985C4.73102 64.1779 5.94031 59.3685 7.65818 54.7168C9.20652 50.5945 10.9357 46.292 13.1847 42.3386C16.2927 37.18 20.7795 32.5283 25.4358 28.7439C30.612 24.7905 36.4777 21.0061 43.044 19.8009C48.2202 18.9449 56.6739 19.2828 62.7203 22.8983C67.0376 25.4776 70.835 29.0931 74.1125 32.8775C77.9099 37.18 81.3682 41.9894 84.4649 46.8101C94.9869 63.3219 98.7955 124.898 83.945 140.204H83.9563ZM50.8196 83.438C53.2382 83.269 55.4759 83.1001 57.8945 82.9198C57.8945 82.2328 57.8945 81.7147 57.7137 81.1966C57.7137 79.6535 57.7137 72.6028 57.5441 71.0484V70.3614L57.0243 67.7821C56.6739 65.8899 56.1653 63.9977 55.4646 62.1055C54.6057 59.8641 53.3964 57.465 51.3282 56.4288C49.9494 55.5728 48.2202 55.5728 46.6605 56.4288C42.0042 58.49 38.8962 63.4796 36.9975 67.9511C35.7883 70.6993 34.7485 79.3044 34.579 82.4017V83.0888C36.6472 83.6069 38.8962 83.6069 40.9645 83.7759C44.242 83.7759 47.5195 83.6069 50.8083 83.4267L50.8196 83.438Z" fill="black"/>
<path d="M223.25 120.077C222.731 124.38 221.521 128.502 219.453 132.287C217.724 135.384 215.656 138.65 213.068 141.061C210.649 143.302 207.371 145.532 203.924 145.014C200.477 144.676 198.059 142.086 196.85 138.988C195.471 135.722 194.951 132.275 194.601 128.84C194.261 124.2 193.742 119.548 192.871 115.076C191.832 109.918 190.622 104.928 189.074 100.108C188.385 98.2154 188.215 96.3232 187.695 94.431C187.356 92.7077 186.836 90.8155 185.446 89.6216C184.237 88.5854 182.338 87.5604 180.79 87.5604C179.75 87.5604 178.891 88.0785 178.202 88.5966C179.061 92.55 179.58 96.6836 180.1 100.637C180.79 105.627 181.31 110.785 181.14 115.944C180.971 118.523 180.801 121.102 180.451 123.681C180.1 126.092 179.411 128.502 179.072 131.081C178.552 134.517 177.863 138.301 175.625 141.061C173.376 143.989 169.07 145.881 165.272 145.701C157.158 145.363 154.4 136.071 152.852 129.538C151.473 124.38 150.953 119.221 150.433 114.063C150.264 111.483 149.913 108.904 149.574 106.325C149.224 104.433 148.885 102.709 148.535 100.817C148.184 97.7198 147.676 94.2846 146.116 91.7053C145.427 90.6691 144.568 89.4639 143.189 89.295C141.98 88.9458 140.77 89.126 139.742 89.8131C138.713 90.5001 138.013 91.5363 137.323 92.5613C137.493 93.4173 137.662 101.166 137.662 102.878C137.493 109.242 136.622 115.606 135.244 121.801C134.554 125.416 133.684 128.851 132.305 132.118C131.096 135.046 129.367 137.963 127.299 140.542C125.569 142.604 123.162 144.496 120.563 145.363C117.975 146.219 115.387 145.532 113.318 143.989C110.21 141.579 108.481 137.625 107.453 134.01C106.243 129.538 105.723 124.898 105.554 120.246C105.384 115.257 105.554 110.436 105.554 105.458C105.554 102.36 105.384 99.0939 105.034 95.9966C104.695 91.3561 104.514 84.6433 105.034 78.9666C105.554 73.29 106.594 67.2754 109.702 62.4548C111.081 60.2134 112.81 58.3325 115.047 57.2962C117.466 55.9221 120.224 55.573 122.993 55.9221C125.581 56.2713 127.999 57.2962 129.898 59.0195C131.627 60.7428 132.825 62.9729 133.695 65.2143C134.735 68.1427 135.425 71.2401 135.764 74.5064C136.453 73.1323 137.323 71.7582 138.182 70.3841C141.98 64.7074 147.156 59.1997 154.061 57.3075C156.649 56.6205 159.407 56.6205 161.995 57.6454C164.414 58.6816 166.482 60.3936 168.03 62.466C170.969 65.9013 172.867 70.0349 174.416 74.3374C175.794 70.553 178.213 67.1177 181.151 64.3583C185.989 59.7178 192.713 56.4402 199.449 57.8256C206.693 59.1997 211.87 64.8764 214.808 71.2401C218.086 77.9529 219.634 85.1726 220.843 92.4036C221.533 96.7061 222.222 100.997 222.742 105.3C223.431 110.29 223.782 115.279 223.262 120.089L223.25 120.077Z" fill="black"/>
<path d="M403.231 90.151C401.682 93.9355 398.224 97.3708 394.257 98.407C390.81 99.263 387.182 98.7561 383.554 98.238C379.757 97.7199 375.96 97.551 372.162 98.7561C369.054 99.7923 366.297 101.854 364.048 104.433C362.488 106.156 361.109 108.217 359.9 110.278C360.069 114.063 360.239 118.016 360.069 121.97C360.069 127.995 357.82 134.359 354.543 139.349C351.435 143.82 346.428 148.292 340.563 146.23C337.285 145.025 334.347 142.446 332.629 139.518C330.73 136.589 329.871 132.985 329.351 129.369C328.311 121.801 329.012 113.894 328.142 106.325C326.933 96.0079 324.695 85.5106 326.763 75.1935C327.452 71.9272 328.662 68.8298 330.56 66.0816C332.29 63.5023 334.358 61.261 336.776 59.3688C338.325 58.3325 340.223 57.3076 342.122 56.4403C342.292 56.2714 342.642 56.1024 342.812 55.9222C343.331 55.5843 343.851 55.5843 344.19 55.9222C346.609 55.2352 349.197 55.4041 351.604 56.7782C357.3 60.0445 357.99 67.7824 358.34 73.8082C358.521 76.9055 358.521 79.834 358.521 82.9201C360.42 78.9667 362.488 75.1823 364.907 71.5668C366.975 68.6384 369.054 65.541 371.812 63.1419C374.569 60.9006 377.678 59.1885 381.305 58.6704C388.041 57.6342 394.596 60.5627 398.744 65.8901C400.993 68.6384 402.892 72.2538 403.57 75.8693C404.429 80.6787 405.129 85.6683 403.231 90.151Z" fill="black"/>
<path d="M281.839 144.034C266.096 147.807 250.183 144.564 241.469 135.125C231.173 123.963 235.434 108.983 238.294 98.9251C241.074 89.1599 246.239 70.9698 264.355 65.3157C280.121 60.3937 297.017 67.6697 306.319 76.8042C316.988 87.2902 317.519 100.119 317.598 103.543C317.666 106.438 317.767 114.637 312.67 123.344C303.516 139 285.207 143.291 281.839 144.034ZM278.98 96.6274C276.889 96.8301 276.267 92.7979 271.984 90.5903C269.193 89.1486 265.316 88.8333 262.445 90.0159C256.885 92.2911 255.687 99.8937 256.365 104.613C257.495 112.396 264.762 119.255 273.25 121.046C286.496 123.828 300.408 113.838 302.148 103.52C302.872 99.2179 301.99 91.8293 296.215 89.1261C292.406 87.3353 286.902 87.7971 283.738 90.3087C280.573 92.8204 280.935 96.4359 278.969 96.6274H278.98Z" fill="black"/>
<path d="M288.778 32.8438C287.93 31.9878 284.562 28.5525 279.522 28.9917C275.046 29.3747 272.481 32.7424 271.238 34.3643C270.537 35.2766 265.067 42.6315 269.373 49.0627C271.362 52.0362 275.419 54.7844 280.177 54.5254C287.467 54.1199 290.632 46.9565 290.982 46.1118C292.677 42.0796 292.496 36.6282 288.778 32.8438Z" fill="black"/>
<path d="M302.566 46.7764C303.414 45.9204 306.782 42.4851 311.823 42.9244C315.371 43.2285 318.649 45.3572 320.107 48.2969C322.096 52.2953 320.627 57.1498 317.688 60.6414C316.615 61.9254 314.038 64.8425 309.833 65.079C305.595 65.3156 302.035 62.68 300.351 60.0444C297.458 55.5166 299.436 49.9526 302.555 46.7764H302.566Z" fill="black"/>
<path d="M238.553 45.6274C239.401 44.7714 242.769 41.3362 247.809 41.7754C251.358 42.0795 254.636 44.2083 256.094 47.148C258.083 51.1464 256.613 56.0008 253.675 59.4924C252.601 60.7764 250.025 63.6936 245.82 63.9301C241.582 64.1666 238.022 61.5311 236.338 58.8955C233.445 54.3677 235.423 48.8037 238.542 45.6274H238.553Z" fill="black"/>
<path d="M69.2061 270.544C67.8272 277.257 63.6795 283.79 57.8139 287.056C54.7059 288.779 51.2589 289.804 47.631 290.322C43.6641 290.84 39.6972 291.009 35.5494 290.153C-17.0829 279.149 -4.4814 215.681 29.5143 205.026C36.0693 202.965 43.3137 202.447 49.8801 204.17C56.4351 205.725 62.8206 208.991 66.9683 214.318C71.4551 219.995 71.975 227.384 69.3756 234.097C67.8272 237.712 65.5782 240.978 62.4702 243.389C59.1927 247.691 42.7938 250.958 33.3117 247.86C32.2719 253.368 31.0739 258.177 35.2104 262.311C37.2786 264.372 40.5674 265.746 43.4946 265.408C46.0827 265.07 48.3317 263.347 50.0496 261.624C53.6774 258.008 57.6444 253.03 63.3404 254.742C70.0763 256.803 70.2458 264.89 69.2061 270.567V270.544ZM40.7369 234.953C43.325 234.784 46.6025 234.097 47.2919 231.337C47.8118 229.614 46.7721 228.409 45.0542 227.902C40.5674 226.697 34.8713 228.927 32.8031 233.06C32.9726 233.229 32.9726 233.409 32.9726 233.747C33.8316 234.085 35.0408 234.434 35.8998 234.603C37.4481 234.953 39.1773 235.121 40.7369 234.953Z" fill="black"/>
<path d="M198.295 265.217C197.775 269.519 196.577 273.642 194.497 277.426C192.768 280.524 190.7 283.79 188.112 286.2C185.693 288.442 182.416 290.672 178.969 290.154C175.522 289.816 173.103 287.225 171.894 284.128C170.515 280.861 169.995 277.426 169.656 273.98C169.317 269.339 168.797 264.688 167.927 260.216C166.899 255.058 165.689 250.068 164.13 245.259C163.44 243.366 163.271 241.474 162.751 239.582C162.4 237.859 161.892 235.966 160.502 234.773C159.292 233.736 157.394 232.711 155.845 232.711C154.817 232.711 153.947 233.229 153.257 233.748C154.116 237.701 154.636 241.835 155.156 245.788C155.845 250.778 156.365 255.936 156.185 261.095C156.015 263.674 155.845 266.253 155.495 268.832C155.156 271.243 154.467 273.653 154.116 276.232C153.596 279.668 152.907 283.452 150.669 286.211C148.431 289.14 144.114 291.032 140.317 290.852C132.213 290.514 129.445 281.222 127.896 274.689C126.517 269.531 125.997 264.372 125.478 259.214C125.308 256.634 124.958 254.055 124.619 251.476C124.28 249.584 123.929 247.86 123.59 245.968C123.251 242.871 122.731 239.435 121.172 236.856C120.482 235.82 119.623 234.615 118.233 234.446C117.024 234.108 115.826 234.277 114.786 234.964C113.758 235.651 113.068 236.687 112.368 237.712C112.537 238.568 112.707 246.306 112.707 248.029C112.537 254.393 111.678 260.757 110.299 266.951C109.61 270.567 108.74 274.002 107.361 277.269C106.152 280.197 104.422 283.114 102.354 285.693C100.625 287.755 98.2065 289.647 95.6184 290.503C93.0303 291.359 90.4422 290.672 88.3739 289.129C85.266 286.718 83.5368 282.765 82.5083 279.149C81.299 274.678 80.7792 270.038 80.6096 265.386C80.4401 260.396 80.6096 255.587 80.6096 250.597C80.6096 247.5 80.4401 244.234 80.0898 241.136C79.7507 236.496 79.5699 229.783 80.0898 224.106C80.6096 218.43 81.6381 212.415 84.7461 207.594C86.1249 205.353 87.8541 203.472 90.1031 202.436C92.5217 201.062 95.2793 200.713 98.0369 201.062C100.625 201.4 103.044 202.436 104.942 204.159C106.671 205.882 107.881 208.113 108.74 210.354C109.779 213.282 110.469 216.368 110.808 219.646C111.497 218.272 112.356 216.898 113.227 215.524C117.024 209.847 122.2 204.339 129.105 202.447C131.694 201.76 134.451 201.76 137.039 202.785C139.458 203.821 141.526 205.533 143.074 207.606C146.013 211.041 147.912 215.175 149.46 219.477C150.839 215.693 153.257 212.257 156.196 209.498C161.033 204.857 167.758 201.591 174.493 202.965C181.738 204.339 186.914 210.016 189.852 216.38C193.13 223.093 194.69 230.312 195.899 237.532C196.588 241.835 197.278 246.126 197.798 250.428C198.487 255.418 198.826 260.408 198.317 265.217H198.295Z" fill="black"/>
<path d="M322.852 266.94C321.134 271.93 318.885 277.088 315.087 281.041C311.64 284.657 307.153 287.236 301.966 287.923C295.061 288.959 287.816 287.067 281.951 283.452C278.153 281.041 275.045 277.944 272.457 274.509C272.288 278.462 272.288 282.584 272.118 286.549C271.779 291.877 271.598 297.384 271.09 302.712C270.92 305.46 270.751 308.039 270.231 310.799C269.191 316.306 267.473 322.152 264.535 326.961C261.946 331.264 257.98 335.735 252.623 335.386C249.695 335.217 246.757 334.012 244.689 332.12C242.44 330.059 240.891 327.311 239.852 324.551C237.433 318.019 236.744 310.968 236.404 304.086C236.054 295.143 236.404 286.2 236.574 277.257C236.744 267.447 236.913 257.817 236.913 248.187C237.083 239.593 237.252 230.988 238.981 222.732C240.71 214.645 244.508 206.569 251.922 202.436C253.651 201.399 255.719 200.712 257.787 200.543C259.856 200.543 261.754 201.062 263.653 201.918C266.761 203.292 268.49 206.22 269.349 209.486C270.208 212.584 270.378 215.85 270.897 219.116C271.236 221.178 271.587 223.239 271.756 225.142C272.095 227.203 272.276 229.096 272.615 230.988C274.333 226.347 276.413 221.876 279.001 217.573C283.149 210.861 289.353 203.81 297.818 203.472H298.338C298.677 203.303 299.028 203.303 299.367 203.472C306.441 203.81 312.657 208.799 316.624 214.476C320.422 219.635 322.84 225.829 324.038 232.193C326.457 243.366 326.287 255.756 322.829 266.929L322.852 266.94ZM279.543 259.022C282.651 262.119 288.167 261.77 290.935 258.335C294.043 254.719 294.733 248.874 294.043 244.233C293.185 240.1 290.766 235.29 285.94 235.29C285.771 235.29 285.42 235.121 285.251 235.121C280.594 236.496 277.837 241.316 276.797 245.957C275.938 250.259 276.108 255.936 279.555 259.022H279.543Z" fill="black"/>
<path d="M411.389 227.902C411.05 232.891 410.18 238.05 410.01 243.209C409.671 248.536 409.671 254.044 409.49 259.551C409.321 264.023 409.151 268.494 408.632 272.797C408.292 275.894 407.773 278.992 406.902 281.909C405.874 284.657 404.665 287.417 402.246 289.129C399.658 291.021 396.38 291.37 393.442 290.672C388.435 289.466 385.508 285.164 383.779 280.692C379.631 284.477 374.636 287.405 369.279 288.779C362.373 290.841 354.609 290.322 348.393 286.538C343.556 283.61 340.278 278.969 338.21 273.811C335.792 268.303 334.763 262.119 334.594 256.094C334.243 249.73 334.763 243.366 335.803 237.171C336.843 231.664 338.391 226.167 340.64 221.009C343.579 214.127 348.404 207.076 355.649 204.148C359.446 202.774 368.589 203.461 372.387 205.184C378.772 208.45 381.36 211.21 385.327 217.393V215.67C385.666 212.055 386.537 208.45 389.125 205.871C393.272 201.569 400.167 200.544 405.173 203.81C408.281 205.871 409.83 208.968 410.7 212.584C411.909 217.574 411.909 222.732 411.389 227.891V227.902ZM380.332 254.731C382.231 250.09 379.982 244.414 376.535 240.798C374.817 238.906 372.398 237.532 369.799 236.845C367.041 236.158 364.103 236.676 361.514 237.881H361.345L360.825 238.917C359.966 240.46 359.446 242.015 359.096 243.907C358.407 247.691 358.757 251.994 360.305 255.778C361.514 259.214 364.272 261.973 368.07 262.142C368.07 262.142 377.213 262.491 380.321 254.753L380.332 254.731Z" fill="black"/>
<path d="M491.474 272.437C489.225 276.221 486.297 279.487 482.85 282.236C479.912 284.815 476.465 287.225 472.667 288.768C465.254 291.516 456.449 290.829 449.725 286.876C446.097 284.984 443.17 282.236 440.921 278.8C438.683 275.365 437.293 271.231 436.434 267.109C434.535 257.817 434.716 248.187 434.716 238.906V226.866C427.472 227.902 421.945 219.297 420.736 213.102C420.046 208.98 420.566 204.677 423.154 201.231C426.093 197.277 431.439 196.072 436.095 196.072C436.265 193.324 436.434 190.564 436.784 187.816C436.954 185.068 437.304 182.309 437.994 179.741C439.892 171.485 445.928 154.117 457.67 159.444C460.439 160.649 463.027 162.88 464.575 165.639C466.124 168.905 466.813 172.352 467.164 175.787C467.514 179.572 467.514 183.176 467.514 186.96C467.514 188.503 467.514 190.058 467.344 191.601C467.344 193.144 467.514 194.698 467.514 196.241C470.791 195.385 474.419 194.867 477.697 195.892C485.8 198.471 487.88 208.101 485.631 215.321C484.421 218.936 482.003 222.372 478.556 224.264C474.928 225.987 470.961 225.807 467.333 224.602C467.333 228.217 467.333 232.002 467.503 235.775C467.503 238.185 467.672 240.596 468.022 242.995C468.361 244.887 468.542 246.779 469.232 248.502C469.401 248.671 469.571 249.02 469.752 249.358C469.752 249.527 469.921 249.707 469.921 249.876H470.091V250.045L470.43 250.214L470.599 250.383H470.938C471.108 250.383 471.108 250.214 471.108 250.214L471.797 249.876C472.656 249.189 473.176 248.502 473.696 247.635L473.865 247.466C474.555 246.61 475.414 245.743 476.284 245.225C481.98 241.609 488.535 246.261 491.813 250.901C493.711 253.65 494.921 256.927 494.921 260.193C495.09 264.496 493.711 268.618 491.474 272.403V272.437Z" fill="black"/>
<path d="M580.689 227.902C580.35 232.891 579.48 238.05 579.311 243.209C578.972 248.536 578.972 254.044 578.791 259.551C578.621 264.023 578.452 268.494 577.932 272.797C577.593 275.894 577.073 278.992 576.203 281.909C575.174 284.657 573.965 287.417 571.546 289.129C568.958 291.021 565.681 291.37 562.742 290.672C557.736 289.466 554.808 285.164 553.079 280.692C548.931 284.477 543.936 287.405 538.579 288.779C531.674 290.841 523.909 290.322 517.693 286.538C512.856 283.61 509.579 278.969 507.511 273.811C505.092 268.303 504.064 262.119 503.894 256.094C503.544 249.73 504.064 243.366 505.103 237.171C506.143 231.664 507.691 226.167 509.94 221.009C512.879 214.127 517.705 207.076 524.949 204.148C528.747 202.774 537.89 203.461 541.687 205.184C548.073 208.45 550.661 211.21 554.628 217.393V215.67C554.967 212.055 555.837 208.45 558.425 205.871C562.573 201.569 569.467 200.544 574.473 203.81C577.581 205.871 579.13 208.968 580 212.584C581.209 217.574 581.209 222.732 580.689 227.891V227.902ZM549.621 254.731C551.52 250.09 549.271 244.414 545.824 240.798C544.106 238.906 541.687 237.532 539.088 236.845C536.33 236.158 533.392 236.676 530.803 237.881H530.634L530.114 238.917C529.255 240.46 528.735 242.015 528.385 243.907C527.695 247.691 528.046 251.994 529.594 255.778C530.803 259.214 533.561 261.973 537.358 262.142C537.358 262.142 546.502 262.491 549.61 254.753L549.621 254.731Z" fill="black"/>
<path d="M659.904 267.627C659.384 273.135 656.626 278.113 652.14 281.56C647.472 285.344 641.606 287.574 635.922 289.128C629.706 290.503 623.32 291.19 617.104 291.37C613.657 291.37 610.368 291.201 607.102 290.514C603.474 289.658 600.027 288.104 597.27 285.873C591.404 281.053 588.816 273.833 590.195 266.782C591.404 261.455 594.512 255.947 600.378 254.911C605.384 254.055 610.56 255.767 615.217 257.321C617.466 258.008 619.873 258.864 622.292 259.563C624.19 260.081 626.089 260.588 628.157 260.419C629.536 260.25 630.745 259.563 631.616 258.188L632.135 256.634C632.305 256.465 632.305 255.947 632.135 255.778C632.135 255.553 632.022 255.324 631.796 255.091C631.457 254.922 631.457 254.753 630.938 254.573C629.039 253.717 626.451 253.717 624.383 253.717C621.794 253.717 619.206 253.886 616.788 254.066C610.052 254.235 603.497 252.174 599.01 247.353C596.083 244.425 594.354 240.821 592.794 237.036C591.415 233.601 590.375 230.154 590.036 226.37C589.517 219.837 591.935 213.474 597.111 209.171C602.468 204.869 609.023 202.458 615.748 201.602C628.169 199.879 643.019 202.289 650.614 212.787C652.513 215.535 653.891 218.632 654.581 221.73C655.101 224.478 655.27 227.575 653.722 230.154C650.964 234.457 644.918 234.795 640.261 234.108C637.504 233.77 634.735 232.903 632.147 231.866C630.768 231.179 629.559 230.661 628.18 229.805C626.462 228.769 624.563 227.564 622.653 226.877C621.105 226.539 619.726 226.539 618.336 226.877C616.618 227.913 615.228 229.287 614.889 231.179C614.719 231.866 614.719 232.722 614.889 233.59C615.228 234.277 615.917 235.133 616.618 235.82C619.376 238.061 623.524 238.917 626.971 239.086C631.977 239.255 636.984 238.399 641.81 239.773C646.127 240.978 649.913 243.558 652.852 246.824C657.689 252.501 660.616 260.238 659.926 267.638L659.904 267.627Z" fill="black"/>
</g>
<defs>
<clipPath id="clip0_150_673">
<rect width="660" height="316" fill="white"/>
</clipPath>
</defs>
</svg>
