<svg width="660" height="221" viewBox="0 0 660 221" fill="none" xmlns="http://www.w3.org/2000/svg">
<path d="M595.106 98.3969H473.446C470.512 98.3969 467.683 97.6634 464.959 96.1963C462.234 94.7293 459.929 92.8431 458.042 90.5377C456.156 88.0228 454.689 85.2982 453.641 82.3641C452.803 79.2205 452.698 76.0768 453.327 72.9331L462.444 25.4637C463.072 22.3201 464.435 19.2812 466.53 16.3471C468.626 13.2034 471.036 10.4789 473.761 8.17354C476.695 5.65861 479.839 3.66762 483.192 2.20057C486.545 0.733527 489.689 0 492.623 0H659.552L651.378 42.4395H504.569L501.111 59.7297H622.771C625.705 59.7297 628.534 60.4633 631.259 61.9303C633.983 63.3973 636.289 65.3883 638.175 67.9033C640.061 70.2086 641.423 72.9331 642.261 76.0768C643.309 79.0109 643.519 82.0498 642.89 85.1935L633.774 132.663C633.145 135.807 631.783 138.95 629.687 142.094C627.591 145.028 625.076 147.752 622.142 150.267C619.417 152.573 616.379 154.459 613.025 155.926C609.672 157.393 606.528 158.127 603.594 158.127H418.747L426.92 115.687H591.648L595.106 98.3969Z" fill="black"/>
<path d="M203.541 158.127L222.717 59.7297H267.986L256.983 115.687H361.667L376.128 42.4395H226.175L234.349 0H404.421C407.355 0 410.184 0.733527 412.909 2.20057C415.633 3.66762 417.939 5.65861 419.825 8.17354C421.711 10.4789 423.073 13.2034 423.912 16.3471C424.96 19.2812 425.169 22.3201 424.54 25.4637L403.792 132.663C403.164 135.807 401.801 138.95 399.706 142.094C397.61 145.028 395.095 147.752 392.161 150.267C389.436 152.573 386.397 154.459 383.044 155.926C379.691 157.393 376.547 158.127 373.613 158.127H203.541Z" fill="black"/>
<path d="M19.1764 59.7297H157.498L160.956 42.4395H22.6344L30.808 0H189.249C192.183 0 195.012 0.733527 197.737 2.20057C200.461 3.66762 202.767 5.65861 204.653 8.17354C206.539 10.4789 207.901 13.2034 208.74 16.3471C209.788 19.2812 209.997 22.3201 209.368 25.4637L200.252 72.9331C199.623 76.0768 198.261 79.2205 196.165 82.3641C194.069 85.2982 191.554 88.0228 188.62 90.5377C185.896 92.8431 182.857 94.7293 179.504 96.1963C176.15 97.6634 173.007 98.3969 170.073 98.3969H157.183L222.257 221H171.33L103.112 98.3969H56.9004L45.2688 158.127H0L19.1764 59.7297Z" fill="black"/>
</svg>
